<?xml version="1.0" standalone="no"?>
<!DOCTYPE svg PUBLIC "-//W3C//DTD SVG 1.1//EN" "http://www.w3.org/Graphics/SVG/1.1/DTD/svg11.dtd" >
<svg>
<metadata>
Created by FontForge 20110222 at Wed Nov 19 11:55:25 2014
 By www-data

</metadata>
<defs>
<font id="DINRoundPro-Medium" horiz-adv-x="650" >
  <font-face 
    font-family="DINRoundPro-Medium"
    font-weight="500"
    font-stretch="normal"
    units-per-em="2000"
    panose-1="2 11 6 4 2 1 1 2 1 2"
    ascent="1528"
    descent="-472"
    x-height="1014"
    cap-height="1424"
    bbox="-219.144 -493 2351 2084.89"
    underline-thickness="156"
    underline-position="-126"
    stemh="192"
    stemv="204"
    unicode-range="U+000D-FB02"
  />
<missing-glyph horiz-adv-x="1147" 
d="M294 1424h559c32 0 70 0 101 -31s31 -69 31 -101v-1160c0 -32 0 -70 -31 -101s-69 -31 -101 -31h-559c-32 0 -70 0 -101 31s-31 69 -31 101v1160c0 32 0 70 31 101s69 31 101 31zM378 1232v-1040h391v1040h-391z" />
    <glyph glyph-name=".notdef" horiz-adv-x="1147" 
d="M294 1424h559c32 0 70 0 101 -31s31 -69 31 -101v-1160c0 -32 0 -70 -31 -101s-69 -31 -101 -31h-559c-32 0 -70 0 -101 31s-31 69 -31 101v1160c0 32 0 70 31 101s69 31 101 31zM378 1232v-1040h391v1040h-391z" />
    <glyph glyph-name=".null" horiz-adv-x="0" 
 />
    <glyph glyph-name=".null" horiz-adv-x="0" 
 />
    <glyph glyph-name="CR" unicode="&#xd;" horiz-adv-x="480" 
 />
    <glyph glyph-name="space" unicode=" " horiz-adv-x="480" 
 />
    <glyph glyph-name="exclam" unicode="!" horiz-adv-x="665" 
d="M259 1285c0 53 1 70 16 98c16 29 49 49 92 49s76 -20 92 -49c15 -28 16 -45 16 -98v-722c0 -53 -1 -70 -16 -98c-16 -29 -49 -49 -92 -49s-76 20 -92 49c-15 28 -16 45 -16 98v722zM237 124c0 72 58 130 130 130s130 -58 130 -130s-58 -130 -130 -130s-130 58 -130 130z
" />
    <glyph glyph-name="quotedbl" unicode="&#x22;" horiz-adv-x="855" 
d="M237 1436c38 0 70 -18 86 -45c12 -22 16 -41 16 -93v-211c0 -52 -4 -71 -16 -93c-16 -28 -48 -45 -86 -45s-70 17 -86 45c-12 22 -16 41 -16 93v211c0 52 4 71 16 93c16 27 48 45 86 45zM618 1436c38 0 70 -18 86 -45c12 -22 16 -41 16 -93v-211c0 -52 -4 -71 -16 -93
c-16 -28 -48 -45 -86 -45s-70 17 -86 45c-12 22 -16 41 -16 93v211c0 52 4 71 16 93c16 27 48 45 86 45z" />
    <glyph glyph-name="numbersign" unicode="#" horiz-adv-x="1398" 
d="M1102 413h-133l-62 -310c-9 -45 -16 -67 -37 -88c-17 -17 -39 -23 -63 -23c-25 0 -52 9 -71 27c-33 32 -29 72 -19 122l54 272h-270l-62 -310c-9 -45 -16 -67 -37 -88c-17 -17 -39 -23 -63 -23c-25 0 -52 9 -71 27c-33 32 -29 72 -19 122l54 272h-74c-44 0 -63 3 -83 14
c-25 15 -42 43 -42 78s17 63 42 78c20 12 39 14 83 14h111l52 261h-96c-44 0 -63 3 -83 14c-25 15 -42 43 -42 78s17 63 42 78c20 12 39 14 83 14h133l58 287c9 45 16 67 37 88c17 17 39 23 63 23c25 0 52 -9 71 -27c33 -32 29 -72 19 -122l-50 -249h270l58 287
c9 45 16 67 37 88c17 17 39 23 63 23c25 0 52 -9 71 -27c33 -32 29 -72 19 -122l-50 -249h74c44 0 63 -2 83 -14c25 -15 42 -43 42 -78s-17 -63 -42 -78c-20 -11 -39 -14 -83 -14h-111l-52 -261h96c44 0 63 -2 83 -14c25 -15 42 -43 42 -78s-17 -63 -42 -78
c-20 -11 -39 -14 -83 -14zM590 858l-52 -261h270l52 261h-270z" />
    <glyph glyph-name="dollar" unicode="$" horiz-adv-x="1182" 
d="M216 747c-71 65 -105 157 -105 273c0 218 138 374 373 409v67c0 44 3 63 14 83c15 25 43 42 78 42s63 -17 78 -42c12 -20 14 -39 14 -83v-63c91 -8 161 -33 254 -81c50 -26 87 -63 87 -109c0 -23 -8 -46 -25 -66c-16 -19 -37 -31 -66 -31c-23 0 -58 13 -87 31
c-59 36 -110 55 -169 64v-432l37 -5c130 -20 202 -50 264 -106c76 -70 116 -168 116 -292c0 -232 -166 -381 -411 -412v-106c0 -44 -2 -63 -14 -83c-15 -25 -43 -42 -78 -42s-63 17 -78 42c-11 20 -14 39 -14 83v103c-125 9 -213 41 -300 93c-74 44 -101 74 -101 126
c0 24 11 52 30 71c18 18 40 26 63 26c28 0 53 -9 92 -36c73 -51 140 -78 222 -87v447l-5 1c-115 17 -202 53 -269 115zM865 400c0 64 -16 114 -56 148c-33 29 -76 46 -147 58v-419c130 22 203 97 203 213zM321 1026c0 -52 15 -99 52 -132c30 -26 63 -44 117 -56v399
c-111 -27 -169 -106 -169 -211z" />
    <glyph glyph-name="percent" unicode="%" horiz-adv-x="1681" 
d="M1237 1365c1 -18 -3 -33 -19 -65l-622 -1242c-16 -32 -26 -45 -40 -54c-11 -7 -23 -12 -36 -12c-12 0 -23 3 -35 9c-24 12 -39 32 -40 58c-1 18 3 33 19 65l622 1242c16 32 26 45 40 54c11 7 23 12 36 12c12 0 23 -3 35 -9c24 -12 39 -32 40 -58zM524 966v192
c0 92 -40 142 -128 142s-128 -50 -128 -142v-192c0 -92 40 -142 128 -142s128 50 128 142zM677 1163v-203c0 -174 -124 -271 -281 -271c-156 0 -281 97 -281 271v203c0 174 125 273 281 273c157 0 281 -99 281 -273zM1413 265v192c0 92 -40 142 -128 142s-128 -50 -128 -142
v-192c0 -92 40 -142 128 -142s128 50 128 142zM1566 462v-203c0 -174 -124 -271 -281 -271c-156 0 -281 97 -281 271v203c0 174 125 273 281 273c157 0 281 -99 281 -273z" />
    <glyph glyph-name="ampersand" unicode="&#x26;" horiz-adv-x="1428" 
d="M1262 95c0 -29 -14 -57 -39 -78c-19 -16 -42 -25 -67 -25c-40 0 -64 23 -99 65l-68 81c-62 -53 -178 -150 -392 -150c-296 0 -460 166 -460 424c0 198 142 310 282 402c-64 74 -148 174 -148 306c0 182 136 316 348 316c202 0 338 -136 338 -318
c0 -112 -62 -190 -152 -252l-104 -72l300 -358c43 60 65 127 73 224c3 31 10 53 19 69c14 24 40 43 78 43c37 0 67 -18 82 -44c10 -17 15 -37 15 -72c0 -42 -18 -143 -41 -207c-21 -57 -52 -113 -95 -163l82 -98c35 -42 48 -63 48 -93zM869 284l-338 402
c-103 -72 -190 -138 -190 -270c0 -143 109 -244 256 -244c96 0 178 26 272 112zM761 1116c0 80 -58 142 -142 142c-88 0 -140 -60 -140 -140c0 -58 38 -112 110 -196l68 46c56 38 104 82 104 148z" />
    <glyph glyph-name="quotesingle" unicode="'" horiz-adv-x="474" 
d="M237 1436c38 0 70 -18 86 -45c12 -22 16 -41 16 -93v-211c0 -52 -4 -71 -16 -93c-16 -28 -48 -45 -86 -45s-70 17 -86 45c-12 22 -16 41 -16 93v211c0 52 4 71 16 93c16 27 48 45 86 45z" />
    <glyph glyph-name="parenleft" unicode="(" horiz-adv-x="635" 
d="M379 247c0 -71 9 -116 31 -159c16 -32 45 -68 62 -84c39 -35 56 -62 56 -101c0 -22 -9 -47 -28 -66c-20 -21 -48 -30 -73 -30c-33 0 -60 15 -100 55c-45 46 -83 91 -112 150c-33 67 -40 133 -40 223v955c0 90 7 156 40 223c29 59 67 104 112 150c40 40 67 55 100 55
c25 0 53 -9 73 -30c19 -19 28 -44 28 -66c0 -39 -17 -66 -56 -101c-17 -16 -46 -52 -62 -84c-22 -43 -31 -88 -31 -159v-931z" />
    <glyph glyph-name="parenright" unicode=")" horiz-adv-x="635" 
d="M256 247v931c0 71 -9 116 -31 159c-16 32 -45 68 -62 84c-39 35 -56 62 -56 101c0 22 9 47 28 66c20 21 48 30 73 30c33 0 60 -15 100 -55c45 -46 83 -91 112 -150c33 -67 40 -133 40 -223v-955c0 -90 -7 -156 -40 -223c-29 -59 -67 -104 -112 -150
c-40 -40 -67 -55 -100 -55c-25 0 -53 9 -73 30c-19 19 -28 44 -28 66c0 39 17 66 56 101c17 16 46 52 62 84c22 43 31 88 31 159z" />
    <glyph glyph-name="asterisk" unicode="*" horiz-adv-x="954" 
d="M271 1263l133 -80v155c0 35 2 50 11 66c13 22 34 34 62 34s49 -12 62 -34c9 -16 11 -31 11 -66v-155l133 80c30 18 46 23 64 24c25 1 46 -11 61 -35c14 -24 14 -48 2 -70c-9 -15 -22 -26 -52 -44l-140 -84l140 -84c30 -18 43 -29 52 -44c12 -22 12 -46 -2 -70
c-15 -24 -36 -36 -61 -35c-18 1 -34 6 -64 24l-133 80v-155c0 -35 -2 -50 -11 -66c-13 -22 -34 -34 -62 -34s-49 12 -62 34c-9 16 -11 31 -11 66v155l-133 -80c-30 -18 -46 -23 -64 -24c-25 -1 -46 11 -61 35c-14 24 -14 48 -2 70c9 15 22 26 52 44l140 84l-140 84
c-30 18 -43 29 -52 44c-12 22 -12 46 2 70c15 24 36 36 61 35c18 -1 34 -6 64 -24z" />
    <glyph glyph-name="plus" unicode="+" horiz-adv-x="1066" 
d="M441 241v222h-222c-44 0 -63 3 -83 14c-25 15 -42 43 -42 78s17 63 42 78c20 12 39 14 83 14h222v222c0 44 3 63 14 83c15 25 43 42 78 42s63 -17 78 -42c12 -20 14 -39 14 -83v-222h222c44 0 63 -2 83 -14c25 -15 42 -43 42 -78s-17 -63 -42 -78
c-20 -11 -39 -14 -83 -14h-222v-222c0 -44 -2 -63 -14 -83c-15 -25 -43 -42 -78 -42s-63 17 -78 42c-11 20 -14 39 -14 83z" />
    <glyph glyph-name="comma" unicode="," horiz-adv-x="518" 
d="M367 115l-88 -264c-15 -45 -25 -65 -44 -82c-17 -15 -34 -23 -61 -23c-39 0 -95 23 -104 79c-4 25 -1 45 14 91l88 264c15 45 25 65 44 82c17 15 34 23 61 23c39 0 95 -23 104 -79c4 -25 1 -45 -14 -91z" />
    <glyph glyph-name="hyphen" unicode="-" horiz-adv-x="854" 
d="M602 463h-350c-44 0 -63 3 -83 14c-25 15 -42 43 -42 78s17 63 42 78c20 12 39 14 83 14h350c44 0 63 -2 83 -14c25 -15 42 -43 42 -78s-17 -63 -42 -78c-20 -11 -39 -14 -83 -14z" />
    <glyph glyph-name="period" unicode="." horiz-adv-x="558" 
d="M425 140c0 -80 -66 -146 -146 -146s-146 66 -146 146s66 144 146 144s146 -64 146 -144z" />
    <glyph glyph-name="slash" unicode="/" horiz-adv-x="761" 
d="M719 1421l-494 -1479c-18 -54 -37 -98 -99 -98c-46 0 -85 30 -95 61s-1 62 11 98l494 1479c18 54 37 98 99 98c46 0 85 -30 95 -61s1 -62 -11 -98z" />
    <glyph glyph-name="zero" unicode="0" horiz-adv-x="1066" 
d="M944 396c0 -254 -184 -408 -412 -408c-226 0 -410 154 -410 408v632c0 254 184 408 410 408c228 0 412 -154 412 -408v-632zM740 404v616c0 136 -78 232 -208 232c-128 0 -206 -96 -206 -232v-616c0 -136 78 -232 206 -232c130 0 208 96 208 232z" />
    <glyph glyph-name="one" unicode="1" horiz-adv-x="1066" 
d="M231 1116l261 261c31 31 65 55 112 55c32 0 58 -11 77 -30c27 -28 30 -65 30 -107v-1164c0 -49 -3 -67 -15 -91c-14 -27 -43 -48 -87 -48s-73 21 -87 48c-12 24 -15 42 -15 91v991l-141 -141c-34 -34 -49 -45 -71 -51c-30 -8 -63 1 -89 27s-34 57 -26 87
c6 22 17 38 51 72z" />
    <glyph glyph-name="two" unicode="2" horiz-adv-x="1066" 
d="M385 184h452c44 0 63 -2 83 -14c26 -14 42 -43 42 -78s-16 -64 -42 -78c-20 -11 -39 -14 -83 -14h-576c-50 0 -88 1 -117 30c-16 17 -27 42 -27 71c0 43 19 69 57 117l476 596c62 78 97 144 97 238c0 116 -73 200 -206 200c-101 0 -173 -43 -213 -163
c-11 -32 -22 -53 -40 -70c-12 -12 -34 -21 -62 -21c-32 0 -56 10 -73 32c-17 21 -24 45 -24 73c0 67 39 165 114 232c74 65 166 101 294 101c250 0 415 -138 415 -380c0 -146 -54 -230 -144 -342z" />
    <glyph glyph-name="three" unicode="3" horiz-adv-x="1066" 
d="M522 1436c237 0 418 -144 418 -391c0 -157 -72 -255 -184 -309c121 -49 200 -158 200 -333c0 -274 -200 -415 -437 -415c-143 0 -263 47 -340 134c-41 47 -78 117 -78 185c0 34 13 60 32 79c20 20 48 31 76 31c25 0 47 -10 61 -28c18 -22 23 -62 48 -111
c35 -71 100 -106 202 -106c132 0 232 84 232 235c0 145 -81 230 -230 233c-26 1 -47 4 -64 14c-27 15 -41 41 -41 75s14 60 41 75c17 10 38 14 64 14c136 3 213 83 213 218c0 138 -90 216 -213 216c-108 0 -167 -42 -201 -144c-13 -39 -23 -54 -41 -70
c-15 -12 -32 -19 -55 -19c-28 0 -53 10 -73 28c-19 17 -32 44 -32 78c0 64 35 129 75 174c81 93 186 137 327 137z" />
    <glyph glyph-name="four" unicode="4" horiz-adv-x="1066" 
d="M609 131v88h-422c-49 0 -79 5 -105 26c-23 17 -36 46 -36 76c0 24 10 51 27 85l469 940c21 42 33 57 52 71c14 10 30 15 48 15c48 0 96 -39 96 -90c0 -23 -6 -41 -26 -81l-424 -850h321v208c0 49 3 67 15 91c14 27 43 48 87 48s73 -21 87 -48c12 -24 15 -42 15 -91v-208
h68c46 0 66 -2 88 -14c26 -15 44 -44 44 -82s-18 -67 -44 -82c-22 -12 -42 -14 -88 -14h-68v-88c0 -49 -3 -67 -15 -91c-14 -27 -43 -48 -87 -48s-73 21 -87 48c-12 24 -15 42 -15 91z" />
    <glyph glyph-name="five" unicode="5" horiz-adv-x="1066" 
d="M535 -12c-127 0 -220 28 -299 99c-58 53 -103 133 -103 215c0 34 10 59 28 78c17 19 43 29 72 29c30 0 49 -7 64 -21c18 -17 28 -34 46 -89c25 -78 84 -127 192 -127c64 0 116 18 153 55c60 60 67 153 67 249c0 167 -42 299 -209 299c-86 0 -139 -22 -190 -85
c-13 -16 -25 -26 -41 -36c-15 -10 -33 -14 -57 -14c-26 0 -50 6 -71 27c-21 20 -29 52 -29 88v553c0 25 0 63 27 90c26 26 58 26 88 26h536c44 0 63 -2 83 -14c25 -15 42 -43 42 -78s-17 -63 -42 -78c-20 -11 -39 -14 -83 -14h-466v-373c50 50 127 83 236 83
c112 0 199 -35 256 -92c107 -107 124 -248 124 -382c0 -152 -17 -273 -121 -377c-64 -64 -161 -111 -303 -111z" />
    <glyph glyph-name="six" unicode="6" horiz-adv-x="1066" 
d="M680 1261l-225 -449c38 16 82 22 126 22c206 0 374 -162 374 -412c0 -262 -174 -434 -420 -434s-422 162 -422 426c0 111 41 220 100 338l297 594c21 42 33 57 52 71c14 10 30 15 48 15c48 0 96 -39 96 -90c0 -23 -6 -41 -26 -81zM751 418c0 140 -82 246 -218 246
c-128 0 -216 -92 -216 -246c0 -152 88 -246 216 -246s218 94 218 246z" />
    <glyph glyph-name="seven" unicode="7" horiz-adv-x="1066" 
d="M964 1232l-429 -1144c-16 -43 -26 -62 -43 -77c-15 -13 -33 -19 -54 -19c-45 0 -94 31 -100 76c-3 24 1 44 17 87l407 1085h-434v-91c0 -49 -3 -67 -15 -91c-14 -27 -43 -48 -87 -48s-73 21 -87 48c-12 24 -15 42 -15 91v150c0 31 0 67 29 96s65 29 96 29h593
c58 0 87 -4 115 -29c22 -20 30 -44 30 -74c0 -22 -7 -47 -23 -89z" />
    <glyph glyph-name="eight" unicode="8" horiz-adv-x="1066" 
d="M972 402c0 -258 -196 -414 -440 -414s-438 156 -438 414c0 170 96 274 196 334c-92 56 -172 156 -172 306c0 238 182 394 414 394s416 -156 416 -394c0 -150 -80 -250 -172 -306c100 -60 196 -164 196 -334zM533 821c121 0 212 89 212 215c0 123 -89 216 -212 216
s-212 -92 -212 -216c0 -123 89 -215 212 -215zM767 408c0 133 -103 235 -234 235s-235 -102 -235 -235c0 -134 104 -236 235 -236s234 102 234 236z" />
    <glyph glyph-name="nine" unicode="9" horiz-adv-x="1066" 
d="M386 163l225 449c-38 -16 -82 -22 -126 -22c-206 0 -374 162 -374 412c0 262 174 434 420 434s422 -162 422 -426c0 -111 -41 -220 -100 -338l-297 -594c-21 -42 -33 -57 -52 -71c-14 -10 -30 -15 -48 -15c-48 0 -96 39 -96 90c0 23 6 41 26 81zM315 1006
c0 -140 82 -246 218 -246c128 0 216 92 216 246c0 152 -88 246 -216 246s-218 -94 -218 -246z" />
    <glyph glyph-name="colon" unicode=":" horiz-adv-x="608" 
d="M476 140c0 -80 -66 -146 -146 -146s-146 66 -146 146s66 144 146 144s146 -64 146 -144zM476 695c0 -80 -66 -146 -146 -146s-146 66 -146 146s66 144 146 144s146 -64 146 -144z" />
    <glyph glyph-name="semicolon" unicode=";" horiz-adv-x="608" 
d="M444 115l-88 -264c-15 -45 -25 -65 -44 -82c-17 -15 -34 -23 -61 -23c-39 0 -95 23 -104 79c-4 25 -1 45 14 91l88 264c15 45 25 65 44 82c17 15 34 23 61 23c39 0 95 -23 104 -79c4 -25 1 -45 -14 -91zM504 694c0 -80 -66 -146 -146 -146s-146 66 -146 146
s66 144 146 144s146 -64 146 -144z" />
    <glyph glyph-name="less" unicode="&#x3c;" horiz-adv-x="1066" 
d="M151 555c0 71 51 98 107 126l469 234c40 20 58 26 81 26c51 0 90 -48 90 -96c0 -18 -5 -34 -15 -48c-14 -19 -29 -31 -71 -52l-380 -190l380 -190c42 -21 57 -33 71 -52c10 -14 15 -30 15 -48c0 -48 -39 -96 -90 -96c-23 0 -41 6 -81 26l-469 234
c-56 28 -107 55 -107 126z" />
    <glyph glyph-name="equal" unicode="=" horiz-adv-x="1066" 
d="M847 660h-628c-44 0 -63 3 -83 14c-25 15 -42 43 -42 78s17 63 42 78c20 12 39 14 83 14h628c44 0 63 -2 83 -14c25 -15 42 -43 42 -78s-17 -63 -42 -78c-20 -11 -39 -14 -83 -14zM847 265h-628c-44 0 -63 3 -83 14c-25 15 -42 43 -42 78s17 63 42 78c20 12 39 14 83 14
h628c44 0 63 -2 83 -14c25 -15 42 -43 42 -78s-17 -63 -42 -78c-20 -11 -39 -14 -83 -14z" />
    <glyph glyph-name="greater" unicode="&#x3e;" horiz-adv-x="1066" 
d="M915 555c0 -71 -51 -98 -107 -126l-469 -234c-40 -20 -58 -26 -81 -26c-51 0 -90 48 -90 96c0 18 5 34 15 48c14 19 29 31 71 52l380 190l-380 190c-42 21 -57 33 -71 52c-10 14 -15 30 -15 48c0 48 39 96 90 96c23 0 41 -6 81 -26l469 -234c56 -28 107 -55 107 -126z
" />
    <glyph glyph-name="question" unicode="?" horiz-adv-x="1021" 
d="M422 124c0 72 58 130 130 130s130 -58 130 -130s-58 -130 -130 -130s-130 58 -130 130zM940 1060c0 -105 -37 -170 -94 -248l-137 -189c-34 -47 -43 -80 -50 -129c-4 -27 -14 -50 -29 -67c-18 -20 -44 -31 -77 -31s-59 13 -77 33c-17 19 -26 44 -26 77
c0 72 13 115 68 189l156 210c35 47 61 92 61 155c0 109 -79 193 -193 193c-55 0 -104 -16 -143 -55c-31 -31 -45 -68 -58 -118c-6 -23 -17 -49 -28 -61c-16 -18 -41 -30 -74 -30c-27 0 -52 11 -69 30c-19 21 -24 44 -24 75c0 71 37 166 108 234c72 68 170 108 287 108
c222 0 399 -147 399 -376z" />
    <glyph glyph-name="at" unicode="@" horiz-adv-x="1473" 
d="M1147 468c0 172 -36 310 -204 310s-202 -138 -202 -310s34 -308 202 -308s204 136 204 308zM1144 96c-75 -84 -152 -108 -252 -108c-99 0 -183 32 -237 86c-94 94 -112 231 -112 394c0 164 18 301 112 395c54 54 137 86 236 86c102 0 184 -26 255 -112l1 117
c0 96 -14 157 -73 216c-57 57 -123 75 -210 75h-255c-87 0 -153 -18 -210 -75c-59 -59 -73 -120 -73 -216v-618c0 -103 17 -133 63 -183c28 -32 38 -50 38 -78c0 -27 -11 -53 -34 -74c-21 -18 -44 -26 -68 -26c-41 0 -65 24 -98 61c-66 73 -99 140 -99 291v635
c0 149 34 265 118 350s196 117 343 117h296c142 0 257 -31 342 -117c84 -85 118 -200 118 -350v-831c0 -49 -3 -67 -15 -91c-14 -27 -43 -48 -87 -48c-31 0 -56 11 -72 27c-13 13 -25 31 -27 77z" />
    <glyph glyph-name="A" unicode="A" horiz-adv-x="1246" 
d="M851 470l-228 623l-228 -623h456zM918 286h-590l-71 -191c-18 -48 -27 -66 -47 -82c-16 -13 -36 -21 -59 -21c-30 0 -60 12 -79 32c-41 42 -28 87 -7 143l436 1161c15 41 26 58 43 74c21 20 45 30 79 30s58 -10 79 -30c17 -16 28 -33 43 -74l436 -1161
c21 -56 34 -101 -7 -143c-19 -20 -49 -32 -79 -32c-23 0 -43 8 -59 21c-20 16 -29 34 -47 82z" />
    <glyph glyph-name="B" unicode="B" horiz-adv-x="1326" 
d="M761 0h-444c-32 0 -70 0 -101 31s-31 69 -31 101v1160c0 32 0 70 31 101s69 31 101 31h422c264 0 430 -150 430 -390c0 -154 -96 -264 -192 -302c110 -44 214 -150 214 -330c0 -262 -178 -402 -430 -402zM741 629h-340v-437h340c150 0 234 93 234 220
c0 126 -84 217 -234 217zM401 821h320c138 0 232 73 232 205c0 133 -94 206 -232 206h-320v-411z" />
    <glyph glyph-name="C" unicode="C" horiz-adv-x="1253" 
d="M135 712c0 299 5 441 143 579c92 92 212 145 367 145c179 0 286 -54 373 -147c80 -86 109 -178 109 -229c0 -37 -9 -61 -29 -81c-21 -20 -45 -30 -75 -30c-27 0 -49 9 -64 21c-23 18 -37 44 -53 81c-52 122 -131 193 -265 193c-84 0 -153 -33 -205 -89
c-75 -81 -85 -172 -85 -443s10 -362 85 -443c52 -56 121 -89 205 -89c134 0 213 71 265 193c16 37 30 63 53 81c15 12 37 21 64 21c30 0 54 -10 75 -30c20 -20 29 -44 29 -81c0 -51 -29 -143 -109 -229c-87 -93 -194 -147 -373 -147c-155 0 -275 53 -367 145
c-138 138 -143 280 -143 579z" />
    <glyph glyph-name="D" unicode="D" horiz-adv-x="1332" 
d="M216 1393c31 31 69 31 101 31h369c179 0 310 -60 406 -181c100 -128 105 -278 105 -531s-7 -405 -107 -533c-95 -122 -225 -179 -404 -179h-369c-32 0 -70 0 -101 31s-31 69 -31 101v1160c0 32 0 70 31 101zM401 1232v-1040h260c103 0 185 28 245 97c71 80 75 212 75 423
s-4 343 -75 423c-60 69 -142 97 -245 97h-260z" />
    <glyph glyph-name="E" unicode="E" horiz-adv-x="1203" 
d="M401 1232v-418h470c46 0 66 -2 88 -14c26 -15 44 -44 44 -82s-18 -67 -44 -82c-22 -12 -42 -14 -88 -14h-470v-430h572c46 0 66 -2 88 -14c26 -15 44 -44 44 -82s-18 -67 -44 -82c-22 -12 -42 -14 -88 -14h-656c-32 0 -70 0 -101 31s-31 69 -31 101v1160
c0 32 0 70 31 101s69 31 101 31h656c46 0 66 -2 88 -14c26 -15 44 -44 44 -82s-18 -67 -44 -82c-22 -12 -42 -14 -88 -14h-572z" />
    <glyph glyph-name="F" unicode="F" horiz-adv-x="1168" 
d="M401 1232v-437h470c46 0 66 -2 88 -14c26 -15 44 -44 44 -82s-18 -67 -44 -82c-22 -12 -42 -14 -88 -14h-470v-464c0 -53 -1 -70 -16 -98c-16 -29 -49 -49 -92 -49s-76 20 -92 49c-15 28 -16 45 -16 98v1153c0 32 0 70 31 101s69 31 101 31h656c46 0 66 -2 88 -14
c26 -15 44 -44 44 -82s-18 -67 -44 -82c-22 -12 -42 -14 -88 -14h-572z" />
    <glyph glyph-name="G" unicode="G" horiz-adv-x="1282" 
d="M351 712c0 -282 13 -368 84 -443c52 -56 125 -89 212 -89c84 0 156 31 211 86c66 68 81 145 81 295h-180c-46 0 -66 2 -88 14c-26 15 -44 44 -44 82s18 67 44 82c22 12 42 14 88 14h256c32 0 70 0 101 -31s31 -69 31 -101v-21c0 -232 -24 -354 -135 -465
c-99 -99 -214 -147 -365 -147c-157 0 -277 53 -369 145c-138 138 -143 280 -143 579s5 441 143 579c92 92 212 145 367 145c179 0 286 -54 373 -147c80 -86 109 -178 109 -229c0 -37 -9 -61 -29 -81c-21 -20 -45 -30 -75 -30c-27 0 -49 9 -64 21c-23 18 -37 44 -53 81
c-52 122 -131 193 -265 193c-84 0 -153 -33 -205 -89c-75 -81 -85 -172 -85 -443z" />
    <glyph glyph-name="H" unicode="H" horiz-adv-x="1380" 
d="M401 815h578v470c0 53 1 70 16 98c16 29 49 49 92 49s76 -20 92 -49c15 -28 16 -45 16 -98v-1146c0 -53 -1 -70 -16 -98c-16 -29 -49 -49 -92 -49s-76 20 -92 49c-15 28 -16 45 -16 98v484h-578v-484c0 -53 -1 -70 -16 -98c-16 -29 -49 -49 -92 -49s-76 20 -92 49
c-15 28 -16 45 -16 98v1146c0 53 1 70 16 98c16 29 49 49 92 49s76 -20 92 -49c15 -28 16 -45 16 -98v-470z" />
    <glyph glyph-name="I" unicode="I" horiz-adv-x="586" 
d="M401 139c0 -53 -1 -70 -16 -98c-16 -29 -49 -49 -92 -49s-76 20 -92 49c-15 28 -16 45 -16 98v1146c0 53 1 70 16 98c16 29 49 49 92 49s76 -20 92 -49c15 -28 16 -45 16 -98v-1146z" />
    <glyph glyph-name="J" unicode="J" horiz-adv-x="1012" 
d="M375 -12c-108 0 -195 24 -274 81c-34 25 -51 53 -51 89c0 27 11 52 29 70c18 17 39 25 61 25c28 0 53 -11 82 -29c48 -30 93 -44 153 -44c162 0 258 99 258 288v817c0 53 1 70 16 98c16 29 49 49 92 49s76 -20 92 -49c15 -28 16 -45 16 -98v-835
c0 -294 -212 -462 -474 -462z" />
    <glyph glyph-name="K" unicode="K" horiz-adv-x="1294" 
d="M401 139c0 -53 -1 -70 -16 -98c-16 -29 -49 -49 -92 -49s-76 20 -92 49c-15 28 -16 45 -16 98v1146c0 53 1 70 16 98c16 29 49 49 92 49s76 -20 92 -49c15 -28 16 -45 16 -98v-572l539 654c35 42 59 65 99 65c25 0 48 -9 67 -25c25 -21 39 -49 39 -78
c0 -30 -13 -51 -48 -93l-303 -366l390 -685c25 -44 33 -62 34 -89c1 -35 -16 -67 -53 -89c-18 -11 -39 -15 -58 -15c-54 0 -79 38 -107 88l-356 627l-243 -292v-276z" />
    <glyph glyph-name="L" unicode="L" horiz-adv-x="1145" 
d="M317 0c-32 0 -70 0 -101 31s-31 69 -31 101v1153c0 53 1 70 16 98c16 29 49 49 92 49s76 -20 92 -49c15 -28 16 -45 16 -98v-1093h562c46 0 66 -2 88 -14c26 -15 44 -44 44 -82s-18 -67 -44 -82c-22 -12 -42 -14 -88 -14h-646z" />
    <glyph glyph-name="M" unicode="M" horiz-adv-x="1626" 
d="M1225 952l-301 -630c-24 -51 -54 -80 -110 -80s-86 29 -111 80l-302 630v-813c0 -53 -1 -70 -16 -98c-16 -29 -49 -49 -92 -49s-76 20 -92 49c-15 28 -16 45 -16 98v1160c0 35 5 73 32 101c23 23 52 32 79 32c25 0 47 -6 61 -14c17 -10 39 -37 53 -65l404 -824l402 824
c14 28 36 55 53 65c14 8 36 14 61 14c27 0 56 -9 79 -32c27 -28 32 -66 32 -101v-1160c0 -53 -1 -70 -16 -98c-16 -29 -49 -49 -92 -49s-76 20 -92 49c-15 28 -16 45 -16 98v813z" />
    <glyph glyph-name="N" unicode="N" horiz-adv-x="1443" 
d="M401 1000v-861c0 -53 -1 -70 -16 -98c-16 -29 -49 -49 -92 -49s-76 20 -92 49c-15 28 -16 45 -16 98v1155c0 47 7 80 31 104c22 22 49 34 82 34c51 0 83 -31 126 -95l618 -913v861c0 53 1 70 16 98c16 29 49 49 92 49s76 -20 92 -49c15 -28 16 -45 16 -98v-1156
c0 -47 -7 -79 -31 -103c-22 -22 -49 -34 -82 -34c-51 0 -83 31 -126 95z" />
    <glyph glyph-name="O" unicode="O" horiz-adv-x="1294" 
d="M278 133c-138 138 -143 280 -143 579s5 441 143 579c92 92 212 145 369 145c156 0 276 -53 368 -145c138 -138 144 -280 144 -579s-6 -441 -144 -579c-92 -92 -212 -145 -368 -145c-157 0 -277 53 -369 145zM435 270c52 -56 125 -90 212 -90c86 0 159 34 212 90
c70 75 84 160 84 442s-14 368 -84 443c-53 56 -126 89 -212 89c-87 0 -160 -33 -212 -89c-71 -75 -84 -161 -84 -443s13 -367 84 -442z" />
    <glyph glyph-name="P" unicode="P" horiz-adv-x="1257" 
d="M201 41c-15 28 -16 45 -16 98v1153c0 32 0 70 31 101s69 31 101 31h408c278 0 456 -184 456 -432s-178 -430 -456 -430h-324v-423c0 -53 -1 -70 -16 -98c-16 -29 -49 -49 -92 -49s-76 20 -92 49zM401 1232v-478h312c152 0 252 88 252 238c0 153 -100 240 -252 240h-312z
" />
    <glyph glyph-name="Q" unicode="Q" horiz-adv-x="1294" 
d="M278 133c-138 138 -143 280 -143 579s5 441 143 579c92 92 212 145 369 145c156 0 276 -53 368 -145c138 -138 144 -280 144 -579c0 -256 -4 -397 -92 -519l72 -72c30 -30 39 -42 45 -63c7 -26 -1 -55 -24 -78s-52 -31 -78 -24c-21 6 -33 15 -63 45l-74 74
c-81 -56 -179 -87 -298 -87c-157 0 -277 53 -369 145zM697 324c-31 30 -40 42 -46 63c-7 26 1 55 24 78s52 31 78 24c21 -6 33 -15 63 -45l85 -85c37 73 42 171 42 353c0 282 -14 368 -84 443c-53 56 -126 89 -212 89c-87 0 -160 -33 -212 -89c-71 -75 -84 -161 -84 -443
s13 -367 84 -442c52 -56 125 -90 212 -90c54 0 104 15 146 47z" />
    <glyph glyph-name="R" unicode="R" horiz-adv-x="1313" 
d="M201 41c-15 28 -16 45 -16 98v1153c0 32 0 70 31 101s69 31 101 31h420c270 0 442 -174 442 -416c0 -203 -123 -333 -282 -378l255 -445c25 -44 33 -62 34 -89c1 -35 -16 -67 -53 -89c-18 -11 -39 -15 -58 -15c-54 0 -79 38 -107 88l-297 520h-270v-461
c0 -53 -1 -70 -16 -98c-16 -29 -49 -49 -92 -49s-76 20 -92 49zM721 1232h-320v-448h320c144 0 242 82 242 222c0 141 -98 226 -242 226z" />
    <glyph glyph-name="S" unicode="S" horiz-adv-x="1182" 
d="M571 180c188 0 294 80 294 220c0 64 -16 114 -56 148c-36 32 -84 50 -155 60l-169 24c-115 17 -202 53 -269 115c-71 65 -105 157 -105 273c0 248 180 416 476 416c135 0 217 -22 335 -84c50 -26 87 -63 87 -109c0 -23 -8 -46 -25 -66c-16 -19 -37 -31 -66 -31
c-23 0 -58 13 -87 31c-85 52 -152 70 -252 70c-168 0 -258 -91 -258 -221c0 -52 14 -100 52 -132c36 -32 78 -52 156 -64l170 -26c130 -20 202 -50 264 -106c76 -70 116 -168 116 -292c0 -262 -212 -418 -512 -418c-171 0 -278 33 -383 96c-74 44 -101 74 -101 126
c0 24 11 52 30 71c18 18 40 26 63 26c28 0 53 -9 92 -36c96 -66 180 -91 303 -91z" />
    <glyph glyph-name="T" unicode="T" horiz-adv-x="1116" 
d="M1066 1328c0 -38 -18 -67 -44 -82c-22 -12 -42 -14 -88 -14h-268v-1093c0 -53 -1 -70 -16 -98c-16 -29 -49 -49 -92 -49s-76 20 -92 49c-15 28 -16 45 -16 98v1093h-268c-46 0 -66 2 -88 14c-26 15 -44 44 -44 82s18 67 44 82c22 12 42 14 88 14h752c46 0 66 -2 88 -14
c26 -15 44 -44 44 -82z" />
    <glyph glyph-name="U" unicode="U" horiz-adv-x="1346" 
d="M673 -12c-290 0 -510 198 -510 492v805c0 53 1 70 16 98c16 29 49 49 92 49s76 -20 92 -49c15 -28 16 -45 16 -98v-795c0 -191 116 -310 294 -310s294 119 294 310v795c0 53 1 70 16 98c16 29 49 49 92 49s76 -20 92 -49c15 -28 16 -45 16 -98v-805
c0 -294 -220 -492 -510 -492z" />
    <glyph glyph-name="V" unicode="V" horiz-adv-x="1112" 
d="M1060 1262l-386 -1160c-14 -42 -27 -67 -44 -82c-22 -21 -44 -28 -74 -28s-52 7 -74 28c-17 15 -30 40 -44 82l-386 1160c-15 46 -18 66 -14 91c9 56 65 79 104 79c27 0 44 -8 61 -23c19 -17 29 -37 44 -82l309 -950l309 950c15 45 25 65 44 82c17 15 34 23 61 23
c39 0 95 -23 104 -79c4 -25 1 -45 -14 -91z" />
    <glyph glyph-name="W" unicode="W" horiz-adv-x="1730" 
d="M865 1431c32 0 55 -8 74 -26c17 -17 27 -37 37 -72l260 -931l228 916c12 48 18 66 36 86c16 17 40 28 69 28c46 0 90 -30 100 -70c6 -24 3 -45 -9 -93l-288 -1156c-10 -39 -24 -72 -50 -94c-22 -18 -48 -27 -77 -27s-55 9 -77 27c-26 22 -39 55 -50 94l-253 902
l-253 -902c-11 -39 -24 -72 -50 -94c-22 -18 -48 -27 -77 -27s-55 9 -77 27c-26 22 -40 55 -50 94l-288 1156c-12 48 -15 69 -9 93c10 40 54 70 100 70c29 0 53 -11 69 -28c18 -20 24 -38 36 -86l228 -916l260 931c10 35 20 55 37 72c19 18 42 26 74 26z" />
    <glyph glyph-name="X" unicode="X" horiz-adv-x="1114" 
d="M209 1432c54 0 79 -38 107 -88l241 -431l241 431c28 50 53 88 107 88c19 0 40 -4 58 -15c37 -22 54 -54 53 -89c-1 -27 -9 -45 -34 -89l-292 -507l314 -547c25 -44 33 -62 34 -89c1 -35 -16 -67 -53 -89c-18 -11 -39 -15 -58 -15c-54 0 -79 38 -107 88l-263 467
l-263 -467c-28 -50 -53 -88 -107 -88c-19 0 -40 4 -58 15c-37 22 -54 54 -53 89c1 27 9 45 34 89l314 546l-292 508c-25 44 -33 62 -34 89c-1 35 16 67 53 89c18 11 39 15 58 15z" />
    <glyph glyph-name="Y" unicode="Y" horiz-adv-x="1046" 
d="M44 1340c1 31 20 62 56 80c16 8 35 12 51 12c18 0 34 -5 49 -15c21 -15 31 -31 53 -75l270 -541l270 541c22 44 32 60 53 75c15 10 31 15 49 15c16 0 35 -4 51 -12c36 -18 55 -49 56 -80c1 -26 -5 -45 -27 -89l-344 -684v-428c0 -53 -1 -70 -16 -98
c-16 -29 -49 -49 -92 -49s-76 20 -92 49c-15 28 -16 45 -16 98v428l-344 684c-22 44 -28 63 -27 89z" />
    <glyph glyph-name="Z" unicode="Z" horiz-adv-x="1115" 
d="M247 1424h628c46 0 86 -3 114 -32c22 -22 32 -49 32 -79c0 -29 -12 -57 -36 -96l-631 -1025h536c46 0 66 -2 88 -14c26 -15 44 -44 44 -82s-18 -67 -44 -82c-22 -12 -42 -14 -88 -14h-657c-46 0 -85 3 -114 32c-22 22 -32 49 -32 79c0 29 11 54 37 96l630 1025h-507
c-46 0 -66 2 -88 14c-26 15 -44 44 -44 82s18 67 44 82c22 12 42 14 88 14z" />
    <glyph glyph-name="bracketleft" unicode="[" horiz-adv-x="693" 
d="M172 1447c0 31 0 67 29 96s65 29 96 29h194c44 0 63 -2 83 -14c25 -15 42 -43 42 -78s-17 -63 -42 -78c-20 -11 -39 -14 -83 -14h-115v-1352h115c44 0 63 -2 83 -14c25 -15 42 -43 42 -78s-17 -63 -42 -78c-20 -11 -39 -14 -83 -14h-194c-31 0 -67 0 -96 29
s-29 65 -29 96v1470z" />
    <glyph glyph-name="backslash" unicode="\" horiz-adv-x="763" 
d="M537 -56l-494 1479c-12 36 -21 67 -11 98s49 61 95 61c62 0 81 -44 99 -98l494 -1479c12 -36 21 -67 11 -98s-49 -61 -95 -61c-62 0 -81 44 -99 98z" />
    <glyph glyph-name="bracketright" unicode="]" horiz-adv-x="693" 
d="M521 1447v-1470c0 -31 0 -67 -29 -96s-65 -29 -96 -29h-194c-44 0 -63 3 -83 14c-25 15 -42 43 -42 78s17 63 42 78c20 12 39 14 83 14h115v1352h-115c-44 0 -63 3 -83 14c-25 15 -42 43 -42 78s17 63 42 78c20 12 39 14 83 14h194c31 0 67 0 96 -29s29 -65 29 -96z" />
    <glyph glyph-name="asciicircum" unicode="^" horiz-adv-x="1059" 
d="M655 1325l234 -469c20 -40 26 -58 26 -81c0 -51 -48 -90 -96 -90c-18 0 -34 5 -48 15c-19 14 -31 29 -52 71l-190 380l-189 -380c-21 -42 -33 -57 -52 -71c-14 -10 -30 -15 -48 -15c-48 0 -96 39 -96 90c0 23 6 41 26 81l234 469c28 56 55 107 126 107
c70 0 97 -51 125 -107z" />
    <glyph glyph-name="underscore" unicode="_" horiz-adv-x="1143" 
d="M1002 -360h-861c-38 0 -53 2 -71 12c-23 13 -36 36 -36 66s13 53 36 66c18 10 33 12 71 12h861c38 0 53 -2 71 -12c23 -13 36 -36 36 -66s-13 -53 -36 -66c-18 -10 -33 -12 -71 -12z" />
    <glyph glyph-name="grave" unicode="`" horiz-adv-x="1076" 
d="M428 1250l-93 149c-22 36 -30 52 -31 74c-2 30 12 57 43 77c16 10 33 15 49 15c18 0 32 -5 47 -16s30 -33 44 -55l93 -149c22 -36 30 -52 31 -74c2 -30 -12 -57 -43 -77c-16 -10 -33 -15 -49 -15c-18 0 -32 5 -47 16s-30 33 -44 55z" />
    <glyph glyph-name="a" unicode="a" horiz-adv-x="1060" 
d="M83 298c0 170 121 294 351 294h269v63c0 133 -63 198 -212 198c-81 0 -135 -23 -194 -68c-26 -20 -55 -27 -74 -27c-21 0 -44 9 -59 27c-17 19 -24 36 -24 63c0 46 43 87 95 117c71 41 153 61 258 61c272 0 415 -119 415 -349v-546c0 -50 -2 -69 -15 -92
c-15 -28 -48 -47 -87 -47c-33 0 -58 12 -74 29c-12 14 -21 30 -23 73c-80 -78 -148 -105 -272 -105c-127 0 -212 29 -273 92c-52 53 -81 131 -81 217zM282 301c0 -92 62 -143 191 -143c73 0 133 8 185 58c32 30 45 76 45 151v80h-240c-120 0 -181 -52 -181 -146z" />
    <glyph glyph-name="b" unicode="b" horiz-adv-x="1105" 
d="M162 132v1161c0 49 3 67 15 91c14 27 43 48 87 48s73 -21 87 -48c12 -24 15 -42 15 -91v-381c74 88 158 114 266 114c102 0 190 -34 246 -90c98 -100 112 -262 112 -428c0 -168 -14 -330 -112 -430c-56 -56 -146 -90 -248 -90c-106 0 -190 27 -265 116
c-2 -42 -7 -57 -18 -72c-19 -27 -50 -40 -83 -40c-34 0 -67 16 -84 43c-14 23 -18 41 -18 97zM786 507c0 180 -26 335 -210 335c-185 0 -211 -155 -211 -335s26 -335 211 -335c184 0 210 155 210 335z" />
    <glyph glyph-name="c" unicode="c" horiz-adv-x="969" 
d="M110 507c0 380 220 519 450 519c91 0 154 -20 222 -64c53 -34 99 -70 99 -122c0 -25 -11 -48 -29 -67c-15 -15 -39 -26 -63 -26c-27 0 -47 11 -81 39c-51 41 -92 56 -148 56c-80 0 -141 -29 -185 -87s-61 -130 -61 -248c0 -117 17 -190 61 -247c44 -59 105 -88 185 -88
c56 0 97 17 148 57c34 27 54 39 81 39c24 0 48 -12 63 -27c18 -19 29 -41 29 -67c0 -51 -48 -89 -99 -122c-64 -41 -129 -64 -222 -64c-230 0 -450 139 -450 519z" />
    <glyph glyph-name="d" unicode="d" horiz-adv-x="1105" 
d="M943 1293v-1161c0 -56 -4 -74 -18 -97c-17 -27 -50 -43 -84 -43c-33 0 -64 13 -83 40c-11 15 -16 30 -18 72c-75 -89 -159 -116 -265 -116c-102 0 -192 34 -248 90c-98 100 -112 262 -112 430c0 166 14 328 112 428c56 56 144 90 246 90c108 0 192 -26 266 -114v381
c0 49 3 67 15 91c14 27 43 48 87 48s73 -21 87 -48c12 -24 15 -42 15 -91zM319 507c0 -180 26 -335 210 -335c185 0 211 155 211 335s-26 335 -211 335c-184 0 -210 -155 -210 -335z" />
    <glyph glyph-name="e" unicode="e" horiz-adv-x="1075" 
d="M110 507c0 334 171 519 430 519c265 0 423 -193 429 -461c1 -30 -3 -66 -28 -91c-26 -26 -60 -26 -90 -26h-539c0 -173 91 -286 260 -286c71 0 140 20 195 64c31 25 57 37 83 37c41 0 84 -40 84 -87s-52 -91 -102 -123c-64 -42 -156 -65 -265 -65
c-253 0 -457 133 -457 519zM768 590c-4 62 -8 94 -28 138c-34 76 -104 128 -200 128c-98 0 -168 -52 -202 -128c-20 -44 -24 -76 -26 -138h456z" />
    <glyph glyph-name="f" unicode="f" horiz-adv-x="669" 
d="M207 1153c0 149 84 281 275 281h20c41 0 68 -6 86 -16c24 -13 41 -37 41 -71s-17 -59 -41 -72c-18 -10 -41 -13 -74 -14c-75 -2 -103 -47 -103 -117v-130h111c38 0 53 -2 71 -12c23 -13 36 -36 36 -66s-13 -53 -36 -66c-18 -10 -33 -12 -71 -12h-111v-727
c0 -49 -3 -67 -15 -91c-14 -27 -43 -48 -87 -48s-73 21 -87 48c-12 24 -15 42 -15 91v727h-47c-38 0 -53 2 -71 12c-23 13 -36 36 -36 66s13 53 36 66c18 10 33 12 71 12h47v139z" />
    <glyph glyph-name="g" unicode="g" horiz-adv-x="1099" 
d="M501 -421c-104 0 -173 16 -240 53c-47 26 -104 70 -104 120c0 54 45 89 83 89c26 0 48 -11 92 -39c51 -33 96 -50 163 -50c173 0 238 122 238 258v130c-74 -88 -158 -116 -262 -116c-102 0 -186 34 -242 90c-98 98 -114 240 -114 412s16 314 114 412c56 56 142 88 244 88
c105 0 186 -27 261 -114c2 40 7 54 18 70c19 27 50 40 83 40c34 0 67 -16 84 -43c14 -23 18 -41 18 -97v-876c0 -247 -166 -427 -436 -427zM733 526c0 160 -22 318 -206 318s-208 -158 -208 -318s24 -318 208 -318s206 158 206 318z" />
    <glyph glyph-name="h" unicode="h" horiz-adv-x="1137" 
d="M366 618v-487c0 -49 -3 -67 -15 -91c-14 -27 -43 -48 -87 -48s-73 21 -87 48c-12 24 -15 42 -15 91v1162c0 49 3 67 15 91c14 27 43 48 87 48s73 -21 87 -48c12 -24 15 -42 15 -91v-381c72 80 165 114 266 114c105 0 190 -33 250 -92c78 -76 103 -173 103 -286v-517
c0 -49 -3 -67 -15 -91c-14 -27 -43 -48 -87 -48s-73 21 -87 48c-12 24 -15 42 -15 91v487c0 158 -90 224 -206 224c-115 0 -209 -67 -209 -224z" />
    <glyph glyph-name="i" unicode="i" horiz-adv-x="528" 
d="M366 131c0 -49 -3 -67 -15 -91c-14 -27 -43 -48 -87 -48s-73 21 -87 48c-12 24 -15 42 -15 91v752c0 49 3 67 15 91c14 27 43 48 87 48s73 -21 87 -48c12 -24 15 -42 15 -91v-752zM141 1345c0 68 55 123 123 123s123 -55 123 -123s-55 -123 -123 -123s-123 55 -123 123z
" />
    <glyph glyph-name="j" unicode="j" horiz-adv-x="528" 
d="M141 1345c0 68 55 123 123 123s123 -55 123 -123s-55 -123 -123 -123s-123 55 -123 123zM162 -124v1007c0 49 3 67 15 91c14 27 43 48 87 48s73 -21 87 -48c12 -24 15 -42 15 -91v-1016c0 -149 -84 -281 -275 -281h-20c-41 0 -68 6 -86 16c-24 13 -41 37 -41 71
s17 59 41 72c18 10 41 13 74 14c75 2 103 47 103 117z" />
    <glyph glyph-name="k" unicode="k" horiz-adv-x="1040" 
d="M970 88c0 -31 -18 -60 -48 -79c-19 -12 -38 -17 -56 -17c-46 0 -68 27 -99 77l-246 392l-155 -180v-150c0 -49 -3 -67 -15 -91c-14 -27 -43 -48 -87 -48s-73 21 -87 48c-12 24 -15 42 -15 91v1162c0 49 3 67 15 91c14 27 43 48 87 48s73 -21 87 -48c12 -24 15 -42 15 -91
v-747l366 417c38 43 61 59 93 59c22 0 45 -8 63 -24c24 -21 32 -42 32 -66c0 -28 -11 -51 -47 -92l-209 -238l271 -428c25 -40 35 -61 35 -86z" />
    <glyph glyph-name="l" unicode="l" horiz-adv-x="613" 
d="M157 281v1014c0 49 3 67 15 91c14 27 43 48 87 48s73 -21 87 -48c12 -24 15 -42 15 -91v-1005c0 -70 28 -115 103 -117c33 -1 56 -4 74 -14c24 -13 41 -38 41 -72s-17 -58 -41 -71c-18 -10 -45 -16 -86 -16h-20c-191 0 -275 132 -275 281z" />
    <glyph glyph-name="m" unicode="m" horiz-adv-x="1754" 
d="M1602 648v-517c0 -49 -3 -67 -15 -91c-14 -27 -43 -48 -87 -48s-73 21 -87 48c-12 24 -15 42 -15 91v487c0 158 -90 224 -204 224c-110 0 -210 -68 -210 -214v-497c0 -49 -3 -67 -15 -91c-14 -27 -43 -48 -87 -48s-73 21 -87 48c-12 24 -15 42 -15 91v487
c0 158 -90 224 -204 224s-210 -68 -210 -224v-487c0 -49 -3 -67 -15 -91c-14 -27 -43 -48 -87 -48s-73 21 -87 48c-12 24 -15 42 -15 91v751c0 56 4 74 18 97c17 27 50 43 84 43c33 0 64 -13 83 -40c10 -15 16 -30 18 -67c68 72 166 111 267 111c126 0 224 -50 288 -148
c82 100 184 148 318 148c104 0 196 -34 256 -92c78 -76 108 -172 108 -286z" />
    <glyph glyph-name="n" unicode="n" horiz-adv-x="1136" 
d="M366 618v-487c0 -49 -3 -67 -15 -91c-14 -27 -43 -48 -87 -48s-73 21 -87 48c-12 24 -15 42 -15 91v751c0 56 4 74 18 97c17 27 50 43 84 43c33 0 64 -13 83 -40c10 -15 16 -30 18 -67c70 74 166 111 267 111c104 0 190 -34 250 -92c78 -76 102 -172 102 -286v-517
c0 -49 -3 -67 -15 -91c-14 -27 -43 -48 -87 -48s-73 21 -87 48c-12 24 -15 42 -15 91v487c0 158 -90 224 -204 224s-210 -68 -210 -224z" />
    <glyph glyph-name="o" unicode="o" horiz-adv-x="1074" 
d="M319 507c0 -111 9 -216 70 -277c38 -39 86 -58 148 -58s110 19 148 58c61 61 70 166 70 277s-9 215 -70 277c-38 39 -86 58 -148 58s-110 -19 -148 -58c-61 -62 -70 -166 -70 -277zM115 507c0 171 20 297 119 399c66 68 165 120 303 120s237 -52 303 -120
c98 -102 119 -228 119 -399s-21 -297 -119 -399c-66 -68 -165 -120 -303 -120s-237 52 -303 120c-99 102 -119 228 -119 399z" />
    <glyph glyph-name="p" unicode="p" horiz-adv-x="1105" 
d="M177 -369c-12 24 -15 42 -15 91v1161c0 56 4 74 18 97c17 27 50 43 84 43c33 0 64 -13 83 -40c11 -16 16 -31 18 -72c75 89 158 116 265 116c102 0 192 -34 248 -90c98 -100 112 -262 112 -430c0 -166 -14 -328 -112 -428c-56 -56 -144 -91 -246 -91
c-108 0 -192 27 -266 115v-381c0 -49 -3 -67 -15 -91c-14 -27 -43 -48 -87 -48s-73 21 -87 48zM786 508c0 180 -26 335 -210 335c-185 0 -211 -155 -211 -335s26 -336 211 -336c184 0 210 156 210 336z" />
    <glyph glyph-name="q" unicode="q" horiz-adv-x="1105" 
d="M943 883v-1161c0 -49 -3 -67 -15 -91c-14 -27 -43 -48 -87 -48s-73 21 -87 48c-12 24 -15 42 -15 91v381c-74 -88 -158 -114 -266 -114c-102 0 -190 34 -246 90c-98 100 -112 262 -112 428c0 168 14 330 112 430c56 56 146 90 248 90c106 0 190 -27 265 -116
c2 42 7 57 18 72c19 27 50 40 83 40c34 0 67 -16 84 -43c14 -23 18 -41 18 -97zM319 508c0 -180 26 -335 210 -335c185 0 211 155 211 335s-26 335 -211 335c-184 0 -210 -155 -210 -335z" />
    <glyph glyph-name="r" unicode="r" horiz-adv-x="880" 
d="M365 908c57 71 152 118 258 118c75 0 129 -14 178 -47c35 -23 61 -53 61 -92c0 -29 -12 -56 -30 -74c-17 -17 -44 -28 -70 -28c-21 0 -44 7 -79 27c-34 19 -70 30 -110 30c-116 0 -207 -86 -207 -227v-484c0 -49 -3 -67 -15 -91c-14 -27 -43 -48 -87 -48s-73 21 -87 48
c-12 24 -15 42 -15 91v751c0 56 4 74 18 97c17 27 50 43 84 43c33 0 64 -13 83 -40c11 -16 16 -31 18 -74z" />
    <glyph glyph-name="s" unicode="s" horiz-adv-x="999" 
d="M489 -12c-158 0 -262 30 -353 92c-32 22 -56 50 -56 85c0 26 12 53 33 70c16 14 34 21 56 21c21 0 45 -9 76 -29c71 -46 142 -68 245 -68c130 0 223 46 223 143c0 68 -39 111 -137 120l-163 15c-189 17 -300 102 -300 278c0 199 171 311 383 311c109 0 194 -19 273 -56
c34 -16 53 -29 66 -43c15 -18 19 -33 19 -56c0 -20 -11 -45 -25 -60c-17 -17 -36 -26 -60 -26c-19 0 -39 8 -66 21c-64 31 -133 53 -211 53c-121 0 -182 -56 -182 -133c0 -75 47 -108 140 -116l160 -15c189 -18 301 -105 301 -286c0 -211 -180 -321 -422 -321z" />
    <glyph glyph-name="t" unicode="t" horiz-adv-x="703" 
d="M204 281v577h-47c-38 0 -53 2 -71 12c-23 13 -36 36 -36 66s13 53 36 66c18 10 33 12 71 12h47v159c0 49 3 67 15 91c14 27 43 48 87 48s73 -21 87 -48c12 -24 15 -42 15 -91v-159h110c38 0 53 -2 71 -12c23 -13 36 -36 36 -66s-13 -53 -36 -66c-18 -10 -33 -12 -71 -12
h-110v-568c0 -70 28 -115 103 -117c33 -1 56 -4 74 -14c24 -13 41 -38 41 -72s-17 -58 -41 -71c-18 -10 -45 -16 -86 -16h-20c-191 0 -275 132 -275 281z" />
    <glyph glyph-name="u" unicode="u" horiz-adv-x="1136" 
d="M770 396v487c0 49 3 67 15 91c14 27 43 48 87 48s73 -21 87 -48c12 -24 15 -42 15 -91v-751c0 -56 -4 -74 -18 -97c-17 -27 -50 -43 -84 -43c-33 0 -64 13 -83 40c-10 15 -16 30 -18 67c-70 -74 -166 -111 -267 -111c-104 0 -190 34 -250 92c-78 76 -102 172 -102 286
v517c0 49 3 67 15 91c14 27 43 48 87 48s73 -21 87 -48c12 -24 15 -42 15 -91v-487c0 -158 90 -224 204 -224s210 68 210 224z" />
    <glyph glyph-name="v" unicode="v" horiz-adv-x="898" 
d="M525 18c-21 -18 -45 -26 -76 -26s-55 8 -76 26c-20 18 -33 37 -50 88l-259 757c-12 36 -21 67 -11 98s49 61 95 61c62 0 81 -44 99 -98l202 -609l202 609c18 54 37 98 99 98c46 0 85 -30 95 -61s1 -62 -11 -98l-259 -757c-16 -47 -30 -70 -50 -88z" />
    <glyph glyph-name="w" unicode="w" horiz-adv-x="1466" 
d="M733 717l-186 -599c-16 -53 -30 -82 -52 -99c-20 -17 -45 -27 -75 -27c-31 0 -56 10 -76 27c-22 17 -36 46 -52 99l-222 747c-13 45 -16 64 -10 88c9 39 51 69 96 69c27 0 48 -10 65 -27c15 -15 23 -35 35 -77l175 -615l183 599c15 49 28 77 50 95c18 16 40 25 69 25
s51 -9 69 -25c22 -18 35 -46 50 -95l183 -599l175 615c12 42 20 62 35 77c17 17 38 27 65 27c45 0 87 -30 96 -69c6 -24 3 -43 -10 -88l-222 -747c-16 -53 -30 -82 -52 -99c-20 -17 -45 -27 -76 -27c-30 0 -55 10 -75 27c-22 17 -36 46 -52 99z" />
    <glyph glyph-name="x" unicode="x" horiz-adv-x="900" 
d="M819 926c0 -25 -10 -46 -35 -86l-210 -330l215 -336c25 -40 35 -61 35 -86c0 -31 -18 -60 -48 -79c-19 -12 -38 -17 -56 -17c-46 0 -68 27 -99 77l-170 280l-172 -280c-31 -50 -53 -77 -99 -77c-18 0 -37 5 -56 17c-30 19 -48 48 -48 79c0 25 10 46 35 86l216 335
l-211 331c-25 40 -35 61 -35 86c0 31 18 60 48 79c19 12 38 17 56 17c46 0 68 -27 99 -77l167 -273l165 273c31 50 53 77 99 77c18 0 37 -5 56 -17c30 -19 48 -48 48 -79z" />
    <glyph glyph-name="y" unicode="y" horiz-adv-x="898" 
d="M834 863l-369 -1066c-20 -57 -42 -95 -74 -126c-56 -55 -124 -75 -199 -75c-35 0 -73 5 -94 24c-18 16 -29 37 -29 69c0 31 10 56 31 72c18 14 34 19 68 19c60 0 103 24 131 108l49 149l-284 826c-12 36 -21 67 -11 98s49 61 95 61c62 0 81 -44 99 -98l200 -621l204 621
c18 54 37 98 99 98c46 0 85 -30 95 -61s2 -62 -11 -98z" />
    <glyph glyph-name="z" unicode="z" horiz-adv-x="926" 
d="M224 1014h497c46 0 66 -4 88 -17c29 -17 41 -44 41 -71c0 -35 -11 -58 -41 -99l-467 -643h385c44 0 63 -2 83 -14c25 -15 42 -43 42 -78s-17 -63 -42 -78c-20 -11 -39 -14 -83 -14h-525c-41 0 -65 3 -88 17c-27 15 -40 44 -40 72c0 35 9 55 41 99l465 642h-356
c-44 0 -63 3 -83 14c-25 15 -42 43 -42 78s17 63 42 78c20 12 39 14 83 14z" />
    <glyph glyph-name="braceleft" unicode="{" horiz-adv-x="812" 
d="M84 712c0 28 9 49 25 65c19 20 48 24 82 29c26 4 51 16 69 34c24 24 35 64 35 120v334c0 96 19 156 72 210c44 45 108 67 195 67h42c42 0 63 -2 84 -13c26 -12 44 -43 44 -79s-17 -65 -42 -78c-18 -10 -42 -14 -69 -14c-49 -1 -72 -7 -91 -26c-23 -22 -31 -59 -31 -128
v-321c0 -130 -69 -172 -132 -200c63 -28 132 -70 132 -200v-321c0 -69 8 -106 31 -128c19 -19 42 -25 91 -26c27 0 51 -4 69 -14c25 -13 42 -42 42 -78s-18 -67 -44 -79c-21 -11 -42 -13 -84 -13h-42c-87 0 -151 22 -195 67c-53 54 -72 114 -72 210v334c0 56 -11 96 -35 120
c-18 18 -43 30 -69 34c-34 5 -63 9 -82 29c-16 16 -25 37 -25 65z" />
    <glyph glyph-name="bar" unicode="|" horiz-adv-x="676" 
d="M440 1441v-1458c0 -49 -3 -67 -15 -91c-14 -27 -43 -48 -87 -48s-73 21 -87 48c-12 24 -15 42 -15 91v1458c0 49 3 67 15 91c14 27 43 48 87 48s73 -21 87 -48c12 -24 15 -42 15 -91z" />
    <glyph glyph-name="braceright" unicode="}" horiz-adv-x="812" 
d="M728 712c0 -28 -9 -49 -25 -65c-19 -20 -48 -24 -82 -29c-26 -4 -51 -16 -69 -34c-24 -24 -35 -64 -35 -120v-334c0 -96 -19 -156 -72 -210c-44 -45 -108 -67 -195 -67h-42c-42 0 -63 2 -84 13c-26 12 -44 43 -44 79s17 65 42 78c18 10 42 14 69 14c49 1 72 7 91 26
c23 22 31 59 31 128v321c0 130 69 172 132 200c-63 28 -132 70 -132 200v321c0 69 -8 106 -31 128c-19 19 -42 25 -91 26c-27 0 -51 4 -69 14c-25 13 -42 42 -42 78s18 67 44 79c21 11 42 13 84 13h42c87 0 151 -22 195 -67c53 -54 72 -114 72 -210v-334
c0 -56 11 -96 35 -120c18 -18 43 -30 69 -34c34 -5 63 -9 82 -29c16 -16 25 -37 25 -65z" />
    <glyph glyph-name="asciitilde" unicode="~" horiz-adv-x="1147" 
d="M998 498c-80 -73 -145 -93 -231 -93c-74 0 -149 28 -223 64c-57 28 -106 48 -159 48c-49 0 -83 -13 -133 -55c-23 -20 -44 -29 -66 -29c-24 0 -47 10 -66 32c-16 18 -24 40 -24 60c0 32 13 59 53 95c80 73 146 93 231 93c75 0 149 -28 223 -64c57 -28 106 -48 160 -48
c48 0 83 13 132 56c23 19 44 28 67 28s45 -9 65 -32c18 -21 24 -40 24 -60c0 -32 -13 -59 -53 -95z" />
    <glyph glyph-name="uni00A0" unicode="&#xa0;" horiz-adv-x="480" 
 />
    <glyph glyph-name="exclamdown" unicode="&#xa1;" horiz-adv-x="665" 
d="M192 -271v722c0 53 1 70 16 98c16 29 49 49 92 49s76 -20 92 -49c15 -28 16 -45 16 -98v-722c0 -53 -1 -70 -16 -98c-16 -29 -49 -49 -92 -49s-76 20 -92 49c-15 28 -16 45 -16 98zM170 890c0 72 58 130 130 130s130 -58 130 -130s-58 -130 -130 -130s-130 58 -130 130z
" />
    <glyph glyph-name="cent" unicode="&#xa2;" horiz-adv-x="969" 
d="M110 732c0 328 164 476 357 511v64c0 44 3 63 14 83c15 25 43 42 78 42s63 -17 78 -42c12 -20 14 -39 14 -83v-64c47 -10 88 -28 131 -56c53 -34 99 -70 99 -122c0 -25 -11 -48 -29 -67c-15 -15 -39 -26 -63 -26c-27 0 -47 11 -81 39c-23 18 -43 30 -63 39v-636
c20 9 40 22 63 40c34 27 54 39 81 39c24 0 48 -12 63 -27c18 -19 29 -41 29 -67c0 -51 -48 -89 -99 -122c-41 -26 -82 -46 -131 -56v-104c0 -44 -2 -63 -14 -83c-15 -25 -43 -42 -78 -42s-63 17 -78 42c-11 20 -14 39 -14 83v104c-193 34 -357 183 -357 511zM375 485
c26 -35 59 -60 98 -74v642c-39 -14 -73 -39 -98 -73c-44 -58 -61 -130 -61 -248c0 -120 18 -189 61 -247z" />
    <glyph glyph-name="sterling" unicode="&#xa3;" horiz-adv-x="1161" 
d="M126 637c-23 13 -36 36 -36 66c0 31 13 54 36 67c17 10 34 12 72 12h46v192c0 294 211 462 474 462c112 0 200 -25 275 -78c45 -32 65 -61 65 -103c0 -28 -10 -52 -27 -70c-15 -16 -36 -26 -56 -26c-28 0 -47 9 -79 29c-62 40 -107 56 -177 56c-161 0 -259 -99 -259 -286
v-176h184c38 0 54 -2 71 -12c23 -13 36 -36 36 -67c0 -30 -13 -53 -36 -66c-17 -10 -33 -12 -71 -12h-184v-433h481c46 0 66 -2 88 -14c26 -15 44 -44 44 -82s-18 -67 -44 -82c-22 -12 -42 -14 -88 -14h-565c-32 0 -70 0 -101 31s-31 69 -31 101v493h-46c-38 0 -55 2 -72 12
z" />
    <glyph glyph-name="currency" unicode="&#xa4;" horiz-adv-x="1329" 
d="M1131 889l-84 -84c47 -70 75 -156 75 -247c0 -92 -28 -178 -76 -248l85 -84c34 -34 45 -50 51 -72c8 -30 0 -61 -26 -87s-59 -35 -89 -27c-22 6 -37 17 -71 51l-85 84c-70 -48 -156 -75 -247 -75c-92 0 -177 27 -247 75l-84 -84c-34 -34 -49 -45 -71 -51
c-30 -8 -63 1 -89 27s-34 57 -26 87c6 22 17 38 51 72l84 84c-48 70 -76 156 -76 248c0 91 27 177 75 247l-83 84c-34 34 -45 50 -51 72c-8 30 0 61 26 87s59 35 89 27c22 -6 37 -17 71 -51l83 -84c70 48 156 74 248 74s178 -26 248 -74l84 84c34 34 49 45 71 51
c30 8 63 -1 89 -27s34 -57 26 -87c-6 -22 -17 -38 -51 -72zM392 557c0 -150 122 -272 272 -272s272 122 272 272s-122 272 -272 272s-272 -122 -272 -272z" />
    <glyph glyph-name="yen" unicode="&#xa5;" horiz-adv-x="1070" 
d="M67 1340c1 31 20 62 56 80c16 8 35 12 51 12c18 0 34 -5 49 -15c21 -15 31 -31 53 -75l259 -523l259 523c22 44 32 60 53 75c15 10 31 15 49 15c16 0 35 -4 51 -12c36 -18 55 -49 56 -80c1 -26 -5 -45 -27 -89l-212 -424h94c38 0 53 -2 71 -12c23 -13 36 -36 36 -66
s-13 -53 -36 -66c-18 -10 -33 -12 -71 -12h-172l-43 -86v-91h215c38 0 53 -2 71 -12c23 -13 36 -36 36 -66s-13 -53 -36 -66c-18 -10 -33 -12 -71 -12h-215v-199c0 -53 -1 -70 -16 -98c-16 -29 -49 -49 -92 -49s-76 20 -92 49c-15 28 -16 45 -16 98v199h-216
c-38 0 -53 2 -71 12c-23 13 -36 36 -36 66s13 53 36 66c18 10 33 12 71 12h216v91l-43 86h-173c-38 0 -53 2 -71 12c-23 13 -36 36 -36 66s13 53 36 66c18 10 33 12 71 12h95l-212 424c-22 44 -28 63 -27 89z" />
    <glyph glyph-name="brokenbar" unicode="&#xa6;" horiz-adv-x="676" 
d="M440 421v-438c0 -49 -3 -67 -15 -91c-14 -27 -43 -48 -87 -48s-73 21 -87 48c-12 24 -15 42 -15 91v438c0 49 3 67 15 91c14 27 43 48 87 48s73 -21 87 -48c12 -24 15 -42 15 -91zM440 1441v-438c0 -49 -3 -67 -15 -91c-14 -27 -43 -48 -87 -48s-73 21 -87 48
c-12 24 -15 42 -15 91v438c0 49 3 67 15 91c14 27 43 48 87 48s73 -21 87 -48c12 -24 15 -42 15 -91z" />
    <glyph glyph-name="section" unicode="&#xa7;" horiz-adv-x="1090" 
d="M570 101l-127 39c-197 60 -296 177 -296 371c0 160 104 270 196 317c-98 48 -169 125 -169 271c0 186 136 337 372 337c152 0 253 -50 317 -137c33 -45 52 -96 52 -144c0 -23 -7 -46 -16 -62c-14 -25 -45 -42 -81 -42c-31 0 -55 11 -72 30c-12 14 -19 29 -24 55
c-16 90 -76 126 -176 126c-109 0 -176 -55 -176 -156c0 -87 52 -136 159 -169l126 -39c190 -58 288 -174 288 -367c0 -161 -103 -271 -193 -318c100 -43 177 -130 177 -280c0 -228 -180 -354 -383 -354c-143 0 -240 48 -303 119c-45 50 -71 107 -71 166c0 26 7 49 17 65
c15 24 44 41 80 41c28 0 52 -10 68 -26s23 -37 27 -60c16 -88 80 -127 182 -127c114 0 183 61 183 168c0 76 -47 142 -157 176zM347 521c0 -69 16 -117 55 -158c36 -38 82 -57 143 -57s107 19 143 57c39 41 55 89 55 158s-16 117 -55 158c-36 38 -82 57 -143 57
s-107 -19 -143 -57c-39 -41 -55 -89 -55 -158z" />
    <glyph glyph-name="dieresis" unicode="&#xa8;" horiz-adv-x="1076" 
d="M872 1314c0 -62 -50 -114 -112 -114s-114 52 -114 114s52 112 114 112s112 -50 112 -112zM432 1314c0 -62 -52 -114 -114 -114s-112 52 -112 114s50 112 112 112s114 -50 114 -112z" />
    <glyph glyph-name="copyright" unicode="&#xa9;" horiz-adv-x="1724" 
d="M1586 712c0 -400 -324 -724 -724 -724s-724 324 -724 724s324 724 724 724s724 -324 724 -724zM1447 712c0 333 -259 595 -585 595s-586 -262 -586 -595s260 -595 586 -595s585 262 585 595zM544 712c0 230 132 370 333 370c75 0 143 -20 194 -68c23 -22 36 -40 36 -63
c0 -18 -5 -30 -17 -42c-13 -13 -26 -18 -43 -18c-19 0 -36 9 -59 27c-38 31 -68 42 -111 42c-139 0 -197 -104 -197 -248s58 -248 197 -248c43 0 73 11 111 42c23 18 40 27 59 27c17 0 30 -5 43 -18c12 -12 17 -24 17 -42c0 -23 -13 -41 -36 -63c-51 -48 -119 -68 -194 -68
c-201 0 -333 140 -333 370z" />
    <glyph glyph-name="ordfeminine" unicode="&#xaa;" horiz-adv-x="903" 
d="M753 1154v-433c0 -38 -2 -53 -12 -71c-13 -23 -36 -36 -66 -36s-53 13 -66 36c-7 13 -11 25 -12 43c-66 -59 -121 -80 -216 -80c-99 0 -169 25 -218 79c-38 42 -59 98 -59 164c0 128 94 227 277 227h216v60c0 111 -57 154 -176 154c-72 0 -111 -20 -156 -59
c-21 -19 -44 -24 -60 -24c-15 0 -31 5 -43 18c-12 14 -18 28 -18 49c0 36 30 69 84 102c53 32 116 47 193 47c221 0 332 -95 332 -276zM597 909v65h-195c-99 0 -147 -44 -147 -118s48 -115 150 -115c65 0 115 6 156 46c24 24 36 62 36 122z" />
    <glyph glyph-name="guillemotleft" unicode="&#xab;" horiz-adv-x="1218" 
d="M532 714l-189 -189l189 -189c34 -34 45 -50 51 -72c8 -30 0 -61 -26 -87s-59 -35 -89 -27c-22 6 -37 17 -71 51l-324 324l324 324c34 34 49 45 71 51c30 8 63 -1 89 -27s34 -57 26 -87c-6 -22 -17 -38 -51 -72zM1037 714l-189 -189l189 -189c34 -34 45 -50 51 -72
c8 -30 0 -61 -26 -87s-59 -35 -89 -27c-22 6 -37 17 -71 51l-324 324l324 324c34 34 49 45 71 51c30 8 63 -1 89 -27s34 -57 26 -87c-6 -22 -17 -38 -51 -72z" />
    <glyph glyph-name="logicalnot" unicode="&#xac;" horiz-adv-x="1066" 
d="M783 477h-569c-44 0 -63 3 -83 14c-25 15 -42 43 -42 78s17 63 42 78c20 12 39 14 83 14h628c31 0 67 0 96 -29s29 -65 29 -96v-221c0 -44 -3 -63 -14 -83c-15 -25 -43 -42 -78 -42s-63 17 -78 42c-12 20 -14 39 -14 83v162z" />
    <glyph glyph-name="uni00AD" unicode="&#xad;" horiz-adv-x="854" 
d="M601 463h-350c-44 0 -63 3 -83 14c-25 15 -42 43 -42 78s17 63 42 78c20 12 39 14 83 14h350c44 0 63 -2 83 -14c25 -15 42 -43 42 -78s-17 -63 -42 -78c-20 -11 -39 -14 -83 -14z" />
    <glyph glyph-name="registered" unicode="&#xae;" horiz-adv-x="1724" 
d="M1586 712c0 -400 -324 -724 -724 -724s-724 324 -724 724s324 724 724 724s724 -324 724 -724zM1447 712c0 333 -259 595 -585 595c-327 0 -586 -262 -586 -595s259 -595 586 -595c326 0 585 262 585 595zM765 638v-201c0 -34 -2 -48 -10 -63c-12 -20 -31 -31 -58 -31
s-46 11 -58 31c-8 15 -10 29 -10 63v554c0 23 1 47 19 65s42 19 65 19h189c139 0 235 -98 235 -222c0 -105 -62 -169 -140 -196l112 -192c17 -28 21 -41 22 -58c1 -20 -11 -41 -34 -54c-11 -7 -24 -10 -35 -10c-31 0 -46 20 -67 56l-139 239h-91zM885 959h-120v-213h120
c67 0 116 39 116 107c0 67 -49 106 -116 106z" />
    <glyph glyph-name="macron" unicode="&#xaf;" horiz-adv-x="1076" 
d="M848 1319c0 -31 -13 -56 -37 -69c-18 -10 -34 -13 -74 -13h-399c-40 0 -56 3 -74 13c-24 13 -38 38 -38 69s14 56 38 69c18 10 34 13 74 13h399c40 0 56 -3 74 -13c24 -13 37 -38 37 -69z" />
    <glyph glyph-name="degree" unicode="&#xb0;" horiz-adv-x="941" 
d="M471 750c-193 0 -349 156 -349 349s156 349 349 349s349 -156 349 -349s-156 -349 -349 -349zM471 914c102 0 181 80 181 185s-79 185 -181 185s-181 -80 -181 -185s79 -185 181 -185z" />
    <glyph glyph-name="plusminus" unicode="&#xb1;" horiz-adv-x="1066" 
d="M441 411v222h-222c-44 0 -63 3 -83 14c-25 15 -42 43 -42 78s17 63 42 78c20 12 39 14 83 14h222v222c0 44 3 63 14 83c15 25 43 42 78 42s63 -17 78 -42c12 -20 14 -39 14 -83v-222h222c44 0 63 -2 83 -14c25 -15 42 -43 42 -78s-17 -63 -42 -78
c-20 -11 -39 -14 -83 -14h-222v-222c0 -44 -2 -63 -14 -83c-15 -25 -43 -42 -78 -42s-63 17 -78 42c-11 20 -14 39 -14 83zM847 0h-628c-44 0 -63 3 -83 14c-25 15 -42 43 -42 78s17 63 42 78c20 12 39 14 83 14h628c44 0 63 -2 83 -14c25 -15 42 -43 42 -78
s-17 -63 -42 -78c-20 -11 -39 -14 -83 -14z" />
    <glyph glyph-name="twosuperior" unicode="&#xb2;" 
d="M166 570c-32 0 -59 1 -79 22c-12 13 -19 32 -19 52c0 29 15 50 37 77l284 352c32 39 49 72 49 114c0 64 -40 107 -108 107c-51 0 -93 -26 -109 -83c-5 -18 -14 -35 -27 -48c-9 -8 -25 -16 -46 -16c-27 0 -46 9 -59 29c-9 13 -13 29 -13 46c0 42 25 90 52 122
c48 56 111 88 202 88c158 0 261 -90 261 -245c0 -68 -20 -113 -90 -199l-229 -280h237c33 0 48 -3 63 -12c20 -11 30 -32 30 -57c0 -26 -10 -46 -30 -58c-15 -9 -30 -11 -63 -11h-343z" />
    <glyph glyph-name="threesuperior" unicode="&#xb3;" 
d="M593 1185c0 -94 -42 -145 -98 -175c61 -32 110 -91 110 -194c0 -171 -125 -256 -272 -256c-96 0 -165 35 -212 85c-32 34 -50 80 -50 124c0 28 6 49 22 65c12 12 28 19 51 19c20 0 35 -6 47 -17c11 -11 19 -21 24 -45c13 -62 55 -91 118 -91c67 0 116 44 116 120
c0 70 -41 115 -117 118c-22 1 -41 8 -52 19c-13 13 -19 27 -19 48s6 35 19 48c11 11 30 18 52 19c72 3 106 49 106 108c0 72 -51 110 -105 110c-52 0 -85 -20 -102 -65c-6 -18 -11 -35 -21 -52c-11 -19 -33 -28 -57 -28c-44 0 -70 35 -70 81c0 43 19 94 56 131
c46 46 106 73 194 73c152 0 260 -99 260 -245z" />
    <glyph glyph-name="acute" unicode="&#xb4;" horiz-adv-x="1076" 
d="M741 1399l-93 -149c-14 -22 -29 -44 -44 -55s-29 -16 -47 -16c-16 0 -33 5 -49 15c-31 20 -45 47 -43 77c1 22 9 38 31 74l93 149c14 22 29 44 44 55s29 16 47 16c16 0 33 -5 49 -15c31 -20 45 -47 43 -77c-1 -22 -9 -38 -31 -74z" />
    <glyph glyph-name="mu" unicode="&#xb5;" horiz-adv-x="1146" 
d="M780 396v487c0 49 3 67 15 91c14 27 43 48 87 48s73 -21 87 -48c12 -24 15 -42 15 -91v-751c0 -56 -4 -74 -18 -97c-17 -27 -50 -43 -84 -43c-33 0 -64 13 -83 40c-11 15 -16 29 -18 67c-70 -74 -167 -111 -267 -111c-61 0 -113 18 -148 51v-318c0 -49 -3 -67 -15 -91
c-14 -27 -43 -48 -87 -48s-73 21 -87 48c-12 24 -15 42 -15 91v1162c0 49 3 67 15 91c14 27 43 48 87 48s73 -21 87 -48c12 -24 15 -42 15 -91v-487c0 -158 90 -224 204 -224s210 68 210 224z" />
    <glyph glyph-name="paragraph" unicode="&#xb6;" horiz-adv-x="1274" 
d="M1088 -279c0 -49 -3 -67 -15 -91c-14 -27 -43 -48 -87 -48s-73 21 -87 48c-12 24 -15 42 -15 91v1511h-216v-1511c0 -49 -3 -67 -15 -91c-14 -27 -43 -48 -87 -48s-73 21 -87 48c-12 24 -15 42 -15 91v912c-220 0 -388 183 -388 393c0 238 176 398 450 398h437
c31 0 67 0 96 -29s29 -65 29 -96v-1578z" />
    <glyph glyph-name="periodcentered" unicode="&#xb7;" horiz-adv-x="636" 
d="M172 555c0 80 66 144 146 144s146 -64 146 -144s-66 -144 -146 -144s-146 64 -146 144z" />
    <glyph glyph-name="cedilla" unicode="&#xb8;" horiz-adv-x="1076" 
d="M352 -478c-31 19 -46 47 -44 77c1 22 9 38 32 74l93 149c14 22 28 44 44 55c15 11 29 16 47 16c16 0 33 -5 49 -15c31 -20 45 -47 43 -77c-1 -22 -9 -38 -31 -74l-93 -149c-15 -24 -28 -44 -44 -56c-15 -10 -29 -15 -47 -15c-17 0 -34 5 -49 15z" />
    <glyph glyph-name="onesuperior" unicode="&#xb9;" 
d="M451 1332v-663c0 -38 -2 -53 -12 -71c-13 -23 -36 -36 -66 -36s-53 13 -66 36c-10 18 -12 33 -12 71v530l-59 -59c-25 -26 -37 -34 -55 -39c-24 -7 -49 0 -68 20c-20 20 -28 45 -21 68c6 18 15 29 40 55l144 145c24 24 52 43 90 43c24 0 46 -7 61 -23
c21 -22 24 -45 24 -77z" />
    <glyph glyph-name="ordmasculine" unicode="&#xba;" horiz-adv-x="916" 
d="M458 608c-100 0 -177 33 -235 91c-78 78 -99 179 -99 320s21 242 99 320c58 58 135 91 235 91s177 -33 235 -91c78 -78 99 -179 99 -320s-21 -242 -99 -320c-58 -58 -135 -91 -235 -91zM458 747c51 0 92 18 124 50c50 50 54 136 54 222s-4 172 -54 222
c-32 32 -73 50 -124 50s-92 -18 -124 -50c-50 -50 -54 -136 -54 -222s4 -172 54 -222c32 -32 73 -50 124 -50z" />
    <glyph glyph-name="guillemotright" unicode="&#xbb;" horiz-adv-x="1218" 
d="M370 525l-189 189c-34 34 -45 50 -51 72c-8 30 0 61 26 87s59 35 89 27c22 -6 37 -17 71 -51l324 -324l-324 -324c-34 -34 -49 -45 -71 -51c-30 -8 -63 1 -89 27s-34 57 -26 87c6 22 17 38 51 72zM875 525l-189 189c-34 34 -45 50 -51 72c-8 30 0 61 26 87s59 35 89 27
c22 -6 37 -17 71 -51l324 -324l-324 -324c-34 -34 -49 -45 -71 -51c-30 -8 -63 1 -89 27s-34 57 -26 87c6 22 17 38 51 72z" />
    <glyph glyph-name="onequarter" unicode="&#xbc;" horiz-adv-x="1654" 
d="M451 1332v-663c0 -38 -2 -53 -12 -71c-13 -23 -36 -36 -66 -36s-53 13 -66 36c-10 18 -12 33 -12 71v530l-59 -59c-25 -26 -37 -34 -55 -39c-24 -7 -49 0 -68 20c-20 20 -28 45 -21 68c6 18 15 29 40 55l144 145c24 24 52 43 90 43c24 0 46 -7 61 -23
c21 -22 24 -45 24 -77zM1223 1365c1 -18 -3 -33 -19 -65l-622 -1242c-16 -32 -26 -45 -40 -54c-11 -7 -23 -12 -36 -12c-12 0 -23 3 -35 9c-24 12 -39 32 -40 58c-1 18 3 33 19 65l622 1242c16 32 26 45 40 54c11 7 23 12 36 12c12 0 23 -3 35 -9c24 -12 39 -32 40 -58z
M1462 731l-235 -470h160v70c0 38 2 53 12 71c13 23 36 36 66 36s53 -13 66 -36c10 -18 12 -33 12 -71v-70h4c33 0 48 -3 63 -12c20 -11 30 -32 30 -57c0 -26 -10 -46 -30 -58c-15 -9 -30 -11 -63 -11h-4v-24c0 -38 -2 -53 -12 -71c-13 -23 -36 -36 -66 -36s-53 13 -66 36
c-10 18 -12 33 -12 71v24h-257c-32 0 -47 4 -60 11c-20 12 -33 33 -33 57c0 15 4 28 19 58l274 548c16 32 38 66 78 66c37 0 73 -29 73 -69c0 -19 -5 -35 -19 -63z" />
    <glyph glyph-name="onehalf" unicode="&#xbd;" horiz-adv-x="1654" 
d="M451 1332v-663c0 -38 -2 -53 -12 -71c-13 -23 -36 -36 -66 -36s-53 13 -66 36c-10 18 -12 33 -12 71v530l-59 -59c-25 -26 -37 -34 -55 -39c-24 -7 -49 0 -68 20c-20 20 -28 45 -21 68c6 18 15 29 40 55l144 145c24 24 52 43 90 43c24 0 46 -7 61 -23
c21 -22 24 -45 24 -77zM1223 1365c1 -18 -3 -33 -19 -65l-622 -1242c-16 -32 -26 -45 -40 -54c-11 -7 -23 -12 -36 -12c-12 0 -23 3 -35 9c-24 12 -39 32 -40 58c-1 18 3 33 19 65l622 1242c16 32 26 45 40 54c11 7 23 12 36 12c12 0 23 -3 35 -9c24 -12 39 -32 40 -58z
M1170 0c-32 0 -59 1 -79 22c-12 13 -19 32 -19 52c0 29 15 50 37 77l284 352c32 39 49 72 49 114c0 64 -40 107 -108 107c-51 0 -93 -26 -109 -83c-5 -18 -14 -35 -27 -48c-9 -8 -25 -16 -46 -16c-27 0 -46 9 -59 29c-9 13 -13 29 -13 46c0 42 25 90 52 122
c48 56 111 88 202 88c158 0 261 -90 261 -245c0 -68 -20 -113 -90 -199l-229 -280h237c33 0 48 -3 63 -12c20 -11 30 -32 30 -57c0 -26 -10 -46 -30 -58c-15 -9 -30 -11 -63 -11h-343z" />
    <glyph glyph-name="threequarters" unicode="&#xbe;" horiz-adv-x="1654" 
d="M593 1187c0 -94 -42 -145 -98 -175c61 -32 110 -91 110 -194c0 -171 -125 -256 -272 -256c-96 0 -165 35 -212 85c-32 34 -50 80 -50 124c0 28 6 49 22 65c12 12 28 19 51 19c20 0 35 -6 47 -17c11 -11 19 -21 24 -45c13 -62 55 -91 118 -91c67 0 116 44 116 120
c0 70 -41 115 -117 118c-22 1 -41 8 -52 19c-13 13 -19 27 -19 48s6 35 19 48c11 11 30 18 52 19c72 3 106 49 106 108c0 72 -51 110 -105 110c-52 0 -85 -20 -102 -65c-6 -18 -11 -35 -21 -52c-11 -19 -33 -28 -57 -28c-44 0 -70 35 -70 81c0 43 19 94 56 131
c46 46 106 73 194 73c152 0 260 -99 260 -245zM1223 1365c1 -18 -3 -33 -19 -65l-622 -1242c-16 -32 -26 -45 -40 -54c-11 -7 -23 -12 -36 -12c-12 0 -23 3 -35 9c-24 12 -39 32 -40 58c-1 18 3 33 19 65l622 1242c16 32 26 45 40 54c11 7 23 12 36 12c12 0 23 -3 35 -9
c24 -12 39 -32 40 -58zM1462 731l-235 -470h160v70c0 38 2 53 12 71c13 23 36 36 66 36s53 -13 66 -36c10 -18 12 -33 12 -71v-70h4c33 0 48 -3 63 -12c20 -11 30 -32 30 -57c0 -26 -10 -46 -30 -58c-15 -9 -30 -11 -63 -11h-4v-24c0 -38 -2 -53 -12 -71
c-13 -23 -36 -36 -66 -36s-53 13 -66 36c-10 18 -12 33 -12 71v24h-257c-32 0 -47 4 -60 11c-20 12 -33 33 -33 57c0 15 4 28 19 58l274 548c16 32 38 66 78 66c37 0 73 -29 73 -69c0 -19 -5 -35 -19 -63z" />
    <glyph glyph-name="questiondown" unicode="&#xbf;" horiz-adv-x="1021" 
d="M599 890c0 -72 -58 -130 -130 -130s-130 58 -130 130s58 130 130 130s130 -58 130 -130zM81 -46c0 105 37 170 94 248l137 189c34 47 43 80 50 129c4 27 14 50 29 67c18 20 44 31 77 31s59 -13 77 -33c17 -19 26 -44 26 -77c0 -72 -13 -115 -68 -189l-156 -210
c-35 -47 -61 -92 -61 -155c0 -109 79 -193 193 -193c55 0 104 16 143 55c31 31 45 68 58 118c6 23 17 49 28 61c16 18 41 30 74 30c27 0 52 -11 69 -30c19 -21 24 -44 24 -75c0 -71 -37 -166 -108 -234c-72 -68 -170 -108 -287 -108c-222 0 -399 147 -399 376z" />
    <glyph glyph-name="Agrave" unicode="&#xc0;" horiz-adv-x="1246" 
d="M851 470l-228 623l-228 -623h456zM918 286h-590l-71 -191c-18 -48 -27 -66 -47 -82c-16 -13 -36 -21 -59 -21c-30 0 -60 12 -79 32c-41 42 -28 87 -7 143l436 1161c15 41 26 58 43 74c21 20 45 30 79 30s58 -10 79 -30c17 -16 28 -33 43 -74l436 -1161
c21 -56 34 -101 -7 -143c-19 -20 -49 -32 -79 -32c-23 0 -43 8 -59 21c-20 16 -29 34 -47 82zM514 1611l-93 149c-22 36 -30 52 -31 74c-2 30 12 57 43 77c16 10 33 15 49 15c18 0 32 -5 47 -16s30 -33 44 -55l93 -149c22 -36 30 -52 31 -74c2 -30 -12 -57 -43 -77
c-16 -10 -33 -15 -49 -15c-18 0 -32 5 -47 16s-30 33 -44 55z" />
    <glyph glyph-name="Aacute" unicode="&#xc1;" horiz-adv-x="1246" 
d="M851 470l-228 623l-228 -623h456zM918 286h-590l-71 -191c-18 -48 -27 -66 -47 -82c-16 -13 -36 -21 -59 -21c-30 0 -60 12 -79 32c-41 42 -28 87 -7 143l436 1161c15 41 26 58 43 74c21 20 45 30 79 30s58 -10 79 -30c17 -16 28 -33 43 -74l436 -1161
c21 -56 34 -101 -7 -143c-19 -20 -49 -32 -79 -32c-23 0 -43 8 -59 21c-20 16 -29 34 -47 82zM825 1760l-93 -149c-14 -22 -29 -44 -44 -55s-29 -16 -47 -16c-16 0 -33 5 -49 15c-31 20 -45 47 -43 77c1 22 9 38 31 74l93 149c14 22 29 44 44 55s29 16 47 16
c16 0 33 -5 49 -15c31 -20 45 -47 43 -77c-1 -22 -9 -38 -31 -74z" />
    <glyph glyph-name="Acircumflex" unicode="&#xc2;" horiz-adv-x="1246" 
d="M851 470l-228 623l-228 -623h456zM918 286h-590l-71 -191c-18 -48 -27 -66 -47 -82c-16 -13 -36 -21 -59 -21c-30 0 -60 12 -79 32c-41 42 -28 87 -7 143l436 1161c15 41 26 58 43 74c21 20 45 30 79 30s58 -10 79 -30c17 -16 28 -33 43 -74l436 -1161
c21 -56 34 -101 -7 -143c-19 -20 -49 -32 -79 -32c-23 0 -43 8 -59 21c-20 16 -29 34 -47 82zM623 1913c40 0 66 -26 88 -48l166 -166c29 -29 38 -42 43 -61c8 -27 0 -55 -22 -77c-22 -21 -49 -30 -76 -22c-19 5 -33 14 -62 43l-137 138l-137 -138c-29 -29 -43 -38 -62 -43
c-27 -8 -54 1 -76 22c-22 22 -30 50 -22 77c5 19 14 32 43 61l166 166c22 22 48 48 88 48z" />
    <glyph glyph-name="Atilde" unicode="&#xc3;" horiz-adv-x="1246" 
d="M851 470l-228 623l-228 -623h456zM918 286h-590l-71 -191c-18 -48 -27 -66 -47 -82c-16 -13 -36 -21 -59 -21c-30 0 -60 12 -79 32c-41 42 -28 87 -7 143l436 1161c15 41 26 58 43 74c21 20 45 30 79 30s58 -10 79 -30c17 -16 28 -33 43 -74l436 -1161
c21 -56 34 -101 -7 -143c-19 -20 -49 -32 -79 -32c-23 0 -43 8 -59 21c-20 16 -29 34 -47 82zM604 1619c-39 22 -67 37 -107 37c-31 0 -52 -5 -88 -34c-20 -16 -40 -26 -59 -26s-39 6 -54 23c-12 14 -17 31 -17 52c0 23 14 50 46 77c63 52 112 62 167 62
c59 0 94 -13 150 -45c39 -22 67 -37 107 -37c31 0 52 5 88 34c20 16 40 26 59 26s39 -6 54 -23c12 -14 17 -31 17 -52c0 -23 -14 -50 -46 -77c-63 -52 -112 -62 -167 -62c-59 0 -94 13 -150 45z" />
    <glyph glyph-name="Adieresis" unicode="&#xc4;" horiz-adv-x="1246" 
d="M851 470l-228 623l-228 -623h456zM918 286h-590l-71 -191c-18 -48 -27 -66 -47 -82c-16 -13 -36 -21 -59 -21c-30 0 -60 12 -79 32c-41 42 -28 87 -7 143l436 1161c15 41 26 58 43 74c21 20 45 30 79 30s58 -10 79 -30c17 -16 28 -33 43 -74l436 -1161
c21 -56 34 -101 -7 -143c-19 -20 -49 -32 -79 -32c-23 0 -43 8 -59 21c-20 16 -29 34 -47 82zM955 1678c0 -62 -50 -114 -112 -114s-114 52 -114 114s52 112 114 112s112 -50 112 -112zM517 1678c0 -62 -52 -114 -114 -114s-112 52 -112 114s50 112 112 112
s114 -50 114 -112z" />
    <glyph glyph-name="Aring" unicode="&#xc5;" horiz-adv-x="1246" 
d="M851 470l-228 623l-228 -623h456zM918 286h-590l-71 -191c-18 -48 -27 -66 -47 -82c-16 -13 -36 -21 -59 -21c-30 0 -60 12 -79 32c-41 42 -28 87 -7 143l436 1161c15 41 26 58 43 74c21 20 45 30 79 30s58 -10 79 -30c17 -16 28 -33 43 -74l436 -1161
c21 -56 34 -101 -7 -143c-19 -20 -49 -32 -79 -32c-23 0 -43 8 -59 21c-20 16 -29 34 -47 82zM373 1749c0 138 112 250 250 250s250 -112 250 -250s-112 -250 -250 -250s-250 112 -250 250zM496 1749c0 -70 57 -127 127 -127s127 57 127 127s-57 127 -127 127
s-127 -57 -127 -127z" />
    <glyph glyph-name="AE" unicode="&#xc6;" horiz-adv-x="1852" 
d="M73 173l560 1122c27 55 50 83 71 100c25 20 58 29 87 29h831c46 0 66 -2 88 -14c26 -15 44 -44 44 -82s-18 -67 -44 -82c-22 -12 -42 -14 -88 -14h-572v-418h470c46 0 66 -2 88 -14c26 -15 44 -44 44 -82s-18 -67 -44 -82c-22 -12 -42 -14 -88 -14h-470v-430h572
c46 0 66 -2 88 -14c26 -15 44 -44 44 -82s-18 -67 -44 -82c-22 -12 -42 -14 -88 -14h-656c-32 0 -70 0 -101 31s-31 69 -31 101v193h-458l-121 -243c-22 -44 -32 -60 -53 -75c-15 -10 -31 -15 -49 -15c-16 0 -35 4 -51 12c-36 18 -55 49 -56 80c-1 26 5 45 27 89zM834 1243
l-366 -735h366v735z" />
    <glyph glyph-name="Ccedilla" unicode="&#xc7;" horiz-adv-x="1253" 
d="M135 712c0 299 5 441 143 579c92 92 212 145 367 145c179 0 286 -54 373 -147c80 -86 109 -178 109 -229c0 -37 -9 -61 -29 -81c-21 -20 -45 -30 -75 -30c-27 0 -49 9 -64 21c-23 18 -37 44 -53 81c-52 122 -131 193 -265 193c-84 0 -153 -33 -205 -89
c-75 -81 -85 -172 -85 -443s10 -362 85 -443c52 -56 121 -89 205 -89c134 0 213 71 265 193c16 37 30 63 53 81c15 12 37 21 64 21c30 0 54 -10 75 -30c20 -20 29 -44 29 -81c0 -51 -29 -143 -109 -229c-87 -93 -194 -147 -373 -147c-155 0 -275 53 -367 145
c-138 138 -143 280 -143 579zM487 -478c-31 19 -46 47 -44 77c1 22 9 38 32 74l93 149c14 22 28 44 44 55c15 11 29 16 47 16c16 0 33 -5 49 -15c31 -20 45 -47 43 -77c-1 -22 -9 -38 -31 -74l-93 -149c-15 -24 -28 -44 -44 -56c-15 -10 -29 -15 -47 -15c-17 0 -34 5 -49 15
z" />
    <glyph glyph-name="Egrave" unicode="&#xc8;" horiz-adv-x="1203" 
d="M401 1232v-418h470c46 0 66 -2 88 -14c26 -15 44 -44 44 -82s-18 -67 -44 -82c-22 -12 -42 -14 -88 -14h-470v-430h572c46 0 66 -2 88 -14c26 -15 44 -44 44 -82s-18 -67 -44 -82c-22 -12 -42 -14 -88 -14h-656c-32 0 -70 0 -101 31s-31 69 -31 101v1160
c0 32 0 70 31 101s69 31 101 31h656c46 0 66 -2 88 -14c26 -15 44 -44 44 -82s-18 -67 -44 -82c-22 -12 -42 -14 -88 -14h-572zM519 1611l-93 149c-22 36 -30 52 -31 74c-2 30 12 57 43 77c16 10 33 15 49 15c18 0 32 -5 47 -16s30 -33 44 -55l93 -149c22 -36 30 -52 31 -74
c2 -30 -12 -57 -43 -77c-16 -10 -33 -15 -49 -15c-18 0 -32 5 -47 16s-30 33 -44 55z" />
    <glyph glyph-name="Eacute" unicode="&#xc9;" horiz-adv-x="1203" 
d="M401 1232v-418h470c46 0 66 -2 88 -14c26 -15 44 -44 44 -82s-18 -67 -44 -82c-22 -12 -42 -14 -88 -14h-470v-430h572c46 0 66 -2 88 -14c26 -15 44 -44 44 -82s-18 -67 -44 -82c-22 -12 -42 -14 -88 -14h-656c-32 0 -70 0 -101 31s-31 69 -31 101v1160
c0 32 0 70 31 101s69 31 101 31h656c46 0 66 -2 88 -14c26 -15 44 -44 44 -82s-18 -67 -44 -82c-22 -12 -42 -14 -88 -14h-572zM830 1760l-93 -149c-14 -22 -29 -44 -44 -55s-29 -16 -47 -16c-16 0 -33 5 -49 15c-31 20 -45 47 -43 77c1 22 9 38 31 74l93 149
c14 22 29 44 44 55s29 16 47 16c16 0 33 -5 49 -15c31 -20 45 -47 43 -77c-1 -22 -9 -38 -31 -74z" />
    <glyph glyph-name="Ecircumflex" unicode="&#xca;" horiz-adv-x="1203" 
d="M401 1232v-418h470c46 0 66 -2 88 -14c26 -15 44 -44 44 -82s-18 -67 -44 -82c-22 -12 -42 -14 -88 -14h-470v-430h572c46 0 66 -2 88 -14c26 -15 44 -44 44 -82s-18 -67 -44 -82c-22 -12 -42 -14 -88 -14h-656c-32 0 -70 0 -101 31s-31 69 -31 101v1160
c0 32 0 70 31 101s69 31 101 31h656c46 0 66 -2 88 -14c26 -15 44 -44 44 -82s-18 -67 -44 -82c-22 -12 -42 -14 -88 -14h-572zM628 1913c40 0 66 -26 88 -48l166 -166c29 -29 38 -42 43 -61c8 -27 0 -55 -22 -77c-22 -21 -49 -30 -76 -22c-19 5 -33 14 -62 43l-137 138
l-137 -138c-29 -29 -43 -38 -62 -43c-27 -8 -54 1 -76 22c-22 22 -30 50 -22 77c5 19 14 32 43 61l166 166c22 22 48 48 88 48z" />
    <glyph glyph-name="Edieresis" unicode="&#xcb;" horiz-adv-x="1203" 
d="M401 1232v-418h470c46 0 66 -2 88 -14c26 -15 44 -44 44 -82s-18 -67 -44 -82c-22 -12 -42 -14 -88 -14h-470v-430h572c46 0 66 -2 88 -14c26 -15 44 -44 44 -82s-18 -67 -44 -82c-22 -12 -42 -14 -88 -14h-656c-32 0 -70 0 -101 31s-31 69 -31 101v1160
c0 32 0 70 31 101s69 31 101 31h656c46 0 66 -2 88 -14c26 -15 44 -44 44 -82s-18 -67 -44 -82c-22 -12 -42 -14 -88 -14h-572zM960 1678c0 -62 -50 -114 -112 -114s-114 52 -114 114s52 112 114 112s112 -50 112 -112zM522 1678c0 -62 -52 -114 -114 -114s-112 52 -112 114
s50 112 112 112s114 -50 114 -112z" />
    <glyph glyph-name="Igrave" unicode="&#xcc;" horiz-adv-x="586" 
d="M401 139c0 -53 -1 -70 -16 -98c-16 -29 -49 -49 -92 -49s-76 20 -92 49c-15 28 -16 45 -16 98v1146c0 53 1 70 16 98c16 29 49 49 92 49s76 -20 92 -49c15 -28 16 -45 16 -98v-1146zM185 1611l-93 149c-22 36 -30 52 -31 74c-2 30 12 57 43 77c16 10 33 15 49 15
c18 0 32 -5 47 -16s30 -33 44 -55l93 -149c22 -36 30 -52 31 -74c2 -30 -12 -57 -43 -77c-16 -10 -33 -15 -49 -15c-18 0 -32 5 -47 16s-30 33 -44 55z" />
    <glyph glyph-name="Iacute" unicode="&#xcd;" horiz-adv-x="586" 
d="M401 139c0 -53 -1 -70 -16 -98c-16 -29 -49 -49 -92 -49s-76 20 -92 49c-15 28 -16 45 -16 98v1146c0 53 1 70 16 98c16 29 49 49 92 49s76 -20 92 -49c15 -28 16 -45 16 -98v-1146zM496 1760l-93 -149c-14 -22 -29 -44 -44 -55s-29 -16 -47 -16c-16 0 -33 5 -49 15
c-31 20 -45 47 -43 77c1 22 9 38 31 74l93 149c14 22 29 44 44 55s29 16 47 16c16 0 33 -5 49 -15c31 -20 45 -47 43 -77c-1 -22 -9 -38 -31 -74z" />
    <glyph glyph-name="Icircumflex" unicode="&#xce;" horiz-adv-x="586" 
d="M401 139c0 -53 -1 -70 -16 -98c-16 -29 -49 -49 -92 -49s-76 20 -92 49c-15 28 -16 45 -16 98v1146c0 53 1 70 16 98c16 29 49 49 92 49s76 -20 92 -49c15 -28 16 -45 16 -98v-1146zM294 1913c40 0 66 -26 88 -48l166 -166c29 -29 38 -42 43 -61c8 -27 0 -55 -22 -77
c-22 -21 -49 -30 -76 -22c-19 5 -33 14 -62 43l-137 138l-137 -138c-29 -29 -43 -38 -62 -43c-27 -8 -54 1 -76 22c-22 22 -30 50 -22 77c5 19 14 32 43 61l166 166c22 22 48 48 88 48z" />
    <glyph glyph-name="Idieresis" unicode="&#xcf;" horiz-adv-x="586" 
d="M606 1688c0 -62 -50 -114 -112 -114s-114 52 -114 114s52 112 114 112s112 -50 112 -112zM210 1688c0 -62 -52 -114 -114 -114s-112 52 -112 114s50 112 112 112s114 -50 114 -112zM401 139c0 -53 -1 -70 -16 -98c-16 -29 -49 -49 -92 -49s-76 20 -92 49
c-15 28 -16 45 -16 98v1146c0 53 1 70 16 98c16 29 49 49 92 49s76 -20 92 -49c15 -28 16 -45 16 -98v-1146z" />
    <glyph glyph-name="Eth" unicode="&#xd0;" horiz-adv-x="1372" 
d="M165 632c-41 0 -59 2 -78 13c-24 14 -39 40 -39 73s15 59 39 73c19 11 37 13 78 13h60v488c0 32 0 70 31 101s69 31 101 31h369c179 0 310 -60 406 -181c100 -128 105 -278 105 -531s-7 -405 -107 -533c-95 -122 -225 -179 -404 -179h-369c-32 0 -70 0 -101 31
s-31 69 -31 101v500h-60zM441 1232v-428h180c42 0 60 -2 79 -13c24 -14 39 -40 39 -73s-15 -59 -39 -73c-19 -11 -37 -13 -79 -13h-180v-440h260c103 0 185 28 245 97c71 80 75 212 75 423s-4 343 -75 423c-60 69 -142 97 -245 97h-260z" />
    <glyph glyph-name="Ntilde" unicode="&#xd1;" horiz-adv-x="1443" 
d="M401 1000v-861c0 -53 -1 -70 -16 -98c-16 -29 -49 -49 -92 -49s-76 20 -92 49c-15 28 -16 45 -16 98v1155c0 47 7 80 31 104c22 22 49 34 82 34c51 0 83 -31 126 -95l618 -913v861c0 53 1 70 16 98c16 29 49 49 92 49s76 -20 92 -49c15 -28 16 -45 16 -98v-1156
c0 -47 -7 -79 -31 -103c-22 -22 -49 -34 -82 -34c-51 0 -83 31 -126 95zM702 1619c-39 22 -67 37 -107 37c-31 0 -52 -5 -88 -34c-20 -16 -40 -26 -59 -26s-39 6 -54 23c-12 14 -17 31 -17 52c0 23 14 50 46 77c63 52 112 62 167 62c59 0 94 -13 150 -45
c39 -22 67 -37 107 -37c31 0 52 5 88 34c20 16 40 26 59 26s39 -6 54 -23c12 -14 17 -31 17 -52c0 -23 -14 -50 -46 -77c-63 -52 -112 -62 -167 -62c-59 0 -94 13 -150 45z" />
    <glyph glyph-name="Ograve" unicode="&#xd2;" horiz-adv-x="1294" 
d="M278 133c-138 138 -143 280 -143 579s5 441 143 579c92 92 212 145 369 145c156 0 276 -53 368 -145c138 -138 144 -280 144 -579s-6 -441 -144 -579c-92 -92 -212 -145 -368 -145c-157 0 -277 53 -369 145zM435 270c52 -56 125 -90 212 -90c86 0 159 34 212 90
c70 75 84 160 84 442s-14 368 -84 443c-53 56 -126 89 -212 89c-87 0 -160 -33 -212 -89c-71 -75 -84 -161 -84 -443s13 -367 84 -442zM537 1611l-93 149c-22 36 -30 52 -31 74c-2 30 12 57 43 77c16 10 33 15 49 15c18 0 32 -5 47 -16s30 -33 44 -55l93 -149
c22 -36 30 -52 31 -74c2 -30 -12 -57 -43 -77c-16 -10 -33 -15 -49 -15c-18 0 -32 5 -47 16s-30 33 -44 55z" />
    <glyph glyph-name="Oacute" unicode="&#xd3;" horiz-adv-x="1294" 
d="M278 133c-138 138 -143 280 -143 579s5 441 143 579c92 92 212 145 369 145c156 0 276 -53 368 -145c138 -138 144 -280 144 -579s-6 -441 -144 -579c-92 -92 -212 -145 -368 -145c-157 0 -277 53 -369 145zM435 270c52 -56 125 -90 212 -90c86 0 159 34 212 90
c70 75 84 160 84 442s-14 368 -84 443c-53 56 -126 89 -212 89c-87 0 -160 -33 -212 -89c-71 -75 -84 -161 -84 -443s13 -367 84 -442zM848 1760l-93 -149c-14 -22 -29 -44 -44 -55s-29 -16 -47 -16c-16 0 -33 5 -49 15c-31 20 -45 47 -43 77c1 22 9 38 31 74l93 149
c14 22 29 44 44 55s29 16 47 16c16 0 33 -5 49 -15c31 -20 45 -47 43 -77c-1 -22 -9 -38 -31 -74z" />
    <glyph glyph-name="Ocircumflex" unicode="&#xd4;" horiz-adv-x="1294" 
d="M278 133c-138 138 -143 280 -143 579s5 441 143 579c92 92 212 145 369 145c156 0 276 -53 368 -145c138 -138 144 -280 144 -579s-6 -441 -144 -579c-92 -92 -212 -145 -368 -145c-157 0 -277 53 -369 145zM435 270c52 -56 125 -90 212 -90c86 0 159 34 212 90
c70 75 84 160 84 442s-14 368 -84 443c-53 56 -126 89 -212 89c-87 0 -160 -33 -212 -89c-71 -75 -84 -161 -84 -443s13 -367 84 -442zM646 1913c40 0 66 -26 88 -48l166 -166c29 -29 38 -42 43 -61c8 -27 0 -55 -22 -77c-22 -21 -49 -30 -76 -22c-19 5 -33 14 -62 43
l-137 138l-137 -138c-29 -29 -43 -38 -62 -43c-27 -8 -54 1 -76 22c-22 22 -30 50 -22 77c5 19 14 32 43 61l166 166c22 22 48 48 88 48z" />
    <glyph glyph-name="Otilde" unicode="&#xd5;" horiz-adv-x="1294" 
d="M278 133c-138 138 -143 280 -143 579s5 441 143 579c92 92 212 145 369 145c156 0 276 -53 368 -145c138 -138 144 -280 144 -579s-6 -441 -144 -579c-92 -92 -212 -145 -368 -145c-157 0 -277 53 -369 145zM435 270c52 -56 125 -90 212 -90c86 0 159 34 212 90
c70 75 84 160 84 442s-14 368 -84 443c-53 56 -126 89 -212 89c-87 0 -160 -33 -212 -89c-71 -75 -84 -161 -84 -443s13 -367 84 -442zM627 1619c-39 22 -67 37 -107 37c-31 0 -52 -5 -88 -34c-20 -16 -40 -26 -59 -26s-39 6 -54 23c-12 14 -17 31 -17 52c0 23 14 50 46 77
c63 52 112 62 167 62c59 0 94 -13 150 -45c39 -22 67 -37 107 -37c31 0 52 5 88 34c20 16 40 26 59 26s39 -6 54 -23c12 -14 17 -31 17 -52c0 -23 -14 -50 -46 -77c-63 -52 -112 -62 -167 -62c-59 0 -94 13 -150 45z" />
    <glyph glyph-name="Odieresis" unicode="&#xd6;" horiz-adv-x="1294" 
d="M278 133c-138 138 -143 280 -143 579s5 441 143 579c92 92 212 145 369 145c156 0 276 -53 368 -145c138 -138 144 -280 144 -579s-6 -441 -144 -579c-92 -92 -212 -145 -368 -145c-157 0 -277 53 -369 145zM435 270c52 -56 125 -90 212 -90c86 0 159 34 212 90
c70 75 84 160 84 442s-14 368 -84 443c-53 56 -126 89 -212 89c-87 0 -160 -33 -212 -89c-71 -75 -84 -161 -84 -443s13 -367 84 -442zM978 1678c0 -62 -50 -114 -112 -114s-114 52 -114 114s52 112 114 112s112 -50 112 -112zM540 1678c0 -62 -52 -114 -114 -114
s-112 52 -112 114s50 112 112 112s114 -50 114 -112z" />
    <glyph glyph-name="multiply" unicode="&#xd7;" horiz-adv-x="1066" 
d="M398 555l-194 193c-34 34 -45 50 -51 72c-8 30 0 61 26 87s59 35 89 27c22 -6 37 -17 71 -51l194 -193l194 193c34 34 49 45 71 51c30 8 63 -1 89 -27s34 -57 26 -87c-6 -22 -17 -38 -51 -72l-194 -193l194 -194c34 -34 45 -50 51 -72c8 -30 0 -61 -26 -87
s-59 -35 -89 -27c-22 6 -37 17 -71 51l-194 194l-194 -194c-34 -34 -49 -45 -71 -51c-30 -8 -63 1 -89 27s-34 57 -26 87c6 22 17 38 51 72z" />
    <glyph glyph-name="Oslash" unicode="&#xd8;" horiz-adv-x="1294" 
d="M1054 1370l-39 -79c138 -138 144 -280 144 -579s-6 -441 -144 -579c-92 -92 -212 -145 -368 -145c-88 0 -163 17 -230 51l-29 -60c-18 -36 -30 -52 -47 -63c-22 -15 -50 -17 -80 -2c-28 14 -45 39 -45 69c0 20 5 35 23 71l40 79c-138 138 -144 280 -144 579
s5 441 143 579c92 92 212 145 369 145c88 0 162 -19 228 -50l30 59c18 36 30 52 47 63c22 15 50 17 80 2c28 -14 45 -39 45 -69c0 -20 -5 -35 -23 -71zM351 712c0 -192 4 -284 52 -359l403 846c-45 29 -100 45 -159 45c-87 0 -160 -33 -212 -89c-71 -75 -84 -161 -84 -443z
M487 226c46 -30 100 -46 160 -46c86 0 159 34 212 90c70 75 84 160 84 442c0 191 -5 284 -53 358z" />
    <glyph glyph-name="Ugrave" unicode="&#xd9;" horiz-adv-x="1346" 
d="M673 -12c-290 0 -510 198 -510 492v805c0 53 1 70 16 98c16 29 49 49 92 49s76 -20 92 -49c15 -28 16 -45 16 -98v-795c0 -191 116 -310 294 -310s294 119 294 310v795c0 53 1 70 16 98c16 29 49 49 92 49s76 -20 92 -49c15 -28 16 -45 16 -98v-805
c0 -294 -220 -492 -510 -492zM564 1611l-93 149c-22 36 -30 52 -31 74c-2 30 12 57 43 77c16 10 33 15 49 15c18 0 32 -5 47 -16s30 -33 44 -55l93 -149c22 -36 30 -52 31 -74c2 -30 -12 -57 -43 -77c-16 -10 -33 -15 -49 -15c-18 0 -32 5 -47 16s-30 33 -44 55z" />
    <glyph glyph-name="Uacute" unicode="&#xda;" horiz-adv-x="1346" 
d="M673 -12c-290 0 -510 198 -510 492v805c0 53 1 70 16 98c16 29 49 49 92 49s76 -20 92 -49c15 -28 16 -45 16 -98v-795c0 -191 116 -310 294 -310s294 119 294 310v795c0 53 1 70 16 98c16 29 49 49 92 49s76 -20 92 -49c15 -28 16 -45 16 -98v-805
c0 -294 -220 -492 -510 -492zM875 1760l-93 -149c-14 -22 -29 -44 -44 -55s-29 -16 -47 -16c-16 0 -33 5 -49 15c-31 20 -45 47 -43 77c1 22 9 38 31 74l93 149c14 22 29 44 44 55s29 16 47 16c16 0 33 -5 49 -15c31 -20 45 -47 43 -77c-1 -22 -9 -38 -31 -74z" />
    <glyph glyph-name="Ucircumflex" unicode="&#xdb;" horiz-adv-x="1346" 
d="M673 -12c-290 0 -510 198 -510 492v805c0 53 1 70 16 98c16 29 49 49 92 49s76 -20 92 -49c15 -28 16 -45 16 -98v-795c0 -191 116 -310 294 -310s294 119 294 310v795c0 53 1 70 16 98c16 29 49 49 92 49s76 -20 92 -49c15 -28 16 -45 16 -98v-805
c0 -294 -220 -492 -510 -492zM673 1913c40 0 66 -26 88 -48l166 -166c29 -29 38 -42 43 -61c8 -27 0 -55 -22 -77c-22 -21 -49 -30 -76 -22c-19 5 -33 14 -62 43l-137 138l-137 -138c-29 -29 -43 -38 -62 -43c-27 -8 -54 1 -76 22c-22 22 -30 50 -22 77c5 19 14 32 43 61
l166 166c22 22 48 48 88 48z" />
    <glyph glyph-name="Udieresis" unicode="&#xdc;" horiz-adv-x="1346" 
d="M673 -12c-290 0 -510 198 -510 492v805c0 53 1 70 16 98c16 29 49 49 92 49s76 -20 92 -49c15 -28 16 -45 16 -98v-795c0 -191 116 -310 294 -310s294 119 294 310v795c0 53 1 70 16 98c16 29 49 49 92 49s76 -20 92 -49c15 -28 16 -45 16 -98v-805
c0 -294 -220 -492 -510 -492zM1005 1678c0 -62 -50 -114 -112 -114s-114 52 -114 114s52 112 114 112s112 -50 112 -112zM567 1678c0 -62 -52 -114 -114 -114s-112 52 -112 114s50 112 112 112s114 -50 114 -112z" />
    <glyph glyph-name="Yacute" unicode="&#xdd;" horiz-adv-x="1046" 
d="M44 1340c1 31 20 62 56 80c16 8 35 12 51 12c18 0 34 -5 49 -15c21 -15 31 -31 53 -75l270 -541l270 541c22 44 32 60 53 75c15 10 31 15 49 15c16 0 35 -4 51 -12c36 -18 55 -49 56 -80c1 -26 -5 -45 -27 -89l-344 -684v-428c0 -53 -1 -70 -16 -98
c-16 -29 -49 -49 -92 -49s-76 20 -92 49c-15 28 -16 45 -16 98v428l-344 684c-22 44 -28 63 -27 89zM724 1760l-93 -149c-14 -22 -29 -44 -44 -55s-29 -16 -47 -16c-16 0 -33 5 -49 15c-31 20 -45 47 -43 77c1 22 9 38 31 74l93 149c14 22 29 44 44 55s29 16 47 16
c16 0 33 -5 49 -15c31 -20 45 -47 43 -77c-1 -22 -9 -38 -31 -74z" />
    <glyph glyph-name="Thorn" unicode="&#xde;" horiz-adv-x="1274" 
d="M401 1150h324c278 0 456 -184 456 -432s-178 -430 -456 -430h-324v-149c0 -53 -1 -70 -16 -98c-16 -29 -49 -49 -92 -49s-76 20 -92 49c-15 28 -16 45 -16 98v1146c0 53 1 70 16 98c16 29 49 49 92 49s76 -20 92 -49c15 -28 16 -45 16 -98v-135zM966 719
c0 151 -100 239 -253 239h-312v-478h312c153 0 253 88 253 239z" />
    <glyph glyph-name="germandbls" unicode="&#xdf;" horiz-adv-x="1128" 
d="M669 778c-34 1 -53 3 -71 13c-23 13 -36 36 -36 66s13 53 36 66c18 10 37 12 71 13c73 2 127 54 127 148c0 49 -19 93 -50 123c-35 34 -90 51 -164 51c-160 0 -216 -88 -216 -226v-901c0 -49 -3 -67 -15 -91c-14 -27 -43 -48 -87 -48s-73 21 -87 48c-12 24 -15 42 -15 91
v913c0 266 173 394 426 394c232 0 412 -107 412 -343c0 -117 -53 -187 -124 -232c85 -45 124 -101 124 -229v-343c0 -87 -27 -161 -80 -212c-51 -49 -117 -79 -211 -79h-20c-41 0 -68 6 -86 16c-24 13 -41 37 -41 71s17 59 41 72c18 10 41 13 74 14c34 1 66 12 86 34
c23 24 33 53 33 105v334c0 48 -10 77 -34 101c-21 21 -53 30 -93 31z" />
    <glyph glyph-name="agrave" unicode="&#xe0;" horiz-adv-x="1060" 
d="M83 298c0 170 121 294 351 294h269v63c0 133 -63 198 -212 198c-81 0 -135 -23 -194 -68c-26 -20 -55 -27 -74 -27c-21 0 -44 9 -59 27c-17 19 -24 36 -24 63c0 46 43 87 95 117c71 41 153 61 258 61c272 0 415 -119 415 -349v-546c0 -50 -2 -69 -15 -92
c-15 -28 -48 -47 -87 -47c-33 0 -58 12 -74 29c-12 14 -21 30 -23 73c-80 -78 -148 -105 -272 -105c-127 0 -212 29 -273 92c-52 53 -81 131 -81 217zM282 301c0 -92 62 -143 191 -143c73 0 133 8 185 58c32 30 45 76 45 151v80h-240c-120 0 -181 -52 -181 -146zM403 1250
l-93 149c-22 36 -30 52 -31 74c-2 30 12 57 43 77c16 10 33 15 49 15c18 0 32 -5 47 -16s30 -33 44 -55l93 -149c22 -36 30 -52 31 -74c2 -30 -12 -57 -43 -77c-16 -10 -33 -15 -49 -15c-18 0 -32 5 -47 16s-30 33 -44 55z" />
    <glyph glyph-name="aacute" unicode="&#xe1;" horiz-adv-x="1060" 
d="M83 298c0 170 121 294 351 294h269v63c0 133 -63 198 -212 198c-81 0 -135 -23 -194 -68c-26 -20 -55 -27 -74 -27c-21 0 -44 9 -59 27c-17 19 -24 36 -24 63c0 46 43 87 95 117c71 41 153 61 258 61c272 0 415 -119 415 -349v-546c0 -50 -2 -69 -15 -92
c-15 -28 -48 -47 -87 -47c-33 0 -58 12 -74 29c-12 14 -21 30 -23 73c-80 -78 -148 -105 -272 -105c-127 0 -212 29 -273 92c-52 53 -81 131 -81 217zM282 301c0 -92 62 -143 191 -143c73 0 133 8 185 58c32 30 45 76 45 151v80h-240c-120 0 -181 -52 -181 -146zM716 1399
l-93 -149c-14 -22 -29 -44 -44 -55s-29 -16 -47 -16c-16 0 -33 5 -49 15c-31 20 -45 47 -43 77c1 22 9 38 31 74l93 149c14 22 29 44 44 55s29 16 47 16c16 0 33 -5 49 -15c31 -20 45 -47 43 -77c-1 -22 -9 -38 -31 -74z" />
    <glyph glyph-name="acircumflex" unicode="&#xe2;" horiz-adv-x="1060" 
d="M83 298c0 170 121 294 351 294h269v63c0 133 -63 198 -212 198c-81 0 -135 -23 -194 -68c-26 -20 -55 -27 -74 -27c-21 0 -44 9 -59 27c-17 19 -24 36 -24 63c0 46 43 87 95 117c71 41 153 61 258 61c272 0 415 -119 415 -349v-546c0 -50 -2 -69 -15 -92
c-15 -28 -48 -47 -87 -47c-33 0 -58 12 -74 29c-12 14 -21 30 -23 73c-80 -78 -148 -105 -272 -105c-127 0 -212 29 -273 92c-52 53 -81 131 -81 217zM282 301c0 -92 62 -143 191 -143c73 0 133 8 185 58c32 30 45 76 45 151v80h-240c-120 0 -181 -52 -181 -146zM513 1548
c40 0 66 -26 88 -48l166 -166c29 -29 38 -42 43 -61c8 -27 0 -55 -22 -77c-22 -21 -49 -30 -76 -22c-19 5 -33 14 -62 43l-137 138l-137 -138c-29 -29 -43 -38 -62 -43c-27 -8 -54 1 -76 22c-22 22 -30 50 -22 77c5 19 14 32 43 61l166 166c22 22 48 48 88 48z" />
    <glyph glyph-name="atilde" unicode="&#xe3;" horiz-adv-x="1060" 
d="M83 298c0 170 121 294 351 294h269v63c0 133 -63 198 -212 198c-81 0 -135 -23 -194 -68c-26 -20 -55 -27 -74 -27c-21 0 -44 9 -59 27c-17 19 -24 36 -24 63c0 46 43 87 95 117c71 41 153 61 258 61c272 0 415 -119 415 -349v-546c0 -50 -2 -69 -15 -92
c-15 -28 -48 -47 -87 -47c-33 0 -58 12 -74 29c-12 14 -21 30 -23 73c-80 -78 -148 -105 -272 -105c-127 0 -212 29 -273 92c-52 53 -81 131 -81 217zM282 301c0 -92 62 -143 191 -143c73 0 133 8 185 58c32 30 45 76 45 151v80h-240c-120 0 -181 -52 -181 -146zM494 1261
c-39 22 -67 37 -107 37c-31 0 -52 -5 -88 -34c-20 -16 -40 -26 -59 -26s-39 6 -54 23c-12 14 -17 31 -17 52c0 23 14 50 46 77c63 52 112 62 167 62c59 0 94 -13 150 -45c39 -22 67 -37 107 -37c31 0 52 5 88 34c20 16 40 26 59 26s39 -6 54 -23c12 -14 17 -31 17 -52
c0 -23 -14 -50 -46 -77c-63 -52 -112 -62 -167 -62c-59 0 -94 13 -150 45z" />
    <glyph glyph-name="adieresis" unicode="&#xe4;" horiz-adv-x="1060" 
d="M83 298c0 170 121 294 351 294h269v63c0 133 -63 198 -212 198c-81 0 -135 -23 -194 -68c-26 -20 -55 -27 -74 -27c-21 0 -44 9 -59 27c-17 19 -24 36 -24 63c0 46 43 87 95 117c71 41 153 61 258 61c272 0 415 -119 415 -349v-546c0 -50 -2 -69 -15 -92
c-15 -28 -48 -47 -87 -47c-33 0 -58 12 -74 29c-12 14 -21 30 -23 73c-80 -78 -148 -105 -272 -105c-127 0 -212 29 -273 92c-52 53 -81 131 -81 217zM282 301c0 -92 62 -143 191 -143c73 0 133 8 185 58c32 30 45 76 45 151v80h-240c-120 0 -181 -52 -181 -146zM847 1314
c0 -62 -50 -114 -112 -114s-114 52 -114 114s52 112 114 112s112 -50 112 -112zM407 1314c0 -62 -52 -114 -114 -114s-112 52 -112 114s50 112 112 112s114 -50 114 -112z" />
    <glyph glyph-name="aring" unicode="&#xe5;" horiz-adv-x="1060" 
d="M83 298c0 170 121 294 351 294h269v63c0 133 -63 198 -212 198c-81 0 -135 -23 -194 -68c-26 -20 -55 -27 -74 -27c-21 0 -44 9 -59 27c-17 19 -24 36 -24 63c0 46 43 87 95 117c71 41 153 61 258 61c272 0 415 -119 415 -349v-546c0 -50 -2 -69 -15 -92
c-15 -28 -48 -47 -87 -47c-33 0 -58 12 -74 29c-12 14 -21 30 -23 73c-80 -78 -148 -105 -272 -105c-127 0 -212 29 -273 92c-52 53 -81 131 -81 217zM282 301c0 -92 62 -143 191 -143c73 0 133 8 185 58c32 30 45 76 45 151v80h-240c-120 0 -181 -52 -181 -146zM263 1402
c0 138 112 250 250 250s250 -112 250 -250s-112 -250 -250 -250s-250 112 -250 250zM386 1402c0 -70 57 -127 127 -127s127 57 127 127s-57 127 -127 127s-127 -57 -127 -127z" />
    <glyph glyph-name="ae" unicode="&#xe6;" horiz-adv-x="1668" 
d="M282 301c0 -92 62 -143 191 -143c73 0 133 8 185 58c32 30 45 76 45 151v80h-240c-120 0 -181 -52 -181 -146zM1361 590c-4 62 -8 94 -28 138c-34 76 -104 128 -200 128c-98 0 -168 -52 -202 -128c-20 -44 -24 -76 -26 -138h456zM1133 1027c265 -1 423 -194 429 -462
c1 -30 -3 -66 -28 -91c-26 -26 -60 -26 -90 -26h-539c0 -173 91 -286 260 -286c71 0 140 20 195 64c31 25 57 37 83 37c41 0 84 -40 84 -87s-52 -91 -102 -123c-64 -42 -156 -65 -265 -65c-152 0 -278 46 -361 157c-102 -125 -205 -156 -362 -156c-127 0 -212 29 -273 92
c-52 53 -81 131 -81 217c0 170 121 294 351 294h269v63c0 133 -63 198 -212 198c-81 0 -135 -23 -194 -68c-26 -20 -55 -27 -74 -27c-21 0 -44 9 -59 27c-17 19 -24 36 -24 63c0 46 43 87 95 117c71 41 153 62 258 62c162 0 276 -46 339 -133c71 87 175 133 301 133z" />
    <glyph glyph-name="ccedilla" unicode="&#xe7;" horiz-adv-x="969" 
d="M110 507c0 380 220 519 450 519c91 0 154 -20 222 -64c53 -34 99 -70 99 -122c0 -25 -11 -48 -29 -67c-15 -15 -39 -26 -63 -26c-27 0 -47 11 -81 39c-51 41 -92 56 -148 56c-80 0 -141 -29 -185 -87s-61 -130 -61 -248c0 -117 17 -190 61 -247c44 -59 105 -88 185 -88
c56 0 97 17 148 57c34 27 54 39 81 39c24 0 48 -12 63 -27c18 -19 29 -41 29 -67c0 -51 -48 -89 -99 -122c-64 -41 -129 -64 -222 -64c-230 0 -450 139 -450 519zM375 -478c-31 19 -46 47 -44 77c1 22 9 38 32 74l93 149c14 22 28 44 44 55c15 11 29 16 47 16
c16 0 33 -5 49 -15c31 -20 45 -47 43 -77c-1 -22 -9 -38 -31 -74l-93 -149c-15 -24 -28 -44 -44 -56c-15 -10 -29 -15 -47 -15c-17 0 -34 5 -49 15z" />
    <glyph glyph-name="egrave" unicode="&#xe8;" horiz-adv-x="1075" 
d="M110 507c0 334 171 519 430 519c265 0 423 -193 429 -461c1 -30 -3 -66 -28 -91c-26 -26 -60 -26 -90 -26h-539c0 -173 91 -286 260 -286c71 0 140 20 195 64c31 25 57 37 83 37c41 0 84 -40 84 -87s-52 -91 -102 -123c-64 -42 -156 -65 -265 -65
c-253 0 -457 133 -457 519zM768 590c-4 62 -8 94 -28 138c-34 76 -104 128 -200 128c-98 0 -168 -52 -202 -128c-20 -44 -24 -76 -26 -138h456zM432 1250l-93 149c-22 36 -30 52 -31 74c-2 30 12 57 43 77c16 10 33 15 49 15c18 0 32 -5 47 -16s30 -33 44 -55l93 -149
c22 -36 30 -52 31 -74c2 -30 -12 -57 -43 -77c-16 -10 -33 -15 -49 -15c-18 0 -32 5 -47 16s-30 33 -44 55z" />
    <glyph glyph-name="eacute" unicode="&#xe9;" horiz-adv-x="1075" 
d="M110 507c0 334 171 519 430 519c265 0 423 -193 429 -461c1 -30 -3 -66 -28 -91c-26 -26 -60 -26 -90 -26h-539c0 -173 91 -286 260 -286c71 0 140 20 195 64c31 25 57 37 83 37c41 0 84 -40 84 -87s-52 -91 -102 -123c-64 -42 -156 -65 -265 -65
c-253 0 -457 133 -457 519zM768 590c-4 62 -8 94 -28 138c-34 76 -104 128 -200 128c-98 0 -168 -52 -202 -128c-20 -44 -24 -76 -26 -138h456zM745 1399l-93 -149c-14 -22 -29 -44 -44 -55s-29 -16 -47 -16c-16 0 -33 5 -49 15c-31 20 -45 47 -43 77c1 22 9 38 31 74
l93 149c14 22 29 44 44 55s29 16 47 16c16 0 33 -5 49 -15c31 -20 45 -47 43 -77c-1 -22 -9 -38 -31 -74z" />
    <glyph glyph-name="ecircumflex" unicode="&#xea;" horiz-adv-x="1075" 
d="M110 507c0 334 171 519 430 519c265 0 423 -193 429 -461c1 -30 -3 -66 -28 -91c-26 -26 -60 -26 -90 -26h-539c0 -173 91 -286 260 -286c71 0 140 20 195 64c31 25 57 37 83 37c41 0 84 -40 84 -87s-52 -91 -102 -123c-64 -42 -156 -65 -265 -65
c-253 0 -457 133 -457 519zM768 590c-4 62 -8 94 -28 138c-34 76 -104 128 -200 128c-98 0 -168 -52 -202 -128c-20 -44 -24 -76 -26 -138h456zM542 1548c40 0 66 -26 88 -48l166 -166c29 -29 38 -42 43 -61c8 -27 0 -55 -22 -77c-22 -21 -49 -30 -76 -22
c-19 5 -33 14 -62 43l-137 138l-137 -138c-29 -29 -43 -38 -62 -43c-27 -8 -54 1 -76 22c-22 22 -30 50 -22 77c5 19 14 32 43 61l166 166c22 22 48 48 88 48z" />
    <glyph glyph-name="edieresis" unicode="&#xeb;" horiz-adv-x="1075" 
d="M110 507c0 334 171 519 430 519c265 0 423 -193 429 -461c1 -30 -3 -66 -28 -91c-26 -26 -60 -26 -90 -26h-539c0 -173 91 -286 260 -286c71 0 140 20 195 64c31 25 57 37 83 37c41 0 84 -40 84 -87s-52 -91 -102 -123c-64 -42 -156 -65 -265 -65
c-253 0 -457 133 -457 519zM768 590c-4 62 -8 94 -28 138c-34 76 -104 128 -200 128c-98 0 -168 -52 -202 -128c-20 -44 -24 -76 -26 -138h456zM876 1314c0 -62 -50 -114 -112 -114s-114 52 -114 114s52 112 114 112s112 -50 112 -112zM436 1314c0 -62 -52 -114 -114 -114
s-112 52 -112 114s50 112 112 112s114 -50 114 -112z" />
    <glyph glyph-name="igrave" unicode="&#xec;" horiz-adv-x="528" 
d="M366 131c0 -49 -3 -67 -15 -91c-14 -27 -43 -48 -87 -48s-73 21 -87 48c-12 24 -15 42 -15 91v752c0 49 3 67 15 91c14 27 43 48 87 48s73 -21 87 -48c12 -24 15 -42 15 -91v-752zM155 1250l-93 149c-22 36 -30 52 -31 74c-2 30 12 57 43 77c16 10 33 15 49 15
c18 0 32 -5 47 -16s30 -33 44 -55l93 -149c22 -36 30 -52 31 -74c2 -30 -12 -57 -43 -77c-16 -10 -33 -15 -49 -15c-18 0 -32 5 -47 16s-30 33 -44 55z" />
    <glyph glyph-name="iacute" unicode="&#xed;" horiz-adv-x="528" 
d="M366 131c0 -49 -3 -67 -15 -91c-14 -27 -43 -48 -87 -48s-73 21 -87 48c-12 24 -15 42 -15 91v752c0 49 3 67 15 91c14 27 43 48 87 48s73 -21 87 -48c12 -24 15 -42 15 -91v-752zM468 1399l-93 -149c-14 -22 -29 -44 -44 -55s-29 -16 -47 -16c-16 0 -33 5 -49 15
c-31 20 -45 47 -43 77c1 22 9 38 31 74l93 149c14 22 29 44 44 55s29 16 47 16c16 0 33 -5 49 -15c31 -20 45 -47 43 -77c-1 -22 -9 -38 -31 -74z" />
    <glyph glyph-name="icircumflex" unicode="&#xee;" horiz-adv-x="528" 
d="M366 131c0 -49 -3 -67 -15 -91c-14 -27 -43 -48 -87 -48s-73 21 -87 48c-12 24 -15 42 -15 91v752c0 49 3 67 15 91c14 27 43 48 87 48s73 -21 87 -48c12 -24 15 -42 15 -91v-752zM265 1548c40 0 66 -26 88 -48l166 -166c29 -29 38 -42 43 -61c8 -27 0 -55 -22 -77
c-22 -21 -49 -30 -76 -22c-19 5 -33 14 -62 43l-137 138l-137 -138c-29 -29 -43 -38 -62 -43c-27 -8 -54 1 -76 22c-22 22 -30 50 -22 77c5 19 14 32 43 61l166 166c22 22 48 48 88 48z" />
    <glyph glyph-name="idieresis" unicode="&#xef;" horiz-adv-x="528" 
d="M573 1314c0 -62 -50 -114 -112 -114s-114 52 -114 114s52 112 114 112s112 -50 112 -112zM181 1314c0 -62 -52 -114 -114 -114s-112 52 -112 114s50 112 112 112s114 -50 114 -112zM366 131c0 -49 -3 -67 -15 -91c-14 -27 -43 -48 -87 -48s-73 21 -87 48
c-12 24 -15 42 -15 91v752c0 49 3 67 15 91c14 27 43 48 87 48s73 -21 87 -48c12 -24 15 -42 15 -91v-752z" />
    <glyph glyph-name="eth" unicode="&#xf0;" horiz-adv-x="1074" 
d="M952 498c0 -168 -19 -287 -118 -392c-64 -68 -164 -118 -298 -118s-232 50 -296 118c-99 105 -118 224 -118 392s22 294 118 392c50 52 122 88 208 102c22 4 44 6 68 6c28 0 58 -4 84 -10l-70 139h-161c-38 0 -55 2 -72 12c-23 13 -36 36 -36 66c0 31 13 54 36 67
c17 10 34 12 72 12h83c-15 31 -19 47 -19 68c0 51 48 90 96 90c18 0 34 -5 48 -15c19 -14 31 -29 52 -71l36 -72h108c38 0 54 -2 71 -12c23 -13 36 -36 36 -67c0 -30 -13 -53 -36 -66c-17 -10 -33 -12 -71 -12h-28l85 -165c97 -191 122 -278 122 -464zM748 498
c0 106 -6 208 -66 270c-36 36 -88 58 -146 58s-108 -22 -144 -58c-60 -62 -66 -164 -66 -270c0 -107 6 -210 66 -272c36 -36 86 -58 144 -58s110 22 146 58c60 62 66 165 66 272z" />
    <glyph glyph-name="ntilde" unicode="&#xf1;" horiz-adv-x="1136" 
d="M366 618v-487c0 -49 -3 -67 -15 -91c-14 -27 -43 -48 -87 -48s-73 21 -87 48c-12 24 -15 42 -15 91v751c0 56 4 74 18 97c17 27 50 43 84 43c33 0 64 -13 83 -40c10 -15 16 -30 18 -67c70 74 166 111 267 111c104 0 190 -34 250 -92c78 -76 102 -172 102 -286v-517
c0 -49 -3 -67 -15 -91c-14 -27 -43 -48 -87 -48s-73 21 -87 48c-12 24 -15 42 -15 91v487c0 158 -90 224 -204 224s-210 -68 -210 -224zM557 1261c-39 22 -67 37 -107 37c-31 0 -52 -5 -88 -34c-20 -16 -40 -26 -59 -26s-39 6 -54 23c-12 14 -17 31 -17 52c0 23 14 50 46 77
c63 52 112 62 167 62c59 0 94 -13 150 -45c39 -22 67 -37 107 -37c31 0 52 5 88 34c20 16 40 26 59 26s39 -6 54 -23c12 -14 17 -31 17 -52c0 -23 -14 -50 -46 -77c-63 -52 -112 -62 -167 -62c-59 0 -94 13 -150 45z" />
    <glyph glyph-name="ograve" unicode="&#xf2;" horiz-adv-x="1074" 
d="M319 507c0 -111 9 -216 70 -277c38 -39 86 -58 148 -58s110 19 148 58c61 61 70 166 70 277s-9 215 -70 277c-38 39 -86 58 -148 58s-110 -19 -148 -58c-61 -62 -70 -166 -70 -277zM115 507c0 171 20 297 119 399c66 68 165 120 303 120s237 -52 303 -120
c98 -102 119 -228 119 -399s-21 -297 -119 -399c-66 -68 -165 -120 -303 -120s-237 52 -303 120c-99 102 -119 228 -119 399zM428 1250l-93 149c-22 36 -30 52 -31 74c-2 30 12 57 43 77c16 10 33 15 49 15c18 0 32 -5 47 -16s30 -33 44 -55l93 -149c22 -36 30 -52 31 -74
c2 -30 -12 -57 -43 -77c-16 -10 -33 -15 -49 -15c-18 0 -32 5 -47 16s-30 33 -44 55z" />
    <glyph glyph-name="oacute" unicode="&#xf3;" horiz-adv-x="1074" 
d="M319 507c0 -111 9 -216 70 -277c38 -39 86 -58 148 -58s110 19 148 58c61 61 70 166 70 277s-9 215 -70 277c-38 39 -86 58 -148 58s-110 -19 -148 -58c-61 -62 -70 -166 -70 -277zM115 507c0 171 20 297 119 399c66 68 165 120 303 120s237 -52 303 -120
c98 -102 119 -228 119 -399s-21 -297 -119 -399c-66 -68 -165 -120 -303 -120s-237 52 -303 120c-99 102 -119 228 -119 399zM741 1399l-93 -149c-14 -22 -29 -44 -44 -55s-29 -16 -47 -16c-16 0 -33 5 -49 15c-31 20 -45 47 -43 77c1 22 9 38 31 74l93 149
c14 22 29 44 44 55s29 16 47 16c16 0 33 -5 49 -15c31 -20 45 -47 43 -77c-1 -22 -9 -38 -31 -74z" />
    <glyph glyph-name="ocircumflex" unicode="&#xf4;" horiz-adv-x="1074" 
d="M319 507c0 -111 9 -216 70 -277c38 -39 86 -58 148 -58s110 19 148 58c61 61 70 166 70 277s-9 215 -70 277c-38 39 -86 58 -148 58s-110 -19 -148 -58c-61 -62 -70 -166 -70 -277zM115 507c0 171 20 297 119 399c66 68 165 120 303 120s237 -52 303 -120
c98 -102 119 -228 119 -399s-21 -297 -119 -399c-66 -68 -165 -120 -303 -120s-237 52 -303 120c-99 102 -119 228 -119 399zM538 1548c40 0 66 -26 88 -48l166 -166c29 -29 38 -42 43 -61c8 -27 0 -55 -22 -77c-22 -21 -49 -30 -76 -22c-19 5 -33 14 -62 43l-137 138
l-137 -138c-29 -29 -43 -38 -62 -43c-27 -8 -54 1 -76 22c-22 22 -30 50 -22 77c5 19 14 32 43 61l166 166c22 22 48 48 88 48z" />
    <glyph glyph-name="otilde" unicode="&#xf5;" horiz-adv-x="1074" 
d="M319 507c0 -111 9 -216 70 -277c38 -39 86 -58 148 -58s110 19 148 58c61 61 70 166 70 277s-9 215 -70 277c-38 39 -86 58 -148 58s-110 -19 -148 -58c-61 -62 -70 -166 -70 -277zM115 507c0 171 20 297 119 399c66 68 165 120 303 120s237 -52 303 -120
c98 -102 119 -228 119 -399s-21 -297 -119 -399c-66 -68 -165 -120 -303 -120s-237 52 -303 120c-99 102 -119 228 -119 399zM519 1261c-39 22 -67 37 -107 37c-31 0 -52 -5 -88 -34c-20 -16 -40 -26 -59 -26s-39 6 -54 23c-12 14 -17 31 -17 52c0 23 14 50 46 77
c63 52 112 62 167 62c59 0 94 -13 150 -45c39 -22 67 -37 107 -37c31 0 52 5 88 34c20 16 40 26 59 26s39 -6 54 -23c12 -14 17 -31 17 -52c0 -23 -14 -50 -46 -77c-63 -52 -112 -62 -167 -62c-59 0 -94 13 -150 45z" />
    <glyph glyph-name="odieresis" unicode="&#xf6;" horiz-adv-x="1074" 
d="M319 507c0 -111 9 -216 70 -277c38 -39 86 -58 148 -58s110 19 148 58c61 61 70 166 70 277s-9 215 -70 277c-38 39 -86 58 -148 58s-110 -19 -148 -58c-61 -62 -70 -166 -70 -277zM115 507c0 171 20 297 119 399c66 68 165 120 303 120s237 -52 303 -120
c98 -102 119 -228 119 -399s-21 -297 -119 -399c-66 -68 -165 -120 -303 -120s-237 52 -303 120c-99 102 -119 228 -119 399zM872 1314c0 -62 -50 -114 -112 -114s-114 52 -114 114s52 112 114 112s112 -50 112 -112zM432 1314c0 -62 -52 -114 -114 -114s-112 52 -112 114
s50 112 112 112s114 -50 114 -112z" />
    <glyph glyph-name="divide" unicode="&#xf7;" horiz-adv-x="1066" 
d="M679 169c0 -80 -66 -146 -146 -146s-146 66 -146 146s66 144 146 144s146 -64 146 -144zM679 943c0 -80 -66 -146 -146 -146s-146 66 -146 146s66 144 146 144s146 -64 146 -144zM847 464h-628c-44 0 -63 3 -83 14c-25 15 -42 43 -42 78s17 63 42 78c20 12 39 14 83 14
h628c44 0 63 -2 83 -14c25 -15 42 -43 42 -78s-17 -63 -42 -78c-20 -11 -39 -14 -83 -14z" />
    <glyph glyph-name="oslash" unicode="&#xf8;" horiz-adv-x="1074" 
d="M221 122c-83 95 -106 206 -106 386c0 170 23 298 119 398c66 68 164 120 302 120c78 0 144 -18 198 -45l40 68c20 33 31 47 51 55c21 8 41 8 64 -6c24 -14 38 -37 37 -63c-2 -17 -7 -31 -25 -61l-49 -82c86 -98 107 -222 107 -384c0 -172 -23 -300 -119 -400
c-66 -68 -166 -120 -304 -120c-79 0 -144 18 -198 45l-41 -69c-20 -33 -31 -47 -51 -55c-21 -8 -41 -8 -64 6c-25 15 -38 37 -36 63c1 17 6 31 24 61zM355 300l300 510c-33 21 -73 32 -118 32c-61 0 -112 -19 -150 -57c-62 -63 -68 -168 -68 -278c0 -72 2 -150 36 -207z
M718 716l-300 -510c33 -21 73 -34 118 -34c61 0 112 21 150 59c62 63 69 168 69 278c0 72 -3 150 -37 207z" />
    <glyph glyph-name="ugrave" unicode="&#xf9;" horiz-adv-x="1136" 
d="M770 396v487c0 49 3 67 15 91c14 27 43 48 87 48s73 -21 87 -48c12 -24 15 -42 15 -91v-751c0 -56 -4 -74 -18 -97c-17 -27 -50 -43 -84 -43c-33 0 -64 13 -83 40c-10 15 -16 30 -18 67c-70 -74 -166 -111 -267 -111c-104 0 -190 34 -250 92c-78 76 -102 172 -102 286
v517c0 49 3 67 15 91c14 27 43 48 87 48s73 -21 87 -48c12 -24 15 -42 15 -91v-487c0 -158 90 -224 204 -224s210 68 210 224zM451 1250l-93 149c-22 36 -30 52 -31 74c-2 30 12 57 43 77c16 10 33 15 49 15c18 0 32 -5 47 -16s30 -33 44 -55l93 -149c22 -36 30 -52 31 -74
c2 -30 -12 -57 -43 -77c-16 -10 -33 -15 -49 -15c-18 0 -32 5 -47 16s-30 33 -44 55z" />
    <glyph glyph-name="uacute" unicode="&#xfa;" horiz-adv-x="1136" 
d="M770 396v487c0 49 3 67 15 91c14 27 43 48 87 48s73 -21 87 -48c12 -24 15 -42 15 -91v-751c0 -56 -4 -74 -18 -97c-17 -27 -50 -43 -84 -43c-33 0 -64 13 -83 40c-10 15 -16 30 -18 67c-70 -74 -166 -111 -267 -111c-104 0 -190 34 -250 92c-78 76 -102 172 -102 286
v517c0 49 3 67 15 91c14 27 43 48 87 48s73 -21 87 -48c12 -24 15 -42 15 -91v-487c0 -158 90 -224 204 -224s210 68 210 224zM764 1399l-93 -149c-14 -22 -29 -44 -44 -55s-29 -16 -47 -16c-16 0 -33 5 -49 15c-31 20 -45 47 -43 77c1 22 9 38 31 74l93 149
c14 22 29 44 44 55s29 16 47 16c16 0 33 -5 49 -15c31 -20 45 -47 43 -77c-1 -22 -9 -38 -31 -74z" />
    <glyph glyph-name="ucircumflex" unicode="&#xfb;" horiz-adv-x="1136" 
d="M770 396v487c0 49 3 67 15 91c14 27 43 48 87 48s73 -21 87 -48c12 -24 15 -42 15 -91v-751c0 -56 -4 -74 -18 -97c-17 -27 -50 -43 -84 -43c-33 0 -64 13 -83 40c-10 15 -16 30 -18 67c-70 -74 -166 -111 -267 -111c-104 0 -190 34 -250 92c-78 76 -102 172 -102 286
v517c0 49 3 67 15 91c14 27 43 48 87 48s73 -21 87 -48c12 -24 15 -42 15 -91v-487c0 -158 90 -224 204 -224s210 68 210 224zM561 1548c40 0 66 -26 88 -48l166 -166c29 -29 38 -42 43 -61c8 -27 0 -55 -22 -77c-22 -21 -49 -30 -76 -22c-19 5 -33 14 -62 43l-137 138
l-137 -138c-29 -29 -43 -38 -62 -43c-27 -8 -54 1 -76 22c-22 22 -30 50 -22 77c5 19 14 32 43 61l166 166c22 22 48 48 88 48z" />
    <glyph glyph-name="udieresis" unicode="&#xfc;" horiz-adv-x="1136" 
d="M770 396v487c0 49 3 67 15 91c14 27 43 48 87 48s73 -21 87 -48c12 -24 15 -42 15 -91v-751c0 -56 -4 -74 -18 -97c-17 -27 -50 -43 -84 -43c-33 0 -64 13 -83 40c-10 15 -16 30 -18 67c-70 -74 -166 -111 -267 -111c-104 0 -190 34 -250 92c-78 76 -102 172 -102 286
v517c0 49 3 67 15 91c14 27 43 48 87 48s73 -21 87 -48c12 -24 15 -42 15 -91v-487c0 -158 90 -224 204 -224s210 68 210 224zM895 1314c0 -62 -50 -114 -112 -114s-114 52 -114 114s52 112 114 112s112 -50 112 -112zM455 1314c0 -62 -52 -114 -114 -114s-112 52 -112 114
s50 112 112 112s114 -50 114 -112z" />
    <glyph glyph-name="yacute" unicode="&#xfd;" horiz-adv-x="898" 
d="M834 863l-369 -1066c-20 -57 -42 -95 -74 -126c-56 -55 -124 -75 -199 -75c-35 0 -73 5 -94 24c-18 16 -29 37 -29 69c0 31 10 56 31 72c18 14 34 19 68 19c60 0 103 24 131 108l49 149l-284 826c-12 36 -21 67 -11 98s49 61 95 61c62 0 81 -44 99 -98l200 -621l204 621
c18 54 37 98 99 98c46 0 85 -30 95 -61s2 -62 -11 -98zM650 1399l-93 -149c-14 -22 -29 -44 -44 -55s-29 -16 -47 -16c-16 0 -33 5 -49 15c-31 20 -45 47 -43 77c1 22 9 38 31 74l93 149c14 22 29 44 44 55s29 16 47 16c16 0 33 -5 49 -15c31 -20 45 -47 43 -77
c-1 -22 -9 -38 -31 -74z" />
    <glyph glyph-name="thorn" unicode="&#xfe;" horiz-adv-x="1106" 
d="M366 103v-381c0 -49 -3 -67 -15 -91c-14 -27 -43 -48 -87 -48s-73 21 -87 48c-12 24 -15 42 -15 91v1571c0 49 3 67 15 91c14 27 43 48 87 48s73 -21 87 -48c12 -24 15 -42 15 -91v-381c74 88 158 114 266 114c102 0 190 -34 246 -90c98 -100 112 -262 112 -428
c0 -168 -14 -330 -112 -430c-56 -56 -146 -90 -248 -90c-106 0 -189 27 -264 115zM786 507c0 180 -26 335 -210 335c-185 0 -210 -155 -210 -335s25 -335 210 -335c184 0 210 155 210 335z" />
    <glyph glyph-name="ydieresis" unicode="&#xff;" horiz-adv-x="898" 
d="M834 863l-369 -1066c-20 -57 -42 -95 -74 -126c-56 -55 -124 -75 -199 -75c-35 0 -73 5 -94 24c-18 16 -29 37 -29 69c0 31 10 56 31 72c18 14 34 19 68 19c60 0 103 24 131 108l49 149l-284 826c-12 36 -21 67 -11 98s49 61 95 61c62 0 81 -44 99 -98l200 -621l204 621
c18 54 37 98 99 98c46 0 85 -30 95 -61s2 -62 -11 -98zM781 1314c0 -62 -50 -114 -112 -114s-114 52 -114 114s52 112 114 112s112 -50 112 -112zM341 1314c0 -62 -52 -114 -114 -114s-112 52 -112 114s50 112 112 112s114 -50 114 -112z" />
    <glyph glyph-name="Amacron" unicode="&#x100;" horiz-adv-x="1246" 
d="M851 470l-228 623l-228 -623h456zM918 286h-590l-71 -191c-18 -48 -27 -66 -47 -82c-16 -13 -36 -21 -59 -21c-30 0 -60 12 -79 32c-41 42 -28 87 -7 143l436 1161c15 41 26 58 43 74c21 20 45 30 79 30s58 -10 79 -30c17 -16 28 -33 43 -74l436 -1161
c21 -56 34 -101 -7 -143c-19 -20 -49 -32 -79 -32c-23 0 -43 8 -59 21c-20 16 -29 34 -47 82zM312 1684c0 31 14 56 38 69c18 10 33 13 74 13h399c41 0 57 -3 74 -13c24 -13 38 -38 38 -69s-14 -56 -38 -69c-17 -10 -33 -13 -74 -13h-399c-41 0 -56 3 -74 13
c-24 13 -38 38 -38 69z" />
    <glyph glyph-name="amacron" unicode="&#x101;" horiz-adv-x="1060" 
d="M83 298c0 170 121 294 351 294h269v63c0 133 -63 198 -212 198c-81 0 -135 -23 -194 -68c-26 -20 -55 -27 -74 -27c-21 0 -44 9 -59 27c-17 19 -24 36 -24 63c0 46 43 87 95 117c71 41 153 61 258 61c272 0 415 -119 415 -349v-546c0 -50 -2 -69 -15 -92
c-15 -28 -48 -47 -87 -47c-33 0 -58 12 -74 29c-12 14 -21 30 -23 73c-80 -78 -148 -105 -272 -105c-127 0 -212 29 -273 92c-52 53 -81 131 -81 217zM282 301c0 -92 62 -143 191 -143c73 0 133 8 185 58c32 30 45 76 45 151v80h-240c-120 0 -181 -52 -181 -146zM823 1319
c0 -31 -13 -56 -37 -69c-18 -10 -34 -13 -74 -13h-399c-40 0 -56 3 -74 13c-24 13 -38 38 -38 69s14 56 38 69c18 10 34 13 74 13h399c40 0 56 -3 74 -13c24 -13 37 -38 37 -69z" />
    <glyph glyph-name="Abreve" unicode="&#x102;" horiz-adv-x="1246" 
d="M851 470l-228 623l-228 -623h456zM918 286h-590l-71 -191c-18 -48 -27 -66 -47 -82c-16 -13 -36 -21 -59 -21c-30 0 -60 12 -79 32c-41 42 -28 87 -7 143l436 1161c15 41 26 58 43 74c21 20 45 30 79 30s58 -10 79 -30c17 -16 28 -33 43 -74l436 -1161
c21 -56 34 -101 -7 -143c-19 -20 -49 -32 -79 -32c-23 0 -43 8 -59 21c-20 16 -29 34 -47 82zM623 1714c64 0 115 30 163 72c20 17 37 25 54 26c22 1 42 -7 59 -26c15 -17 22 -37 21 -56c-1 -25 -13 -47 -45 -75c-72 -66 -148 -102 -252 -102s-180 36 -252 102
c-32 28 -44 50 -45 75c-1 19 6 39 21 56c17 19 37 27 59 26c17 -1 34 -9 54 -26c48 -42 99 -72 163 -72z" />
    <glyph glyph-name="abreve" unicode="&#x103;" horiz-adv-x="1060" 
d="M83 298c0 170 121 294 351 294h269v63c0 133 -63 198 -212 198c-81 0 -135 -23 -194 -68c-26 -20 -55 -27 -74 -27c-21 0 -44 9 -59 27c-17 19 -24 36 -24 63c0 46 43 87 95 117c71 41 153 61 258 61c272 0 415 -119 415 -349v-546c0 -50 -2 -69 -15 -92
c-15 -28 -48 -47 -87 -47c-33 0 -58 12 -74 29c-12 14 -21 30 -23 73c-80 -78 -148 -105 -272 -105c-127 0 -212 29 -273 92c-52 53 -81 131 -81 217zM282 301c0 -92 62 -143 191 -143c73 0 133 8 185 58c32 30 45 76 45 151v80h-240c-120 0 -181 -52 -181 -146zM513 1349
c64 0 115 30 163 72c20 17 37 25 54 26c22 1 42 -7 59 -26c15 -17 22 -37 21 -56c-1 -25 -13 -47 -45 -75c-72 -66 -148 -102 -252 -102s-180 36 -252 102c-32 28 -44 50 -45 75c-1 19 6 39 21 56c17 19 37 27 59 26c17 -1 34 -9 54 -26c48 -42 99 -72 163 -72z" />
    <glyph glyph-name="Aogonek" unicode="&#x104;" horiz-adv-x="1246" 
d="M851 470l-228 623l-228 -623h456zM918 286h-590l-71 -191c-18 -48 -27 -66 -47 -82c-16 -13 -36 -21 -59 -21c-30 0 -60 12 -79 32c-41 42 -28 87 -7 143l436 1161c15 41 26 58 43 74c21 20 45 30 79 30s58 -10 79 -30c17 -16 28 -33 43 -74l436 -1161
c21 -56 34 -101 -7 -143c-19 -20 -49 -32 -79 -32c-23 0 -43 8 -59 21c-20 16 -29 34 -47 82zM929 -478c-31 19 -46 47 -44 77c1 22 9 38 32 74l93 149c14 22 28 44 44 55c15 11 29 16 47 16c16 0 33 -5 49 -15c31 -20 45 -47 43 -77c-1 -22 -9 -38 -31 -74l-93 -149
c-15 -24 -28 -44 -44 -56c-15 -10 -29 -15 -47 -15c-17 0 -34 5 -49 15z" />
    <glyph glyph-name="aogonek" unicode="&#x105;" horiz-adv-x="1060" 
d="M83 298c0 170 121 294 351 294h269v63c0 133 -63 198 -212 198c-81 0 -135 -23 -194 -68c-26 -20 -55 -27 -74 -27c-21 0 -44 9 -59 27c-17 19 -24 36 -24 63c0 46 43 87 95 117c71 41 153 61 258 61c272 0 415 -119 415 -349v-546c0 -50 -2 -69 -15 -92
c-15 -28 -48 -47 -87 -47c-33 0 -58 12 -74 29c-12 14 -21 30 -23 73c-80 -78 -148 -105 -272 -105c-127 0 -212 29 -273 92c-52 53 -81 131 -81 217zM282 301c0 -92 62 -143 191 -143c73 0 133 8 185 58c32 30 45 76 45 151v80h-240c-120 0 -181 -52 -181 -146zM606 -478
c-31 19 -46 47 -44 77c1 22 9 38 32 74l93 149c14 22 28 44 44 55c15 11 29 16 47 16c16 0 33 -5 49 -15c31 -20 45 -47 43 -77c-1 -22 -9 -38 -31 -74l-93 -149c-15 -24 -28 -44 -44 -56c-15 -10 -29 -15 -47 -15c-17 0 -34 5 -49 15z" />
    <glyph glyph-name="Cacute" unicode="&#x106;" horiz-adv-x="1253" 
d="M135 712c0 299 5 441 143 579c92 92 212 145 367 145c179 0 286 -54 373 -147c80 -86 109 -178 109 -229c0 -37 -9 -61 -29 -81c-21 -20 -45 -30 -75 -30c-27 0 -49 9 -64 21c-23 18 -37 44 -53 81c-52 122 -131 193 -265 193c-84 0 -153 -33 -205 -89
c-75 -81 -85 -172 -85 -443s10 -362 85 -443c52 -56 121 -89 205 -89c134 0 213 71 265 193c16 37 30 63 53 81c15 12 37 21 64 21c30 0 54 -10 75 -30c20 -20 29 -44 29 -81c0 -51 -29 -143 -109 -229c-87 -93 -194 -147 -373 -147c-155 0 -275 53 -367 145
c-138 138 -143 280 -143 579zM849 1760l-93 -149c-14 -22 -29 -44 -44 -55s-29 -16 -47 -16c-16 0 -33 5 -49 15c-31 20 -45 47 -43 77c1 22 9 38 31 74l93 149c14 22 29 44 44 55s29 16 47 16c16 0 33 -5 49 -15c31 -20 45 -47 43 -77c-1 -22 -9 -38 -31 -74z" />
    <glyph glyph-name="cacute" unicode="&#x107;" horiz-adv-x="969" 
d="M110 507c0 380 220 519 450 519c91 0 154 -20 222 -64c53 -34 99 -70 99 -122c0 -25 -11 -48 -29 -67c-15 -15 -39 -26 -63 -26c-27 0 -47 11 -81 39c-51 41 -92 56 -148 56c-80 0 -141 -29 -185 -87s-61 -130 -61 -248c0 -117 17 -190 61 -247c44 -59 105 -88 185 -88
c56 0 97 17 148 57c34 27 54 39 81 39c24 0 48 -12 63 -27c18 -19 29 -41 29 -67c0 -51 -48 -89 -99 -122c-64 -41 -129 -64 -222 -64c-230 0 -450 139 -450 519zM764 1399l-93 -149c-14 -22 -29 -44 -44 -55s-29 -16 -47 -16c-16 0 -33 5 -49 15c-31 20 -45 47 -43 77
c1 22 9 38 31 74l93 149c14 22 29 44 44 55s29 16 47 16c16 0 33 -5 49 -15c31 -20 45 -47 43 -77c-1 -22 -9 -38 -31 -74z" />
    <glyph glyph-name="Ccircumflex" unicode="&#x108;" horiz-adv-x="1253" 
d="M135 712c0 299 5 441 143 579c92 92 212 145 367 145c179 0 286 -54 373 -147c80 -86 109 -178 109 -229c0 -37 -9 -61 -29 -81c-21 -20 -45 -30 -75 -30c-27 0 -49 9 -64 21c-23 18 -37 44 -53 81c-52 122 -131 193 -265 193c-84 0 -153 -33 -205 -89
c-75 -81 -85 -172 -85 -443s10 -362 85 -443c52 -56 121 -89 205 -89c134 0 213 71 265 193c16 37 30 63 53 81c15 12 37 21 64 21c30 0 54 -10 75 -30c20 -20 29 -44 29 -81c0 -51 -29 -143 -109 -229c-87 -93 -194 -147 -373 -147c-155 0 -275 53 -367 145
c-138 138 -143 280 -143 579zM647 1913c40 0 66 -26 88 -48l166 -166c29 -29 38 -42 43 -61c8 -27 0 -55 -22 -77c-22 -21 -49 -30 -76 -22c-19 5 -33 14 -62 43l-137 138l-137 -138c-29 -29 -43 -38 -62 -43c-27 -8 -54 1 -76 22c-22 22 -30 50 -22 77c5 19 14 32 43 61
l166 166c22 22 48 48 88 48z" />
    <glyph glyph-name="ccircumflex" unicode="&#x109;" horiz-adv-x="969" 
d="M110 507c0 380 220 519 450 519c91 0 154 -20 222 -64c53 -34 99 -70 99 -122c0 -25 -11 -48 -29 -67c-15 -15 -39 -26 -63 -26c-27 0 -47 11 -81 39c-51 41 -92 56 -148 56c-80 0 -141 -29 -185 -87s-61 -130 -61 -248c0 -117 17 -190 61 -247c44 -59 105 -88 185 -88
c56 0 97 17 148 57c34 27 54 39 81 39c24 0 48 -12 63 -27c18 -19 29 -41 29 -67c0 -51 -48 -89 -99 -122c-64 -41 -129 -64 -222 -64c-230 0 -450 139 -450 519zM561 1548c40 0 66 -26 88 -48l166 -166c29 -29 38 -42 43 -61c8 -27 0 -55 -22 -77c-22 -21 -49 -30 -76 -22
c-19 5 -33 14 -62 43l-137 138l-137 -138c-29 -29 -43 -38 -62 -43c-27 -8 -54 1 -76 22c-22 22 -30 50 -22 77c5 19 14 32 43 61l166 166c22 22 48 48 88 48z" />
    <glyph glyph-name="Cdotaccent" unicode="&#x10a;" horiz-adv-x="1253" 
d="M135 712c0 299 5 441 143 579c92 92 212 145 367 145c179 0 286 -54 373 -147c80 -86 109 -178 109 -229c0 -37 -9 -61 -29 -81c-21 -20 -45 -30 -75 -30c-27 0 -49 9 -64 21c-23 18 -37 44 -53 81c-52 122 -131 193 -265 193c-84 0 -153 -33 -205 -89
c-75 -81 -85 -172 -85 -443s10 -362 85 -443c52 -56 121 -89 205 -89c134 0 213 71 265 193c16 37 30 63 53 81c15 12 37 21 64 21c30 0 54 -10 75 -30c20 -20 29 -44 29 -81c0 -51 -29 -143 -109 -229c-87 -93 -194 -147 -373 -147c-155 0 -275 53 -367 145
c-138 138 -143 280 -143 579zM535 1688c0 62 51 113 113 113s113 -51 113 -113s-51 -113 -113 -113s-113 51 -113 113z" />
    <glyph glyph-name="cdotaccent" unicode="&#x10b;" horiz-adv-x="969" 
d="M110 507c0 380 220 519 450 519c91 0 154 -20 222 -64c53 -34 99 -70 99 -122c0 -25 -11 -48 -29 -67c-15 -15 -39 -26 -63 -26c-27 0 -47 11 -81 39c-51 41 -92 56 -148 56c-80 0 -141 -29 -185 -87s-61 -130 -61 -248c0 -117 17 -190 61 -247c44 -59 105 -88 185 -88
c56 0 97 17 148 57c34 27 54 39 81 39c24 0 48 -12 63 -27c18 -19 29 -41 29 -67c0 -51 -48 -89 -99 -122c-64 -41 -129 -64 -222 -64c-230 0 -450 139 -450 519zM448 1323c0 62 51 113 113 113s113 -51 113 -113s-51 -113 -113 -113s-113 51 -113 113z" />
    <glyph glyph-name="Ccaron" unicode="&#x10c;" horiz-adv-x="1253" 
d="M135 712c0 299 5 441 143 579c92 92 212 145 367 145c179 0 286 -54 373 -147c80 -86 109 -178 109 -229c0 -37 -9 -61 -29 -81c-21 -20 -45 -30 -75 -30c-27 0 -49 9 -64 21c-23 18 -37 44 -53 81c-52 122 -131 193 -265 193c-84 0 -153 -33 -205 -89
c-75 -81 -85 -172 -85 -443s10 -362 85 -443c52 -56 121 -89 205 -89c134 0 213 71 265 193c16 37 30 63 53 81c15 12 37 21 64 21c30 0 54 -10 75 -30c20 -20 29 -44 29 -81c0 -51 -29 -143 -109 -229c-87 -93 -194 -147 -373 -147c-155 0 -275 53 -367 145
c-138 138 -143 280 -143 579zM349 1807c-7 27 1 54 23 76c21 22 49 30 76 23c19 -6 33 -15 61 -43l138 -138l138 138c28 28 42 37 61 43c27 7 54 -1 76 -23s30 -49 23 -76c-6 -19 -15 -33 -43 -61l-167 -167c-21 -21 -48 -47 -88 -47s-67 26 -88 47l-167 167
c-28 28 -37 42 -43 61z" />
    <glyph glyph-name="ccaron" unicode="&#x10d;" horiz-adv-x="969" 
d="M110 507c0 380 220 519 450 519c91 0 154 -20 222 -64c53 -34 99 -70 99 -122c0 -25 -11 -48 -29 -67c-15 -15 -39 -26 -63 -26c-27 0 -47 11 -81 39c-51 41 -92 56 -148 56c-80 0 -141 -29 -185 -87s-61 -130 -61 -248c0 -117 17 -190 61 -247c44 -59 105 -88 185 -88
c56 0 97 17 148 57c34 27 54 39 81 39c24 0 48 -12 63 -27c18 -19 29 -41 29 -67c0 -51 -48 -89 -99 -122c-64 -41 -129 -64 -222 -64c-230 0 -450 139 -450 519zM263 1442c-7 27 1 54 23 76c21 22 49 30 76 23c19 -6 33 -15 61 -43l138 -138l138 138c28 28 42 37 61 43
c27 7 54 -1 76 -23s30 -49 23 -76c-6 -19 -15 -33 -43 -61l-167 -167c-21 -21 -48 -47 -88 -47s-67 26 -88 47l-167 167c-28 28 -37 42 -43 61z" />
    <glyph glyph-name="Dcaron" unicode="&#x10e;" horiz-adv-x="1332" 
d="M216 1393c31 31 69 31 101 31h369c179 0 310 -60 406 -181c100 -128 105 -278 105 -531s-7 -405 -107 -533c-95 -122 -225 -179 -404 -179h-369c-32 0 -70 0 -101 31s-31 69 -31 101v1160c0 32 0 70 31 101zM401 1232v-1040h260c103 0 185 28 245 97c71 80 75 212 75 423
s-4 343 -75 423c-60 69 -142 97 -245 97h-260zM367 1807c-7 27 1 54 23 76c21 22 49 30 76 23c19 -6 33 -15 61 -43l138 -138l138 138c28 28 42 37 61 43c27 7 54 -1 76 -23s30 -49 23 -76c-6 -19 -15 -33 -43 -61l-167 -167c-21 -21 -48 -47 -88 -47s-67 26 -88 47
l-167 167c-28 28 -37 42 -43 61z" />
    <glyph glyph-name="dcaron" unicode="&#x10f;" horiz-adv-x="1105" 
d="M943 1293v-1161c0 -56 -4 -74 -18 -97c-17 -27 -50 -43 -84 -43c-33 0 -64 13 -83 40c-11 15 -16 30 -18 72c-75 -89 -159 -116 -265 -116c-102 0 -192 34 -248 90c-98 100 -112 262 -112 430c0 166 14 328 112 428c56 56 144 90 246 90c108 0 192 -26 266 -114v381
c0 49 3 67 15 91c14 27 43 48 87 48s73 -21 87 -48c12 -24 15 -42 15 -91zM319 507c0 -180 26 -335 210 -335c185 0 211 155 211 335s-26 335 -211 335c-184 0 -210 -155 -210 -335zM1313 1378l-54 -162c-12 -36 -19 -54 -35 -70c-14 -13 -33 -22 -56 -22
c-42 0 -79 25 -89 61c-8 28 0 53 11 87l54 162c12 36 19 54 35 70c14 13 33 22 56 22c42 0 79 -25 89 -61c8 -28 0 -53 -11 -87z" />
    <glyph glyph-name="Dcroat" unicode="&#x110;" horiz-adv-x="1372" 
d="M165 632c-41 0 -59 2 -78 13c-24 14 -39 40 -39 73s15 59 39 73c19 11 37 13 78 13h60v488c0 32 0 70 31 101s69 31 101 31h369c179 0 310 -60 406 -181c100 -128 105 -278 105 -531s-7 -405 -107 -533c-95 -122 -225 -179 -404 -179h-369c-32 0 -70 0 -101 31
s-31 69 -31 101v500h-60zM441 1232v-428h180c42 0 60 -2 79 -13c24 -14 39 -40 39 -73s-15 -59 -39 -73c-19 -11 -37 -13 -79 -13h-180v-440h260c103 0 185 28 245 97c71 80 75 212 75 423s-4 343 -75 423c-60 69 -142 97 -245 97h-260z" />
    <glyph glyph-name="dcroat" unicode="&#x111;" horiz-adv-x="1112" 
d="M608 1283h131v10c0 49 3 67 15 91c14 27 43 48 87 48s73 -21 87 -48c12 -24 15 -42 15 -91v-10h23c38 0 53 -2 71 -12c23 -13 36 -36 36 -66s-13 -53 -36 -66c-18 -10 -33 -12 -71 -12h-23v-996c0 -55 -4 -73 -18 -96c-17 -27 -50 -43 -84 -43c-33 0 -64 13 -83 40
c-11 15 -16 30 -18 72c-75 -89 -159 -116 -265 -116c-102 0 -192 34 -248 90c-98 100 -112 262 -112 430c0 166 14 328 112 428c56 56 144 90 246 90c108 0 192 -26 266 -114v215h-131c-38 0 -53 2 -71 12c-23 13 -36 36 -36 66s13 53 36 66c18 10 33 12 71 12zM319 507
c0 -180 26 -335 210 -335c185 0 211 155 211 335s-26 335 -211 335c-184 0 -210 -155 -210 -335z" />
    <glyph glyph-name="Emacron" unicode="&#x112;" horiz-adv-x="1203" 
d="M401 1232v-418h470c46 0 66 -2 88 -14c26 -15 44 -44 44 -82s-18 -67 -44 -82c-22 -12 -42 -14 -88 -14h-470v-430h572c46 0 66 -2 88 -14c26 -15 44 -44 44 -82s-18 -67 -44 -82c-22 -12 -42 -14 -88 -14h-656c-32 0 -70 0 -101 31s-31 69 -31 101v1160
c0 32 0 70 31 101s69 31 101 31h656c46 0 66 -2 88 -14c26 -15 44 -44 44 -82s-18 -67 -44 -82c-22 -12 -42 -14 -88 -14h-572zM317 1684c0 31 14 56 38 69c18 10 33 13 74 13h399c41 0 57 -3 74 -13c24 -13 38 -38 38 -69s-14 -56 -38 -69c-17 -10 -33 -13 -74 -13h-399
c-41 0 -56 3 -74 13c-24 13 -38 38 -38 69z" />
    <glyph glyph-name="emacron" unicode="&#x113;" horiz-adv-x="1075" 
d="M110 507c0 334 171 519 430 519c265 0 423 -193 429 -461c1 -30 -3 -66 -28 -91c-26 -26 -60 -26 -90 -26h-539c0 -173 91 -286 260 -286c71 0 140 20 195 64c31 25 57 37 83 37c41 0 84 -40 84 -87s-52 -91 -102 -123c-64 -42 -156 -65 -265 -65
c-253 0 -457 133 -457 519zM768 590c-4 62 -8 94 -28 138c-34 76 -104 128 -200 128c-98 0 -168 -52 -202 -128c-20 -44 -24 -76 -26 -138h456zM852 1319c0 -31 -13 -56 -37 -69c-18 -10 -34 -13 -74 -13h-399c-40 0 -56 3 -74 13c-24 13 -38 38 -38 69s14 56 38 69
c18 10 34 13 74 13h399c40 0 56 -3 74 -13c24 -13 37 -38 37 -69z" />
    <glyph glyph-name="Ebreve" unicode="&#x114;" horiz-adv-x="1203" 
d="M401 1232v-418h470c46 0 66 -2 88 -14c26 -15 44 -44 44 -82s-18 -67 -44 -82c-22 -12 -42 -14 -88 -14h-470v-430h572c46 0 66 -2 88 -14c26 -15 44 -44 44 -82s-18 -67 -44 -82c-22 -12 -42 -14 -88 -14h-656c-32 0 -70 0 -101 31s-31 69 -31 101v1160
c0 32 0 70 31 101s69 31 101 31h656c46 0 66 -2 88 -14c26 -15 44 -44 44 -82s-18 -67 -44 -82c-22 -12 -42 -14 -88 -14h-572zM628 1714c64 0 115 30 163 72c20 17 37 25 54 26c22 1 42 -7 59 -26c15 -17 22 -37 21 -56c-1 -25 -13 -47 -45 -75
c-72 -66 -148 -102 -252 -102s-180 36 -252 102c-32 28 -44 50 -45 75c-1 19 6 39 21 56c17 19 37 27 59 26c17 -1 34 -9 54 -26c48 -42 99 -72 163 -72z" />
    <glyph glyph-name="ebreve" unicode="&#x115;" horiz-adv-x="1075" 
d="M110 507c0 334 171 519 430 519c265 0 423 -193 429 -461c1 -30 -3 -66 -28 -91c-26 -26 -60 -26 -90 -26h-539c0 -173 91 -286 260 -286c71 0 140 20 195 64c31 25 57 37 83 37c41 0 84 -40 84 -87s-52 -91 -102 -123c-64 -42 -156 -65 -265 -65
c-253 0 -457 133 -457 519zM768 590c-4 62 -8 94 -28 138c-34 76 -104 128 -200 128c-98 0 -168 -52 -202 -128c-20 -44 -24 -76 -26 -138h456zM542 1349c64 0 115 30 163 72c20 17 37 25 54 26c22 1 42 -7 59 -26c15 -17 22 -37 21 -56c-1 -25 -13 -47 -45 -75
c-72 -66 -148 -102 -252 -102s-180 36 -252 102c-32 28 -44 50 -45 75c-1 19 6 39 21 56c17 19 37 27 59 26c17 -1 34 -9 54 -26c48 -42 99 -72 163 -72z" />
    <glyph glyph-name="Edotaccent" unicode="&#x116;" horiz-adv-x="1203" 
d="M401 1232v-418h470c46 0 66 -2 88 -14c26 -15 44 -44 44 -82s-18 -67 -44 -82c-22 -12 -42 -14 -88 -14h-470v-430h572c46 0 66 -2 88 -14c26 -15 44 -44 44 -82s-18 -67 -44 -82c-22 -12 -42 -14 -88 -14h-656c-32 0 -70 0 -101 31s-31 69 -31 101v1160
c0 32 0 70 31 101s69 31 101 31h656c46 0 66 -2 88 -14c26 -15 44 -44 44 -82s-18 -67 -44 -82c-22 -12 -42 -14 -88 -14h-572zM516 1688c0 62 51 113 113 113s113 -51 113 -113s-51 -113 -113 -113s-113 51 -113 113z" />
    <glyph glyph-name="edotaccent" unicode="&#x117;" horiz-adv-x="1075" 
d="M110 507c0 334 171 519 430 519c265 0 423 -193 429 -461c1 -30 -3 -66 -28 -91c-26 -26 -60 -26 -90 -26h-539c0 -173 91 -286 260 -286c71 0 140 20 195 64c31 25 57 37 83 37c41 0 84 -40 84 -87s-52 -91 -102 -123c-64 -42 -156 -65 -265 -65
c-253 0 -457 133 -457 519zM768 590c-4 62 -8 94 -28 138c-34 76 -104 128 -200 128c-98 0 -168 -52 -202 -128c-20 -44 -24 -76 -26 -138h456zM429 1323c0 62 51 113 113 113s113 -51 113 -113s-51 -113 -113 -113s-113 51 -113 113z" />
    <glyph glyph-name="Eogonek" unicode="&#x118;" horiz-adv-x="1203" 
d="M401 1232v-418h470c46 0 66 -2 88 -14c26 -15 44 -44 44 -82s-18 -67 -44 -82c-22 -12 -42 -14 -88 -14h-470v-430h572c46 0 66 -2 88 -14c26 -15 44 -44 44 -82s-18 -67 -44 -82c-22 -12 -42 -14 -88 -14h-656c-32 0 -70 0 -101 31s-31 69 -31 101v1160
c0 32 0 70 31 101s69 31 101 31h656c46 0 66 -2 88 -14c26 -15 44 -44 44 -82s-18 -67 -44 -82c-22 -12 -42 -14 -88 -14h-572zM817 -478c-31 19 -46 47 -44 77c1 22 9 38 32 74l93 149c14 22 28 44 44 55c15 11 29 16 47 16c16 0 33 -5 49 -15c31 -20 45 -47 43 -77
c-1 -22 -9 -38 -31 -74l-93 -149c-15 -24 -28 -44 -44 -56c-15 -10 -29 -15 -47 -15c-17 0 -34 5 -49 15z" />
    <glyph glyph-name="eogonek" unicode="&#x119;" horiz-adv-x="1075" 
d="M110 507c0 334 171 519 430 519c265 0 423 -193 429 -461c1 -30 -3 -66 -28 -91c-26 -26 -60 -26 -90 -26h-539c0 -173 91 -286 260 -286c71 0 140 20 195 64c31 25 57 37 83 37c41 0 84 -40 84 -87s-52 -91 -102 -123c-64 -42 -156 -65 -265 -65
c-253 0 -457 133 -457 519zM768 590c-4 62 -8 94 -28 138c-34 76 -104 128 -200 128c-98 0 -168 -52 -202 -128c-20 -44 -24 -76 -26 -138h456zM516 -478c-31 19 -46 47 -44 77c1 22 9 38 32 74l93 149c14 22 28 44 44 55c15 11 29 16 47 16c16 0 33 -5 49 -15
c31 -20 45 -47 43 -77c-1 -22 -9 -38 -31 -74l-93 -149c-15 -24 -28 -44 -44 -56c-15 -10 -29 -15 -47 -15c-17 0 -34 5 -49 15z" />
    <glyph glyph-name="Ecaron" unicode="&#x11a;" horiz-adv-x="1203" 
d="M401 1232v-418h470c46 0 66 -2 88 -14c26 -15 44 -44 44 -82s-18 -67 -44 -82c-22 -12 -42 -14 -88 -14h-470v-430h572c46 0 66 -2 88 -14c26 -15 44 -44 44 -82s-18 -67 -44 -82c-22 -12 -42 -14 -88 -14h-656c-32 0 -70 0 -101 31s-31 69 -31 101v1160
c0 32 0 70 31 101s69 31 101 31h656c46 0 66 -2 88 -14c26 -15 44 -44 44 -82s-18 -67 -44 -82c-22 -12 -42 -14 -88 -14h-572zM330 1807c-7 27 1 54 23 76c21 22 49 30 76 23c19 -6 33 -15 61 -43l138 -138l138 138c28 28 42 37 61 43c27 7 54 -1 76 -23s30 -49 23 -76
c-6 -19 -15 -33 -43 -61l-167 -167c-21 -21 -48 -47 -88 -47s-67 26 -88 47l-167 167c-28 28 -37 42 -43 61z" />
    <glyph glyph-name="ecaron" unicode="&#x11b;" horiz-adv-x="1075" 
d="M110 507c0 334 171 519 430 519c265 0 423 -193 429 -461c1 -30 -3 -66 -28 -91c-26 -26 -60 -26 -90 -26h-539c0 -173 91 -286 260 -286c71 0 140 20 195 64c31 25 57 37 83 37c41 0 84 -40 84 -87s-52 -91 -102 -123c-64 -42 -156 -65 -265 -65
c-253 0 -457 133 -457 519zM768 590c-4 62 -8 94 -28 138c-34 76 -104 128 -200 128c-98 0 -168 -52 -202 -128c-20 -44 -24 -76 -26 -138h456zM244 1442c-7 27 1 54 23 76c21 22 49 30 76 23c19 -6 33 -15 61 -43l138 -138l138 138c28 28 42 37 61 43c27 7 54 -1 76 -23
s30 -49 23 -76c-6 -19 -15 -33 -43 -61l-167 -167c-21 -21 -48 -47 -88 -47s-67 26 -88 47l-167 167c-28 28 -37 42 -43 61z" />
    <glyph glyph-name="Gcircumflex" unicode="&#x11c;" horiz-adv-x="1282" 
d="M351 712c0 -282 13 -368 84 -443c52 -56 125 -89 212 -89c84 0 156 31 211 86c66 68 81 145 81 295h-180c-46 0 -66 2 -88 14c-26 15 -44 44 -44 82s18 67 44 82c22 12 42 14 88 14h256c32 0 70 0 101 -31s31 -69 31 -101v-21c0 -232 -24 -354 -135 -465
c-99 -99 -214 -147 -365 -147c-157 0 -277 53 -369 145c-138 138 -143 280 -143 579s5 441 143 579c92 92 212 145 367 145c179 0 286 -54 373 -147c80 -86 109 -178 109 -229c0 -37 -9 -61 -29 -81c-21 -20 -45 -30 -75 -30c-27 0 -49 9 -64 21c-23 18 -37 44 -53 81
c-52 122 -131 193 -265 193c-84 0 -153 -33 -205 -89c-75 -81 -85 -172 -85 -443zM646 1913c40 0 66 -26 88 -48l166 -166c29 -29 38 -42 43 -61c8 -27 0 -55 -22 -77c-22 -21 -49 -30 -76 -22c-19 5 -33 14 -62 43l-137 138l-137 -138c-29 -29 -43 -38 -62 -43
c-27 -8 -54 1 -76 22c-22 22 -30 50 -22 77c5 19 14 32 43 61l166 166c22 22 48 48 88 48z" />
    <glyph glyph-name="gcircumflex" unicode="&#x11d;" horiz-adv-x="1099" 
d="M501 -421c-104 0 -173 16 -240 53c-47 26 -104 70 -104 120c0 54 45 89 83 89c26 0 48 -11 92 -39c51 -33 96 -50 163 -50c173 0 238 122 238 258v130c-74 -88 -158 -116 -262 -116c-102 0 -186 34 -242 90c-98 98 -114 240 -114 412s16 314 114 412c56 56 142 88 244 88
c105 0 186 -27 261 -114c2 40 7 54 18 70c19 27 50 40 83 40c34 0 67 -16 84 -43c14 -23 18 -41 18 -97v-876c0 -247 -166 -427 -436 -427zM733 526c0 160 -22 318 -206 318s-208 -158 -208 -318s24 -318 208 -318s206 158 206 318zM528 1548c40 0 66 -26 88 -48l166 -166
c29 -29 38 -42 43 -61c8 -27 0 -55 -22 -77c-22 -21 -49 -30 -76 -22c-19 5 -33 14 -62 43l-137 138l-137 -138c-29 -29 -43 -38 -62 -43c-27 -8 -54 1 -76 22c-22 22 -30 50 -22 77c5 19 14 32 43 61l166 166c22 22 48 48 88 48z" />
    <glyph glyph-name="Gbreve" unicode="&#x11e;" horiz-adv-x="1282" 
d="M351 712c0 -282 13 -368 84 -443c52 -56 125 -89 212 -89c84 0 156 31 211 86c66 68 81 145 81 295h-180c-46 0 -66 2 -88 14c-26 15 -44 44 -44 82s18 67 44 82c22 12 42 14 88 14h256c32 0 70 0 101 -31s31 -69 31 -101v-21c0 -232 -24 -354 -135 -465
c-99 -99 -214 -147 -365 -147c-157 0 -277 53 -369 145c-138 138 -143 280 -143 579s5 441 143 579c92 92 212 145 367 145c179 0 286 -54 373 -147c80 -86 109 -178 109 -229c0 -37 -9 -61 -29 -81c-21 -20 -45 -30 -75 -30c-27 0 -49 9 -64 21c-23 18 -37 44 -53 81
c-52 122 -131 193 -265 193c-84 0 -153 -33 -205 -89c-75 -81 -85 -172 -85 -443zM646 1714c64 0 115 30 163 72c20 17 37 25 54 26c22 1 42 -7 59 -26c15 -17 22 -37 21 -56c-1 -25 -13 -47 -45 -75c-72 -66 -148 -102 -252 -102s-180 36 -252 102c-32 28 -44 50 -45 75
c-1 19 6 39 21 56c17 19 37 27 59 26c17 -1 34 -9 54 -26c48 -42 99 -72 163 -72z" />
    <glyph glyph-name="gbreve" unicode="&#x11f;" horiz-adv-x="1099" 
d="M501 -421c-104 0 -173 16 -240 53c-47 26 -104 70 -104 120c0 54 45 89 83 89c26 0 48 -11 92 -39c51 -33 96 -50 163 -50c173 0 238 122 238 258v130c-74 -88 -158 -116 -262 -116c-102 0 -186 34 -242 90c-98 98 -114 240 -114 412s16 314 114 412c56 56 142 88 244 88
c105 0 186 -27 261 -114c2 40 7 54 18 70c19 27 50 40 83 40c34 0 67 -16 84 -43c14 -23 18 -41 18 -97v-876c0 -247 -166 -427 -436 -427zM733 526c0 160 -22 318 -206 318s-208 -158 -208 -318s24 -318 208 -318s206 158 206 318zM528 1349c64 0 115 30 163 72
c20 17 37 25 54 26c22 1 42 -7 59 -26c15 -17 22 -37 21 -56c-1 -25 -13 -47 -45 -75c-72 -66 -148 -102 -252 -102s-180 36 -252 102c-32 28 -44 50 -45 75c-1 19 6 39 21 56c17 19 37 27 59 26c17 -1 34 -9 54 -26c48 -42 99 -72 163 -72z" />
    <glyph glyph-name="Gdotaccent" unicode="&#x120;" horiz-adv-x="1282" 
d="M351 712c0 -282 13 -368 84 -443c52 -56 125 -89 212 -89c84 0 156 31 211 86c66 68 81 145 81 295h-180c-46 0 -66 2 -88 14c-26 15 -44 44 -44 82s18 67 44 82c22 12 42 14 88 14h256c32 0 70 0 101 -31s31 -69 31 -101v-21c0 -232 -24 -354 -135 -465
c-99 -99 -214 -147 -365 -147c-157 0 -277 53 -369 145c-138 138 -143 280 -143 579s5 441 143 579c92 92 212 145 367 145c179 0 286 -54 373 -147c80 -86 109 -178 109 -229c0 -37 -9 -61 -29 -81c-21 -20 -45 -30 -75 -30c-27 0 -49 9 -64 21c-23 18 -37 44 -53 81
c-52 122 -131 193 -265 193c-84 0 -153 -33 -205 -89c-75 -81 -85 -172 -85 -443zM534 1688c0 62 51 113 113 113s113 -51 113 -113s-51 -113 -113 -113s-113 51 -113 113z" />
    <glyph glyph-name="gdotaccent" unicode="&#x121;" horiz-adv-x="1099" 
d="M501 -421c-104 0 -173 16 -240 53c-47 26 -104 70 -104 120c0 54 45 89 83 89c26 0 48 -11 92 -39c51 -33 96 -50 163 -50c173 0 238 122 238 258v130c-74 -88 -158 -116 -262 -116c-102 0 -186 34 -242 90c-98 98 -114 240 -114 412s16 314 114 412c56 56 142 88 244 88
c105 0 186 -27 261 -114c2 40 7 54 18 70c19 27 50 40 83 40c34 0 67 -16 84 -43c14 -23 18 -41 18 -97v-876c0 -247 -166 -427 -436 -427zM733 526c0 160 -22 318 -206 318s-208 -158 -208 -318s24 -318 208 -318s206 158 206 318zM415 1323c0 62 51 113 113 113
s113 -51 113 -113s-51 -113 -113 -113s-113 51 -113 113z" />
    <glyph glyph-name="Gcommaaccent" unicode="&#x122;" horiz-adv-x="1282" 
d="M351 712c0 -282 13 -368 84 -443c52 -56 125 -89 212 -89c84 0 156 31 211 86c66 68 81 145 81 295h-180c-46 0 -66 2 -88 14c-26 15 -44 44 -44 82s18 67 44 82c22 12 42 14 88 14h256c32 0 70 0 101 -31s31 -69 31 -101v-21c0 -232 -24 -354 -135 -465
c-99 -99 -214 -147 -365 -147c-157 0 -277 53 -369 145c-138 138 -143 280 -143 579s5 441 143 579c92 92 212 145 367 145c179 0 286 -54 373 -147c80 -86 109 -178 109 -229c0 -37 -9 -61 -29 -81c-21 -20 -45 -30 -75 -30c-27 0 -49 9 -64 21c-23 18 -37 44 -53 81
c-52 122 -131 193 -265 193c-84 0 -153 -33 -205 -89c-75 -81 -85 -172 -85 -443zM720 -273l-93 -149c-14 -22 -29 -44 -44 -55s-29 -16 -47 -16c-16 0 -33 5 -49 15c-31 20 -45 47 -43 77c1 22 9 38 31 74l93 149c14 22 29 44 44 55s29 16 47 16c16 0 33 -5 49 -15
c31 -20 45 -47 43 -77c-1 -22 -9 -38 -31 -74z" />
    <glyph glyph-name="gcommaaccent" unicode="&#x123;" horiz-adv-x="1099" 
d="M501 -421c-104 0 -173 16 -240 53c-47 26 -104 70 -104 120c0 54 45 89 83 89c26 0 48 -11 92 -39c51 -33 96 -50 163 -50c173 0 238 122 238 258v130c-74 -88 -158 -116 -262 -116c-102 0 -186 34 -242 90c-98 98 -114 240 -114 412s16 314 114 412c56 56 142 88 244 88
c105 0 186 -27 261 -114c2 40 7 54 18 70c19 27 50 40 83 40c34 0 67 -16 84 -43c14 -23 18 -41 18 -97v-876c0 -247 -166 -427 -436 -427zM733 526c0 160 -22 318 -206 318s-208 -158 -208 -318s24 -318 208 -318s206 158 206 318zM731 1399l-93 -149
c-14 -22 -29 -44 -44 -55s-29 -16 -47 -16c-16 0 -33 5 -49 15c-31 20 -45 47 -43 77c1 22 9 38 31 74l93 149c14 22 29 44 44 55s29 16 47 16c16 0 33 -5 49 -15c31 -20 45 -47 43 -77c-1 -22 -9 -38 -31 -74z" />
    <glyph glyph-name="Hcircumflex" unicode="&#x124;" horiz-adv-x="1380" 
d="M401 815h578v470c0 53 1 70 16 98c16 29 49 49 92 49s76 -20 92 -49c15 -28 16 -45 16 -98v-1146c0 -53 -1 -70 -16 -98c-16 -29 -49 -49 -92 -49s-76 20 -92 49c-15 28 -16 45 -16 98v484h-578v-484c0 -53 -1 -70 -16 -98c-16 -29 -49 -49 -92 -49s-76 20 -92 49
c-15 28 -16 45 -16 98v1146c0 53 1 70 16 98c16 29 49 49 92 49s76 -20 92 -49c15 -28 16 -45 16 -98v-470zM690 1913c40 0 66 -26 88 -48l166 -166c29 -29 38 -42 43 -61c8 -27 0 -55 -22 -77c-22 -21 -49 -30 -76 -22c-19 5 -33 14 -62 43l-137 138l-137 -138
c-29 -29 -43 -38 -62 -43c-27 -8 -54 1 -76 22c-22 22 -30 50 -22 77c5 19 14 32 43 61l166 166c22 22 48 48 88 48z" />
    <glyph glyph-name="hcircumflex" unicode="&#x125;" horiz-adv-x="1137" 
d="M366 618v-487c0 -49 -3 -67 -15 -91c-14 -27 -43 -48 -87 -48s-73 21 -87 48c-12 24 -15 42 -15 91v1162c0 49 3 67 15 91c14 27 43 48 87 48s73 -21 87 -48c12 -24 15 -42 15 -91v-381c72 80 165 114 266 114c105 0 190 -33 250 -92c78 -76 103 -173 103 -286v-517
c0 -49 -3 -67 -15 -91c-14 -27 -43 -48 -87 -48s-73 21 -87 48c-12 24 -15 42 -15 91v487c0 158 -90 224 -206 224c-115 0 -209 -67 -209 -224zM265 1905c40 0 66 -26 88 -48l166 -166c29 -29 38 -42 43 -61c8 -27 0 -55 -22 -77c-22 -21 -49 -30 -76 -22
c-19 5 -33 14 -62 43l-137 138l-137 -138c-29 -29 -43 -38 -62 -43c-27 -8 -54 1 -76 22c-22 22 -30 50 -22 77c5 19 14 32 43 61l166 166c22 22 48 48 88 48z" />
    <glyph glyph-name="Hbar" unicode="&#x126;" horiz-adv-x="1461" 
d="M165 1192h60v93c0 53 1 70 16 98c16 29 49 49 92 49s76 -20 92 -49c15 -28 16 -45 16 -98v-93h578v93c0 53 1 70 16 98c16 29 49 49 92 49s76 -20 92 -49c15 -28 16 -45 16 -98v-93h60c42 0 60 -2 79 -13c24 -14 39 -40 39 -73s-15 -59 -39 -73c-19 -11 -37 -13 -79 -13
h-60v-881c0 -53 -1 -70 -16 -98c-16 -29 -49 -49 -92 -49s-76 20 -92 49c-15 28 -16 45 -16 98v484h-578v-484c0 -53 -1 -70 -16 -98c-16 -29 -49 -49 -92 -49s-76 20 -92 49c-15 28 -16 45 -16 98v881h-60c-41 0 -59 2 -78 13c-24 14 -39 40 -39 73s15 59 39 73
c19 11 37 13 78 13zM441 815h578v205h-578v-205z" />
    <glyph glyph-name="hbar" unicode="&#x127;" horiz-adv-x="1138" 
d="M498 1127h-131v-215c72 80 165 114 266 114c105 0 190 -33 250 -92c78 -76 103 -173 103 -286v-517c0 -49 -3 -67 -15 -91c-14 -27 -43 -48 -87 -48s-73 21 -87 48c-12 24 -15 42 -15 91v487c0 158 -90 224 -206 224c-115 0 -208 -67 -208 -224l-1 -487
c0 -49 -3 -67 -15 -91c-14 -27 -43 -48 -87 -48s-73 21 -87 48c-12 24 -15 42 -15 91v996h-23c-38 0 -53 2 -71 12c-23 13 -36 36 -36 66s13 53 36 66c18 10 33 12 71 12h23v10c0 49 3 67 15 91c14 27 43 48 87 48s73 -21 87 -48c12 -24 15 -42 15 -91v-10h131
c38 0 53 -2 71 -12c23 -13 36 -36 36 -66s-13 -53 -36 -66c-18 -10 -33 -12 -71 -12z" />
    <glyph glyph-name="Itilde" unicode="&#x128;" horiz-adv-x="586" 
d="M401 139c0 -53 -1 -70 -16 -98c-16 -29 -49 -49 -92 -49s-76 20 -92 49c-15 28 -16 45 -16 98v1146c0 53 1 70 16 98c16 29 49 49 92 49s76 -20 92 -49c15 -28 16 -45 16 -98v-1146zM275 1619c-39 22 -67 37 -107 37c-31 0 -52 -5 -88 -34c-20 -16 -40 -26 -59 -26
s-39 6 -54 23c-12 14 -17 31 -17 52c0 23 14 50 46 77c63 52 112 62 167 62c59 0 94 -13 150 -45c39 -22 67 -37 107 -37c31 0 52 5 88 34c20 16 40 26 59 26s39 -6 54 -23c12 -14 17 -31 17 -52c0 -23 -14 -50 -46 -77c-63 -52 -112 -62 -167 -62c-59 0 -94 13 -150 45z
" />
    <glyph glyph-name="itilde" unicode="&#x129;" horiz-adv-x="528" 
d="M366 131c0 -49 -3 -67 -15 -91c-14 -27 -43 -48 -87 -48s-73 21 -87 48c-12 24 -15 42 -15 91v752c0 49 3 67 15 91c14 27 43 48 87 48s73 -21 87 -48c12 -24 15 -42 15 -91v-752zM246 1261c-39 22 -67 37 -107 37c-31 0 -52 -5 -88 -34c-20 -16 -40 -26 -59 -26
s-39 6 -54 23c-12 14 -17 31 -17 52c0 23 14 50 46 77c63 52 112 62 167 62c59 0 94 -13 150 -45c39 -22 67 -37 107 -37c31 0 52 5 88 34c20 16 40 26 59 26s39 -6 54 -23c12 -14 17 -31 17 -52c0 -23 -14 -50 -46 -77c-63 -52 -112 -62 -167 -62c-59 0 -94 13 -150 45z
" />
    <glyph glyph-name="Imacron" unicode="&#x12a;" horiz-adv-x="586" 
d="M401 139c0 -53 -1 -70 -16 -98c-16 -29 -49 -49 -92 -49s-76 20 -92 49c-15 28 -16 45 -16 98v1146c0 53 1 70 16 98c16 29 49 49 92 49s76 -20 92 -49c15 -28 16 -45 16 -98v-1146zM-17 1684c0 31 14 56 38 69c18 10 33 13 74 13h399c41 0 57 -3 74 -13
c24 -13 38 -38 38 -69s-14 -56 -38 -69c-17 -10 -33 -13 -74 -13h-399c-41 0 -56 3 -74 13c-24 13 -38 38 -38 69z" />
    <glyph glyph-name="imacron" unicode="&#x12b;" horiz-adv-x="528" 
d="M366 131c0 -49 -3 -67 -15 -91c-14 -27 -43 -48 -87 -48s-73 21 -87 48c-12 24 -15 42 -15 91v752c0 49 3 67 15 91c14 27 43 48 87 48s73 -21 87 -48c12 -24 15 -42 15 -91v-752zM575 1319c0 -31 -13 -56 -37 -69c-18 -10 -34 -13 -74 -13h-399c-40 0 -56 3 -74 13
c-24 13 -38 38 -38 69s14 56 38 69c18 10 34 13 74 13h399c40 0 56 -3 74 -13c24 -13 37 -38 37 -69z" />
    <glyph glyph-name="Ibreve" unicode="&#x12c;" horiz-adv-x="586" 
d="M401 139c0 -53 -1 -70 -16 -98c-16 -29 -49 -49 -92 -49s-76 20 -92 49c-15 28 -16 45 -16 98v1146c0 53 1 70 16 98c16 29 49 49 92 49s76 -20 92 -49c15 -28 16 -45 16 -98v-1146zM294 1714c64 0 115 30 163 72c20 17 37 25 54 26c22 1 42 -7 59 -26
c15 -17 22 -37 21 -56c-1 -25 -13 -47 -45 -75c-72 -66 -148 -102 -252 -102s-180 36 -252 102c-32 28 -44 50 -45 75c-1 19 6 39 21 56c17 19 37 27 59 26c17 -1 34 -9 54 -26c48 -42 99 -72 163 -72z" />
    <glyph glyph-name="ibreve" unicode="&#x12d;" horiz-adv-x="528" 
d="M367 131c0 -49 -3 -67 -15 -91c-14 -27 -43 -48 -87 -48s-73 21 -87 48c-12 24 -15 42 -15 91v752c0 49 3 67 15 91c14 27 43 48 87 48s73 -21 87 -48c12 -24 15 -42 15 -91v-752zM265 1349c64 0 115 30 163 72c20 17 37 25 54 26c22 1 42 -7 59 -26
c15 -17 22 -37 21 -56c-1 -25 -13 -47 -45 -75c-72 -66 -148 -102 -252 -102s-180 36 -252 102c-32 28 -44 50 -45 75c-1 19 6 39 21 56c17 19 37 27 59 26c17 -1 34 -9 54 -26c48 -42 99 -72 163 -72z" />
    <glyph glyph-name="Iogonek" unicode="&#x12e;" horiz-adv-x="586" 
d="M401 139c0 -53 -1 -70 -16 -98c-16 -29 -49 -49 -92 -49s-76 20 -92 49c-15 28 -16 45 -16 98v1146c0 53 1 70 16 98c16 29 49 49 92 49s76 -20 92 -49c15 -28 16 -45 16 -98v-1146zM114 -478c-31 19 -46 47 -44 77c1 22 9 38 32 74l93 149c14 22 28 44 44 55
c15 11 29 16 47 16c16 0 33 -5 49 -15c31 -20 45 -47 43 -77c-1 -22 -9 -38 -31 -74l-93 -149c-15 -24 -28 -44 -44 -56c-15 -10 -29 -15 -47 -15c-17 0 -34 5 -49 15z" />
    <glyph glyph-name="iogonek" unicode="&#x12f;" horiz-adv-x="528" 
d="M366 131c0 -49 -3 -67 -15 -91c-14 -27 -43 -48 -87 -48s-73 21 -87 48c-12 24 -15 42 -15 91v752c0 49 3 67 15 91c14 27 43 48 87 48s73 -21 87 -48c12 -24 15 -42 15 -91v-752zM141 1345c0 68 55 123 123 123s123 -55 123 -123s-55 -123 -123 -123s-123 55 -123 123z
M80 -478c-31 19 -46 47 -44 77c1 22 9 38 32 74l93 149c14 22 28 44 44 55c15 11 29 16 47 16c16 0 33 -5 49 -15c31 -20 45 -47 43 -77c-1 -22 -9 -38 -31 -74l-93 -149c-15 -24 -28 -44 -44 -56c-15 -10 -29 -15 -47 -15c-17 0 -34 5 -49 15z" />
    <glyph glyph-name="Idotaccent" unicode="&#x130;" horiz-adv-x="586" 
d="M401 139c0 -53 -1 -70 -16 -98c-16 -29 -49 -49 -92 -49s-76 20 -92 49c-15 28 -16 45 -16 98v1146c0 53 1 70 16 98c16 29 49 49 92 49s76 -20 92 -49c15 -28 16 -45 16 -98v-1146zM182 1688c0 62 51 113 113 113s113 -51 113 -113s-51 -113 -113 -113s-113 51 -113 113
z" />
    <glyph glyph-name="dotlessi" unicode="&#x131;" horiz-adv-x="528" 
d="M366 131c0 -49 -3 -67 -15 -91c-14 -27 -43 -48 -87 -48s-73 21 -87 48c-12 24 -15 42 -15 91v752c0 49 3 67 15 91c14 27 43 48 87 48s73 -21 87 -48c12 -24 15 -42 15 -91v-752z" />
    <glyph glyph-name="IJ" unicode="&#x132;" horiz-adv-x="1599" 
d="M401 139c0 -53 -1 -70 -16 -98c-16 -29 -49 -49 -92 -49s-76 20 -92 49c-15 28 -16 45 -16 98v1146c0 53 1 70 16 98c16 29 49 49 92 49s76 -20 92 -49c15 -28 16 -45 16 -98v-1146zM960 -12c-108 0 -195 24 -274 81c-34 25 -51 53 -51 89c0 27 11 52 29 70
c18 17 39 25 61 25c28 0 53 -11 82 -29c48 -30 93 -44 153 -44c162 0 258 99 258 288v817c0 53 1 70 16 98c16 29 49 49 92 49s76 -20 92 -49c15 -28 16 -45 16 -98v-835c0 -294 -212 -462 -474 -462z" />
    <glyph glyph-name="ij" unicode="&#x133;" horiz-adv-x="1056" 
d="M366 131c0 -49 -3 -67 -15 -91c-14 -27 -43 -48 -87 -48s-73 21 -87 48c-12 24 -15 42 -15 91v752c0 49 3 67 15 91c14 27 43 48 87 48s73 -21 87 -48c12 -24 15 -42 15 -91v-752zM141 1345c0 68 55 123 123 123s123 -55 123 -123s-55 -123 -123 -123s-123 55 -123 123z
M669 1345c0 68 55 123 123 123s123 -55 123 -123s-55 -123 -123 -123s-123 55 -123 123zM690 -124v1007c0 49 3 67 15 91c14 27 43 48 87 48s73 -21 87 -48c12 -24 15 -42 15 -91v-1016c0 -149 -84 -281 -275 -281h-20c-41 0 -68 6 -86 16c-24 13 -41 37 -41 71s17 59 41 72
c18 10 41 13 74 14c75 2 103 47 103 117z" />
    <glyph glyph-name="Jcircumflex" unicode="&#x134;" horiz-adv-x="1012" 
d="M375 -12c-108 0 -195 24 -274 81c-34 25 -51 53 -51 89c0 27 11 52 29 70c18 17 39 25 61 25c28 0 53 -11 82 -29c48 -30 93 -44 153 -44c162 0 258 99 258 288v817c0 53 1 70 16 98c16 29 49 49 92 49s76 -20 92 -49c15 -28 16 -45 16 -98v-835
c0 -294 -212 -462 -474 -462zM741 1913c40 0 66 -26 88 -48l166 -166c29 -29 38 -42 43 -61c8 -27 0 -55 -22 -77c-22 -21 -49 -30 -76 -22c-19 5 -33 14 -62 43l-137 138l-137 -138c-29 -29 -43 -38 -62 -43c-27 -8 -54 1 -76 22c-22 22 -30 50 -22 77c5 19 14 32 43 61
l166 166c22 22 48 48 88 48z" />
    <glyph glyph-name="jcircumflex" unicode="&#x135;" horiz-adv-x="528" 
d="M161 -124v1007c0 49 3 67 15 91c14 27 43 48 87 48s73 -21 87 -48c12 -24 15 -42 15 -91v-1016c0 -149 -84 -281 -275 -281h-20c-41 0 -68 6 -86 16c-24 13 -41 37 -41 71s17 59 41 72c18 10 41 13 74 14c75 2 103 47 103 117zM265 1548c40 0 66 -26 88 -48l166 -166
c29 -29 38 -42 43 -61c8 -27 0 -55 -22 -77c-22 -21 -49 -30 -76 -22c-19 5 -33 14 -62 43l-137 138l-137 -138c-29 -29 -43 -38 -62 -43c-27 -8 -54 1 -76 22c-22 22 -30 50 -22 77c5 19 14 32 43 61l166 166c22 22 48 48 88 48z" />
    <glyph glyph-name="Kcommaaccent" unicode="&#x136;" horiz-adv-x="1294" 
d="M401 139c0 -53 -1 -70 -16 -98c-16 -29 -49 -49 -92 -49s-76 20 -92 49c-15 28 -16 45 -16 98v1146c0 53 1 70 16 98c16 29 49 49 92 49s76 -20 92 -49c15 -28 16 -45 16 -98v-572l539 654c35 42 59 65 99 65c25 0 48 -9 67 -25c25 -21 39 -49 39 -78
c0 -30 -13 -51 -48 -93l-303 -366l390 -685c25 -44 33 -62 34 -89c1 -35 -16 -67 -53 -89c-18 -11 -39 -15 -58 -15c-54 0 -79 38 -107 88l-356 627l-243 -292v-276zM757 -273l-93 -149c-14 -22 -29 -44 -44 -55s-29 -16 -47 -16c-16 0 -33 5 -49 15c-31 20 -45 47 -43 77
c1 22 9 38 31 74l93 149c14 22 29 44 44 55s29 16 47 16c16 0 33 -5 49 -15c31 -20 45 -47 43 -77c-1 -22 -9 -38 -31 -74z" />
    <glyph glyph-name="kcommaaccent" unicode="&#x137;" horiz-adv-x="1040" 
d="M970 88c0 -31 -18 -60 -48 -79c-19 -12 -38 -17 -56 -17c-46 0 -68 27 -99 77l-246 392l-155 -180v-150c0 -49 -3 -67 -15 -91c-14 -27 -43 -48 -87 -48s-73 21 -87 48c-12 24 -15 42 -15 91v1162c0 49 3 67 15 91c14 27 43 48 87 48s73 -21 87 -48c12 -24 15 -42 15 -91
v-747l366 417c38 43 61 59 93 59c22 0 45 -8 63 -24c24 -21 32 -42 32 -66c0 -28 -11 -51 -47 -92l-209 -238l271 -428c25 -40 35 -61 35 -86zM624 -273l-93 -149c-14 -22 -29 -44 -44 -55s-29 -16 -47 -16c-16 0 -33 5 -49 15c-31 20 -45 47 -43 77c1 22 9 38 31 74l93 149
c14 22 29 44 44 55s29 16 47 16c16 0 33 -5 49 -15c31 -20 45 -47 43 -77c-1 -22 -9 -38 -31 -74z" />
    <glyph glyph-name="kgreenlandic" unicode="&#x138;" horiz-adv-x="1041" 
d="M971 88c0 -31 -18 -60 -48 -79c-19 -12 -38 -17 -56 -17c-46 0 -68 27 -99 77l-246 389l-156 -180v-147c0 -49 -3 -67 -15 -91c-14 -27 -43 -48 -87 -48s-73 21 -87 48c-12 24 -15 42 -15 91v752c0 49 3 67 15 91c14 27 43 48 87 48s73 -21 87 -48c12 -24 15 -42 15 -91
v-337l366 417c38 43 61 59 93 59c22 0 45 -8 63 -24c24 -21 32 -42 32 -66c0 -28 -11 -51 -47 -92l-209 -238l272 -428c25 -40 35 -61 35 -86z" />
    <glyph glyph-name="Lacute" unicode="&#x139;" horiz-adv-x="1145" 
d="M317 0c-32 0 -70 0 -101 31s-31 69 -31 101v1153c0 53 1 70 16 98c16 29 49 49 92 49s76 -20 92 -49c15 -28 16 -45 16 -98v-1093h562c46 0 66 -2 88 -14c26 -15 44 -44 44 -82s-18 -67 -44 -82c-22 -12 -42 -14 -88 -14h-646zM502 1760l-93 -149
c-14 -22 -29 -44 -44 -55s-29 -16 -47 -16c-16 0 -33 5 -49 15c-31 20 -45 47 -43 77c1 22 9 38 31 74l93 149c14 22 29 44 44 55s29 16 47 16c16 0 33 -5 49 -15c31 -20 45 -47 43 -77c-1 -22 -9 -38 -31 -74z" />
    <glyph glyph-name="lacute" unicode="&#x13a;" horiz-adv-x="613" 
d="M157 281v1014c0 49 3 67 15 91c14 27 43 48 87 48s73 -21 87 -48c12 -24 15 -42 15 -91v-1005c0 -70 28 -115 103 -117c33 -1 56 -4 74 -14c24 -13 41 -38 41 -72s-17 -58 -41 -71c-18 -10 -45 -16 -86 -16h-20c-191 0 -275 132 -275 281zM460 1752l-93 -149
c-14 -22 -29 -44 -44 -55s-29 -16 -47 -16c-16 0 -33 5 -49 15c-31 20 -45 47 -43 77c1 22 9 38 31 74l93 149c14 22 29 44 44 55s29 16 47 16c16 0 33 -5 49 -15c31 -20 45 -47 43 -77c-1 -22 -9 -38 -31 -74z" />
    <glyph glyph-name="Lcommaaccent" unicode="&#x13b;" horiz-adv-x="1145" 
d="M317 0c-32 0 -70 0 -101 31s-31 69 -31 101v1153c0 53 1 70 16 98c16 29 49 49 92 49s76 -20 92 -49c15 -28 16 -45 16 -98v-1093h562c46 0 66 -2 88 -14c26 -15 44 -44 44 -82s-18 -67 -44 -82c-22 -12 -42 -14 -88 -14h-646zM685 -273l-93 -149
c-14 -22 -29 -44 -44 -55s-29 -16 -47 -16c-16 0 -33 5 -49 15c-31 20 -45 47 -43 77c1 22 9 38 31 74l93 149c14 22 29 44 44 55s29 16 47 16c16 0 33 -5 49 -15c31 -20 45 -47 43 -77c-1 -22 -9 -38 -31 -74z" />
    <glyph glyph-name="lcommaaccent" unicode="&#x13c;" horiz-adv-x="613" 
d="M157 281v1014c0 49 3 67 15 91c14 27 43 48 87 48s73 -21 87 -48c12 -24 15 -42 15 -91v-1005c0 -70 28 -115 103 -117c33 -1 56 -4 74 -14c24 -13 41 -38 41 -72s-17 -58 -41 -71c-18 -10 -45 -16 -86 -16h-20c-191 0 -275 132 -275 281zM424 -273l-93 -149
c-14 -22 -29 -44 -44 -55s-29 -16 -47 -16c-16 0 -33 5 -49 15c-31 20 -45 47 -43 77c1 22 9 38 31 74l93 149c14 22 29 44 44 55s29 16 47 16c16 0 33 -5 49 -15c31 -20 45 -47 43 -77c-1 -22 -9 -38 -31 -74z" />
    <glyph glyph-name="Lcaron" unicode="&#x13d;" horiz-adv-x="1145" 
d="M317 0c-32 0 -70 0 -101 31s-31 69 -31 101v1153c0 53 1 70 16 98c16 29 49 49 92 49s76 -20 92 -49c15 -28 16 -45 16 -98v-1093h562c46 0 66 -2 88 -14c26 -15 44 -44 44 -82s-18 -67 -44 -82c-22 -12 -42 -14 -88 -14h-646zM853 1378l-54 -162
c-12 -36 -19 -54 -35 -70c-14 -13 -33 -22 -56 -22c-42 0 -79 25 -89 61c-8 28 0 53 11 87l54 162c12 36 19 54 35 70c14 13 33 22 56 22c42 0 79 -25 89 -61c8 -28 0 -53 -11 -87z" />
    <glyph glyph-name="lcaron" unicode="&#x13e;" horiz-adv-x="613" 
d="M157 281v1014c0 49 3 67 15 91c14 27 43 48 87 48s73 -21 87 -48c12 -24 15 -42 15 -91v-1005c0 -70 28 -115 103 -117c33 -1 56 -4 74 -14c24 -13 41 -38 41 -72s-17 -58 -41 -71c-18 -10 -45 -16 -86 -16h-20c-191 0 -275 132 -275 281zM714 1378l-54 -162
c-12 -36 -19 -54 -35 -70c-14 -13 -33 -22 -56 -22c-42 0 -79 25 -89 61c-8 28 0 53 11 87l54 162c12 36 19 54 35 70c14 13 33 22 56 22c42 0 79 -25 89 -61c8 -28 0 -53 -11 -87z" />
    <glyph glyph-name="Ldot" unicode="&#x13f;" horiz-adv-x="1148" 
d="M764 712c0 62 51 113 113 113s113 -51 113 -113s-51 -113 -113 -113s-113 51 -113 113zM317 0c-32 0 -70 0 -101 31s-31 69 -31 101v1153c0 53 1 70 16 98c16 29 49 49 92 49s76 -20 92 -49c15 -28 16 -45 16 -98v-1093h562c46 0 66 -2 88 -14c26 -15 44 -44 44 -82
s-18 -67 -44 -82c-22 -12 -42 -14 -88 -14h-646z" />
    <glyph glyph-name="ldot" unicode="&#x140;" horiz-adv-x="779" 
d="M157 281v1014c0 49 3 67 15 91c14 27 43 48 87 48s73 -21 87 -48c12 -24 15 -42 15 -91v-1005c0 -70 28 -115 103 -117c33 -1 56 -4 74 -14c24 -13 41 -38 41 -72s-17 -58 -41 -71c-18 -10 -45 -16 -86 -16h-20c-191 0 -275 132 -275 281zM535 547c0 62 51 113 113 113
s113 -51 113 -113s-51 -113 -113 -113s-113 51 -113 113z" />
    <glyph glyph-name="Lslash" unicode="&#x141;" horiz-adv-x="1185" 
d="M357 0c-32 0 -70 0 -101 31s-31 69 -31 101v413l-23 -11c-36 -18 -50 -23 -72 -23c-21 0 -40 9 -55 24c-16 15 -27 41 -27 65c0 45 30 66 77 89l100 50v546c0 53 1 70 16 98c16 29 49 49 92 49s76 -20 92 -49c15 -28 16 -45 16 -98v-438l176 89c36 18 50 23 72 23
c21 0 40 -9 55 -24c16 -15 27 -41 27 -65c0 -45 -30 -66 -77 -89l-253 -127v-462h562c46 0 66 -2 88 -14c26 -15 44 -44 44 -82s-18 -67 -44 -82c-22 -12 -42 -14 -88 -14h-646z" />
    <glyph glyph-name="lslash" unicode="&#x142;" horiz-adv-x="673" 
d="M405 750v-460c0 -70 28 -115 103 -117c33 -1 56 -4 74 -14c24 -13 41 -38 41 -72s-17 -58 -41 -71c-18 -10 -45 -16 -86 -16h-20c-191 0 -275 132 -275 281v367l-19 -9c-32 -16 -47 -21 -66 -21c-27 0 -51 14 -66 44c-6 12 -9 25 -9 39c0 15 5 29 14 40
c12 15 26 24 57 40l89 44v468c0 49 3 67 15 91c14 27 43 48 87 48s73 -21 87 -48c12 -24 15 -42 15 -91v-366l67 34c32 16 47 21 66 21c27 0 51 -14 66 -44c6 -12 9 -25 9 -39c0 -15 -5 -29 -14 -40c-12 -15 -26 -24 -57 -40z" />
    <glyph glyph-name="Nacute" unicode="&#x143;" horiz-adv-x="1443" 
d="M401 1000v-861c0 -53 -1 -70 -16 -98c-16 -29 -49 -49 -92 -49s-76 20 -92 49c-15 28 -16 45 -16 98v1155c0 47 7 80 31 104c22 22 49 34 82 34c51 0 83 -31 126 -95l618 -913v861c0 53 1 70 16 98c16 29 49 49 92 49s76 -20 92 -49c15 -28 16 -45 16 -98v-1156
c0 -47 -7 -79 -31 -103c-22 -22 -49 -34 -82 -34c-51 0 -83 31 -126 95zM923 1760l-93 -149c-14 -22 -29 -44 -44 -55s-29 -16 -47 -16c-16 0 -33 5 -49 15c-31 20 -45 47 -43 77c1 22 9 38 31 74l93 149c14 22 29 44 44 55s29 16 47 16c16 0 33 -5 49 -15
c31 -20 45 -47 43 -77c-1 -22 -9 -38 -31 -74z" />
    <glyph glyph-name="nacute" unicode="&#x144;" horiz-adv-x="1136" 
d="M366 618v-487c0 -49 -3 -67 -15 -91c-14 -27 -43 -48 -87 -48s-73 21 -87 48c-12 24 -15 42 -15 91v751c0 56 4 74 18 97c17 27 50 43 84 43c33 0 64 -13 83 -40c10 -15 16 -30 18 -67c70 74 166 111 267 111c104 0 190 -34 250 -92c78 -76 102 -172 102 -286v-517
c0 -49 -3 -67 -15 -91c-14 -27 -43 -48 -87 -48s-73 21 -87 48c-12 24 -15 42 -15 91v487c0 158 -90 224 -204 224s-210 -68 -210 -224zM779 1399l-93 -149c-14 -22 -29 -44 -44 -55s-29 -16 -47 -16c-16 0 -33 5 -49 15c-31 20 -45 47 -43 77c1 22 9 38 31 74l93 149
c14 22 29 44 44 55s29 16 47 16c16 0 33 -5 49 -15c31 -20 45 -47 43 -77c-1 -22 -9 -38 -31 -74z" />
    <glyph glyph-name="Ncommaaccent" unicode="&#x145;" horiz-adv-x="1443" 
d="M401 1000v-861c0 -53 -1 -70 -16 -98c-16 -29 -49 -49 -92 -49s-76 20 -92 49c-15 28 -16 45 -16 98v1155c0 47 7 80 31 104c22 22 49 34 82 34c51 0 83 -31 126 -95l618 -913v861c0 53 1 70 16 98c16 29 49 49 92 49s76 -20 92 -49c15 -28 16 -45 16 -98v-1156
c0 -47 -7 -79 -31 -103c-22 -22 -49 -34 -82 -34c-51 0 -83 31 -126 95zM796 -273l-93 -149c-14 -22 -29 -44 -44 -55s-29 -16 -47 -16c-16 0 -33 5 -49 15c-31 20 -45 47 -43 77c1 22 9 38 31 74l93 149c14 22 29 44 44 55s29 16 47 16c16 0 33 -5 49 -15
c31 -20 45 -47 43 -77c-1 -22 -9 -38 -31 -74z" />
    <glyph glyph-name="ncommaaccent" unicode="&#x146;" horiz-adv-x="1136" 
d="M366 618v-487c0 -49 -3 -67 -15 -91c-14 -27 -43 -48 -87 -48s-73 21 -87 48c-12 24 -15 42 -15 91v751c0 56 4 74 18 97c17 27 50 43 84 43c33 0 64 -13 83 -40c10 -15 16 -30 18 -67c70 74 166 111 267 111c104 0 190 -34 250 -92c78 -76 102 -172 102 -286v-517
c0 -49 -3 -67 -15 -91c-14 -27 -43 -48 -87 -48s-73 21 -87 48c-12 24 -15 42 -15 91v487c0 158 -90 224 -204 224s-210 -68 -210 -224zM649 -273l-93 -149c-14 -22 -29 -44 -44 -55s-29 -16 -47 -16c-16 0 -33 5 -49 15c-31 20 -45 47 -43 77c1 22 9 38 31 74l93 149
c14 22 29 44 44 55s29 16 47 16c16 0 33 -5 49 -15c31 -20 45 -47 43 -77c-1 -22 -9 -38 -31 -74z" />
    <glyph glyph-name="Ncaron" unicode="&#x147;" horiz-adv-x="1443" 
d="M401 1000v-861c0 -53 -1 -70 -16 -98c-16 -29 -49 -49 -92 -49s-76 20 -92 49c-15 28 -16 45 -16 98v1155c0 47 7 80 31 104c22 22 49 34 82 34c51 0 83 -31 126 -95l618 -913v861c0 53 1 70 16 98c16 29 49 49 92 49s76 -20 92 -49c15 -28 16 -45 16 -98v-1156
c0 -47 -7 -79 -31 -103c-22 -22 -49 -34 -82 -34c-51 0 -83 31 -126 95zM423 1807c-7 27 1 54 23 76c21 22 49 30 76 23c19 -6 33 -15 61 -43l138 -138l138 138c28 28 42 37 61 43c27 7 54 -1 76 -23s30 -49 23 -76c-6 -19 -15 -33 -43 -61l-167 -167
c-21 -21 -48 -47 -88 -47s-67 26 -88 47l-167 167c-28 28 -37 42 -43 61z" />
    <glyph glyph-name="ncaron" unicode="&#x148;" horiz-adv-x="1136" 
d="M366 618v-487c0 -49 -3 -67 -15 -91c-14 -27 -43 -48 -87 -48s-73 21 -87 48c-12 24 -15 42 -15 91v751c0 56 4 74 18 97c17 27 50 43 84 43c33 0 64 -13 83 -40c10 -15 16 -30 18 -67c70 74 166 111 267 111c104 0 190 -34 250 -92c78 -76 102 -172 102 -286v-517
c0 -49 -3 -67 -15 -91c-14 -27 -43 -48 -87 -48s-73 21 -87 48c-12 24 -15 42 -15 91v487c0 158 -90 224 -204 224s-210 -68 -210 -224zM278 1442c-7 27 1 54 23 76c21 22 49 30 76 23c19 -6 33 -15 61 -43l138 -138l138 138c28 28 42 37 61 43c27 7 54 -1 76 -23
s30 -49 23 -76c-6 -19 -15 -33 -43 -61l-167 -167c-21 -21 -48 -47 -88 -47s-67 26 -88 47l-167 167c-28 28 -37 42 -43 61z" />
    <glyph glyph-name="napostrophe" unicode="&#x149;" horiz-adv-x="1529" 
d="M759 618v-487c0 -49 -3 -67 -15 -91c-14 -27 -43 -48 -87 -48s-73 21 -87 48c-12 24 -15 42 -15 91v751c0 56 4 74 18 97c17 27 50 43 84 43c33 0 64 -13 83 -40c10 -15 16 -30 18 -67c70 74 166 111 267 111c104 0 190 -34 250 -92c78 -76 102 -172 102 -286v-517
c0 -49 -3 -67 -15 -91c-14 -27 -43 -48 -87 -48s-73 21 -87 48c-12 24 -15 42 -15 91v487c0 158 -90 224 -204 224s-210 -68 -210 -224zM397 1267l-71 -211c-15 -46 -22 -63 -41 -81c-17 -16 -40 -24 -64 -24c-39 0 -94 25 -103 78c-5 26 -1 46 14 91l71 211
c15 46 22 63 41 81c17 16 40 24 64 24c39 0 94 -25 103 -78c5 -26 1 -46 -14 -91z" />
    <glyph glyph-name="Eng" unicode="&#x14a;" horiz-adv-x="1443" 
d="M1258 1285v-1418c0 -149 -84 -281 -275 -281h-20c-41 0 -68 6 -86 16c-24 13 -41 37 -41 71s17 59 41 72c18 10 41 13 74 14c75 2 103 47 103 117v164l-653 958v-859c0 -53 -1 -70 -16 -98c-16 -29 -49 -49 -92 -49s-76 20 -92 49c-15 28 -16 45 -16 98v1156
c0 47 6 77 32 104c21 22 48 33 80 33c53 0 84 -31 128 -95l617 -911v859c0 53 1 70 16 98c16 29 49 49 92 49s76 -20 92 -49c15 -28 16 -45 16 -98z" />
    <glyph glyph-name="eng" unicode="&#x14b;" horiz-adv-x="1136" 
d="M984 648v-781c0 -149 -84 -281 -275 -281h-20c-41 0 -68 6 -86 16c-24 13 -41 37 -41 71s17 59 41 72c18 10 41 13 74 14c75 2 103 47 103 117v742c0 158 -90 224 -204 224s-210 -68 -210 -224v-487c0 -49 -3 -67 -15 -91c-14 -27 -43 -48 -87 -48s-73 21 -87 48
c-12 24 -15 42 -15 91v751c0 56 4 74 18 97c17 27 50 43 84 43c33 0 64 -13 83 -40c10 -15 16 -30 18 -67c70 74 166 111 267 111c104 0 190 -34 250 -92c78 -76 102 -172 102 -286z" />
    <glyph glyph-name="Omacron" unicode="&#x14c;" horiz-adv-x="1294" 
d="M278 133c-138 138 -143 280 -143 579s5 441 143 579c92 92 212 145 369 145c156 0 276 -53 368 -145c138 -138 144 -280 144 -579s-6 -441 -144 -579c-92 -92 -212 -145 -368 -145c-157 0 -277 53 -369 145zM435 270c52 -56 125 -90 212 -90c86 0 159 34 212 90
c70 75 84 160 84 442s-14 368 -84 443c-53 56 -126 89 -212 89c-87 0 -160 -33 -212 -89c-71 -75 -84 -161 -84 -443s13 -367 84 -442zM335 1684c0 31 14 56 38 69c18 10 33 13 74 13h399c41 0 57 -3 74 -13c24 -13 38 -38 38 -69s-14 -56 -38 -69c-17 -10 -33 -13 -74 -13
h-399c-41 0 -56 3 -74 13c-24 13 -38 38 -38 69z" />
    <glyph glyph-name="omacron" unicode="&#x14d;" horiz-adv-x="1074" 
d="M319 507c0 -111 9 -216 70 -277c38 -39 86 -58 148 -58s110 19 148 58c61 61 70 166 70 277s-9 215 -70 277c-38 39 -86 58 -148 58s-110 -19 -148 -58c-61 -62 -70 -166 -70 -277zM115 507c0 171 20 297 119 399c66 68 165 120 303 120s237 -52 303 -120
c98 -102 119 -228 119 -399s-21 -297 -119 -399c-66 -68 -165 -120 -303 -120s-237 52 -303 120c-99 102 -119 228 -119 399zM848 1319c0 -31 -13 -56 -37 -69c-18 -10 -34 -13 -74 -13h-399c-40 0 -56 3 -74 13c-24 13 -38 38 -38 69s14 56 38 69c18 10 34 13 74 13h399
c40 0 56 -3 74 -13c24 -13 37 -38 37 -69z" />
    <glyph glyph-name="Obreve" unicode="&#x14e;" horiz-adv-x="1294" 
d="M278 133c-138 138 -143 280 -143 579s5 441 143 579c92 92 212 145 369 145c156 0 276 -53 368 -145c138 -138 144 -280 144 -579s-6 -441 -144 -579c-92 -92 -212 -145 -368 -145c-157 0 -277 53 -369 145zM435 270c52 -56 125 -90 212 -90c86 0 159 34 212 90
c70 75 84 160 84 442s-14 368 -84 443c-53 56 -126 89 -212 89c-87 0 -160 -33 -212 -89c-71 -75 -84 -161 -84 -443s13 -367 84 -442zM646 1714c64 0 115 30 163 72c20 17 37 25 54 26c22 1 42 -7 59 -26c15 -17 22 -37 21 -56c-1 -25 -13 -47 -45 -75
c-72 -66 -148 -102 -252 -102s-180 36 -252 102c-32 28 -44 50 -45 75c-1 19 6 39 21 56c17 19 37 27 59 26c17 -1 34 -9 54 -26c48 -42 99 -72 163 -72z" />
    <glyph glyph-name="obreve" unicode="&#x14f;" horiz-adv-x="1074" 
d="M319 507c0 -111 9 -216 70 -277c38 -39 86 -58 148 -58s110 19 148 58c61 61 70 166 70 277s-9 215 -70 277c-38 39 -86 58 -148 58s-110 -19 -148 -58c-61 -62 -70 -166 -70 -277zM115 507c0 171 20 297 119 399c66 68 165 120 303 120s237 -52 303 -120
c98 -102 119 -228 119 -399s-21 -297 -119 -399c-66 -68 -165 -120 -303 -120s-237 52 -303 120c-99 102 -119 228 -119 399zM538 1349c64 0 115 30 163 72c20 17 37 25 54 26c22 1 42 -7 59 -26c15 -17 22 -37 21 -56c-1 -25 -13 -47 -45 -75c-72 -66 -148 -102 -252 -102
s-180 36 -252 102c-32 28 -44 50 -45 75c-1 19 6 39 21 56c17 19 37 27 59 26c17 -1 34 -9 54 -26c48 -42 99 -72 163 -72z" />
    <glyph glyph-name="Ohungarumlaut" unicode="&#x150;" horiz-adv-x="1294" 
d="M278 133c-138 138 -143 280 -143 579s5 441 143 579c92 92 212 145 369 145c156 0 276 -53 368 -145c138 -138 144 -280 144 -579s-6 -441 -144 -579c-92 -92 -212 -145 -368 -145c-157 0 -277 53 -369 145zM435 270c52 -56 125 -90 212 -90c86 0 159 34 212 90
c70 75 84 160 84 442s-14 368 -84 443c-53 56 -126 89 -212 89c-87 0 -160 -33 -212 -89c-71 -75 -84 -161 -84 -443s13 -367 84 -442zM665 1760l-93 -149c-14 -22 -29 -44 -44 -55s-29 -16 -47 -16c-16 0 -33 5 -49 15c-31 20 -45 47 -43 77c1 22 9 38 31 74l93 149
c14 22 29 44 44 55s29 16 47 16c16 0 33 -5 49 -15c31 -20 45 -47 43 -77c-1 -22 -9 -38 -31 -74zM1034 1760l-93 -149c-14 -22 -29 -44 -44 -55s-29 -16 -47 -16c-16 0 -33 5 -49 15c-31 20 -45 47 -43 77c1 22 9 38 31 74l93 149c14 22 29 44 44 55s29 16 47 16
c16 0 33 -5 49 -15c31 -20 45 -47 43 -77c-1 -22 -9 -38 -31 -74z" />
    <glyph glyph-name="ohungarumlaut" unicode="&#x151;" horiz-adv-x="1074" 
d="M319 507c0 -111 9 -216 70 -277c38 -39 86 -58 148 -58s110 19 148 58c61 61 70 166 70 277s-9 215 -70 277c-38 39 -86 58 -148 58s-110 -19 -148 -58c-61 -62 -70 -166 -70 -277zM115 507c0 171 20 297 119 399c66 68 165 120 303 120s237 -52 303 -120
c98 -102 119 -228 119 -399s-21 -297 -119 -399c-66 -68 -165 -120 -303 -120s-237 52 -303 120c-99 102 -119 228 -119 399zM556 1399l-93 -149c-14 -22 -29 -44 -44 -55s-29 -16 -47 -16c-16 0 -33 5 -49 15c-31 20 -45 47 -43 77c1 22 9 38 31 74l93 149
c14 22 29 44 44 55s29 16 47 16c16 0 33 -5 49 -15c31 -20 45 -47 43 -77c-1 -22 -9 -38 -31 -74zM927 1399l-93 -149c-14 -22 -29 -44 -44 -55s-29 -16 -47 -16c-16 0 -33 5 -49 15c-31 20 -45 47 -43 77c1 22 9 38 31 74l93 149c14 22 29 44 44 55s29 16 47 16
c16 0 33 -5 49 -15c31 -20 45 -47 43 -77c-1 -22 -9 -38 -31 -74z" />
    <glyph glyph-name="OE" unicode="&#x152;" horiz-adv-x="1960" 
d="M435 270c52 -56 125 -90 212 -90c86 0 159 34 212 90c70 75 84 160 84 442s-14 368 -84 443c-53 56 -126 89 -212 89c-87 0 -160 -33 -212 -89c-71 -75 -84 -161 -84 -443s13 -367 84 -442zM1730 0h-662c-32 0 -69 0 -100 31c-17 17 -28 38 -31 56
c-75 -62 -170 -99 -290 -99c-157 0 -277 53 -369 145c-138 138 -143 280 -143 579s5 441 143 579c92 92 212 145 369 145c120 0 215 -37 290 -99c3 18 14 39 31 56c31 31 68 31 100 31h662c46 0 66 -2 88 -14c26 -15 44 -44 44 -82s-18 -67 -44 -82c-22 -12 -42 -14 -88 -14
h-572v-418h470c46 0 66 -2 88 -14c26 -15 44 -44 44 -82s-18 -67 -44 -82c-22 -12 -42 -14 -88 -14h-470v-430h572c46 0 66 -2 88 -14c26 -15 44 -44 44 -82s-18 -67 -44 -82c-22 -12 -42 -14 -88 -14z" />
    <glyph glyph-name="oe" unicode="&#x153;" horiz-adv-x="1721" 
d="M320 507c0 -111 9 -216 70 -277c38 -39 86 -58 148 -58s110 19 148 58c61 61 70 166 70 277s-9 215 -70 277c-38 39 -86 58 -148 58s-110 -19 -148 -58c-61 -62 -70 -166 -70 -277zM1415 590c-4 62 -8 94 -28 138c-34 76 -104 127 -200 127c-98 0 -168 -51 -202 -127
c-20 -44 -24 -76 -26 -138h456zM1187 1027c265 -1 423 -194 429 -462v-8c0 -28 -5 -60 -28 -83c-26 -26 -60 -26 -90 -26h-539c0 -173 91 -286 260 -286c71 0 140 20 195 64c31 25 57 37 83 37c41 0 84 -40 84 -87s-52 -91 -102 -123c-64 -42 -156 -65 -266 -65
c-147 0 -272 48 -351 160c-65 -98 -178 -160 -324 -160c-138 0 -237 52 -303 120c-99 102 -120 228 -120 399s21 297 120 399c66 68 165 121 303 121c148 0 261 -63 327 -163c71 106 182 163 322 163z" />
    <glyph glyph-name="Racute" unicode="&#x154;" horiz-adv-x="1313" 
d="M201 41c-15 28 -16 45 -16 98v1153c0 32 0 70 31 101s69 31 101 31h420c270 0 442 -174 442 -416c0 -203 -123 -333 -282 -378l255 -445c25 -44 33 -62 34 -89c1 -35 -16 -67 -53 -89c-18 -11 -39 -15 -58 -15c-54 0 -79 38 -107 88l-297 520h-270v-461
c0 -53 -1 -70 -16 -98c-16 -29 -49 -49 -92 -49s-76 20 -92 49zM721 1232h-320v-448h320c144 0 242 82 242 222c0 141 -98 226 -242 226zM856 1760l-93 -149c-14 -22 -29 -44 -44 -55s-29 -16 -47 -16c-16 0 -33 5 -49 15c-31 20 -45 47 -43 77c1 22 9 38 31 74l93 149
c14 22 29 44 44 55s29 16 47 16c16 0 33 -5 49 -15c31 -20 45 -47 43 -77c-1 -22 -9 -38 -31 -74z" />
    <glyph glyph-name="racute" unicode="&#x155;" horiz-adv-x="880" 
d="M365 908c57 71 152 118 258 118c75 0 129 -14 178 -47c35 -23 61 -53 61 -92c0 -29 -12 -56 -30 -74c-17 -17 -44 -28 -70 -28c-21 0 -44 7 -79 27c-34 19 -70 30 -110 30c-116 0 -207 -86 -207 -227v-484c0 -49 -3 -67 -15 -91c-14 -27 -43 -48 -87 -48s-73 21 -87 48
c-12 24 -15 42 -15 91v751c0 56 4 74 18 97c17 27 50 43 84 43c33 0 64 -13 83 -40c11 -16 16 -31 18 -74zM640 1399l-93 -149c-14 -22 -29 -44 -44 -55s-29 -16 -47 -16c-16 0 -33 5 -49 15c-31 20 -45 47 -43 77c1 22 9 38 31 74l93 149c14 22 29 44 44 55s29 16 47 16
c16 0 33 -5 49 -15c31 -20 45 -47 43 -77c-1 -22 -9 -38 -31 -74z" />
    <glyph glyph-name="Rcommaaccent" unicode="&#x156;" horiz-adv-x="1313" 
d="M201 41c-15 28 -16 45 -16 98v1153c0 32 0 70 31 101s69 31 101 31h420c270 0 442 -174 442 -416c0 -203 -123 -333 -282 -378l255 -445c25 -44 33 -62 34 -89c1 -35 -16 -67 -53 -89c-18 -11 -39 -15 -58 -15c-54 0 -79 38 -107 88l-297 520h-270v-461
c0 -53 -1 -70 -16 -98c-16 -29 -49 -49 -92 -49s-76 20 -92 49zM721 1232h-320v-448h320c144 0 242 82 242 222c0 141 -98 226 -242 226zM741 -273l-93 -149c-14 -22 -29 -44 -44 -55s-29 -16 -47 -16c-16 0 -33 5 -49 15c-31 20 -45 47 -43 77c1 22 9 38 31 74l93 149
c14 22 29 44 44 55s29 16 47 16c16 0 33 -5 49 -15c31 -20 45 -47 43 -77c-1 -22 -9 -38 -31 -74z" />
    <glyph glyph-name="rcommaaccent" unicode="&#x157;" horiz-adv-x="880" 
d="M365 908c57 71 152 118 258 118c75 0 129 -14 178 -47c35 -23 61 -53 61 -92c0 -29 -12 -56 -30 -74c-17 -17 -44 -28 -70 -28c-21 0 -44 7 -79 27c-34 19 -70 30 -110 30c-116 0 -207 -86 -207 -227v-484c0 -49 -3 -67 -15 -91c-14 -27 -43 -48 -87 -48s-73 21 -87 48
c-12 24 -15 42 -15 91v751c0 56 4 74 18 97c17 27 50 43 84 43c33 0 64 -13 83 -40c11 -16 16 -31 18 -74zM312 -273l-93 -149c-14 -22 -29 -44 -44 -55s-29 -16 -47 -16c-16 0 -33 5 -49 15c-31 20 -45 47 -43 77c1 22 9 38 31 74l93 149c14 22 29 44 44 55s29 16 47 16
c16 0 33 -5 49 -15c31 -20 45 -47 43 -77c-1 -22 -9 -38 -31 -74z" />
    <glyph glyph-name="Rcaron" unicode="&#x158;" horiz-adv-x="1313" 
d="M201 41c-15 28 -16 45 -16 98v1153c0 32 0 70 31 101s69 31 101 31h420c270 0 442 -174 442 -416c0 -203 -123 -333 -282 -378l255 -445c25 -44 33 -62 34 -89c1 -35 -16 -67 -53 -89c-18 -11 -39 -15 -58 -15c-54 0 -79 38 -107 88l-297 520h-270v-461
c0 -53 -1 -70 -16 -98c-16 -29 -49 -49 -92 -49s-76 20 -92 49zM721 1232h-320v-448h320c144 0 242 82 242 222c0 141 -98 226 -242 226zM356 1807c-7 27 1 54 23 76c21 22 49 30 76 23c19 -6 33 -15 61 -43l138 -138l138 138c28 28 42 37 61 43c27 7 54 -1 76 -23
s30 -49 23 -76c-6 -19 -15 -33 -43 -61l-167 -167c-21 -21 -48 -47 -88 -47s-67 26 -88 47l-167 167c-28 28 -37 42 -43 61z" />
    <glyph glyph-name="rcaron" unicode="&#x159;" horiz-adv-x="880" 
d="M365 908c57 71 152 118 258 118c75 0 129 -14 178 -47c35 -23 61 -53 61 -92c0 -29 -12 -56 -30 -74c-17 -17 -44 -28 -70 -28c-21 0 -44 7 -79 27c-34 19 -70 30 -110 30c-116 0 -207 -86 -207 -227v-484c0 -49 -3 -67 -15 -91c-14 -27 -43 -48 -87 -48s-73 21 -87 48
c-12 24 -15 42 -15 91v751c0 56 4 74 18 97c17 27 50 43 84 43c33 0 64 -13 83 -40c11 -16 16 -31 18 -74zM139 1442c-7 27 1 54 23 76c21 22 49 30 76 23c19 -6 33 -15 61 -43l138 -138l138 138c28 28 42 37 61 43c27 7 54 -1 76 -23s30 -49 23 -76c-6 -19 -15 -33 -43 -61
l-167 -167c-21 -21 -48 -47 -88 -47s-67 26 -88 47l-167 167c-28 28 -37 42 -43 61z" />
    <glyph glyph-name="Sacute" unicode="&#x15a;" horiz-adv-x="1182" 
d="M571 180c188 0 294 80 294 220c0 64 -16 114 -56 148c-36 32 -84 50 -155 60l-169 24c-115 17 -202 53 -269 115c-71 65 -105 157 -105 273c0 248 180 416 476 416c135 0 217 -22 335 -84c50 -26 87 -63 87 -109c0 -23 -8 -46 -25 -66c-16 -19 -37 -31 -66 -31
c-23 0 -58 13 -87 31c-85 52 -152 70 -252 70c-168 0 -258 -91 -258 -221c0 -52 14 -100 52 -132c36 -32 78 -52 156 -64l170 -26c130 -20 202 -50 264 -106c76 -70 116 -168 116 -292c0 -262 -212 -418 -512 -418c-171 0 -278 33 -383 96c-74 44 -101 74 -101 126
c0 24 11 52 30 71c18 18 40 26 63 26c28 0 53 -9 92 -36c96 -66 180 -91 303 -91zM792 1760l-93 -149c-14 -22 -29 -44 -44 -55s-29 -16 -47 -16c-16 0 -33 5 -49 15c-31 20 -45 47 -43 77c1 22 9 38 31 74l93 149c14 22 29 44 44 55s29 16 47 16c16 0 33 -5 49 -15
c31 -20 45 -47 43 -77c-1 -22 -9 -38 -31 -74z" />
    <glyph glyph-name="sacute" unicode="&#x15b;" horiz-adv-x="999" 
d="M489 -12c-158 0 -262 30 -353 92c-32 22 -56 50 -56 85c0 26 12 53 33 70c16 14 34 21 56 21c21 0 45 -9 76 -29c71 -46 142 -68 245 -68c130 0 223 46 223 143c0 68 -39 111 -137 120l-163 15c-189 17 -300 102 -300 278c0 199 171 311 383 311c109 0 194 -19 273 -56
c34 -16 53 -29 66 -43c15 -18 19 -33 19 -56c0 -20 -11 -45 -25 -60c-17 -17 -36 -26 -60 -26c-19 0 -39 8 -66 21c-64 31 -133 53 -211 53c-121 0 -182 -56 -182 -133c0 -75 47 -108 140 -116l160 -15c189 -18 301 -105 301 -286c0 -211 -180 -321 -422 -321zM714 1399
l-93 -149c-14 -22 -29 -44 -44 -55s-29 -16 -47 -16c-16 0 -33 5 -49 15c-31 20 -45 47 -43 77c1 22 9 38 31 74l93 149c14 22 29 44 44 55s29 16 47 16c16 0 33 -5 49 -15c31 -20 45 -47 43 -77c-1 -22 -9 -38 -31 -74z" />
    <glyph glyph-name="Scircumflex" unicode="&#x15c;" horiz-adv-x="1182" 
d="M571 180c188 0 294 80 294 220c0 64 -16 114 -56 148c-36 32 -84 50 -155 60l-169 24c-115 17 -202 53 -269 115c-71 65 -105 157 -105 273c0 248 180 416 476 416c135 0 217 -22 335 -84c50 -26 87 -63 87 -109c0 -23 -8 -46 -25 -66c-16 -19 -37 -31 -66 -31
c-23 0 -58 13 -87 31c-85 52 -152 70 -252 70c-168 0 -258 -91 -258 -221c0 -52 14 -100 52 -132c36 -32 78 -52 156 -64l170 -26c130 -20 202 -50 264 -106c76 -70 116 -168 116 -292c0 -262 -212 -418 -512 -418c-171 0 -278 33 -383 96c-74 44 -101 74 -101 126
c0 24 11 52 30 71c18 18 40 26 63 26c28 0 53 -9 92 -36c96 -66 180 -91 303 -91zM590 1913c40 0 66 -26 88 -48l166 -166c29 -29 38 -42 43 -61c8 -27 0 -55 -22 -77c-22 -21 -49 -30 -76 -22c-19 5 -33 14 -62 43l-137 138l-137 -138c-29 -29 -43 -38 -62 -43
c-27 -8 -54 1 -76 22c-22 22 -30 50 -22 77c5 19 14 32 43 61l166 166c22 22 48 48 88 48z" />
    <glyph glyph-name="scircumflex" unicode="&#x15d;" horiz-adv-x="999" 
d="M489 -12c-158 0 -262 30 -353 92c-32 22 -56 50 -56 85c0 26 12 53 33 70c16 14 34 21 56 21c21 0 45 -9 76 -29c71 -46 142 -68 245 -68c130 0 223 46 223 143c0 68 -39 111 -137 120l-163 15c-189 17 -300 102 -300 278c0 199 171 311 383 311c109 0 194 -19 273 -56
c34 -16 53 -29 66 -43c15 -18 19 -33 19 -56c0 -20 -11 -45 -25 -60c-17 -17 -36 -26 -60 -26c-19 0 -39 8 -66 21c-64 31 -133 53 -211 53c-121 0 -182 -56 -182 -133c0 -75 47 -108 140 -116l160 -15c189 -18 301 -105 301 -286c0 -211 -180 -321 -422 -321zM511 1548
c40 0 66 -26 88 -48l166 -166c29 -29 38 -42 43 -61c8 -27 0 -55 -22 -77c-22 -21 -49 -30 -76 -22c-19 5 -33 14 -62 43l-137 138l-137 -138c-29 -29 -43 -38 -62 -43c-27 -8 -54 1 -76 22c-22 22 -30 50 -22 77c5 19 14 32 43 61l166 166c22 22 48 48 88 48z" />
    <glyph glyph-name="Scedilla" unicode="&#x15e;" horiz-adv-x="1182" 
d="M571 180c188 0 294 80 294 220c0 64 -16 114 -56 148c-36 32 -84 50 -155 60l-169 24c-115 17 -202 53 -269 115c-71 65 -105 157 -105 273c0 248 180 416 476 416c135 0 217 -22 335 -84c50 -26 87 -63 87 -109c0 -23 -8 -46 -25 -66c-16 -19 -37 -31 -66 -31
c-23 0 -58 13 -87 31c-85 52 -152 70 -252 70c-168 0 -258 -91 -258 -221c0 -52 14 -100 52 -132c36 -32 78 -52 156 -64l170 -26c130 -20 202 -50 264 -106c76 -70 116 -168 116 -292c0 -262 -212 -418 -512 -418c-171 0 -278 33 -383 96c-74 44 -101 74 -101 126
c0 24 11 52 30 71c18 18 40 26 63 26c28 0 53 -9 92 -36c96 -66 180 -91 303 -91zM385 -478c-31 19 -46 47 -44 77c1 22 9 38 32 74l93 149c14 22 28 44 44 55c15 11 29 16 47 16c16 0 33 -5 49 -15c31 -20 45 -47 43 -77c-1 -22 -9 -38 -31 -74l-93 -149
c-15 -24 -28 -44 -44 -56c-15 -10 -29 -15 -47 -15c-17 0 -34 5 -49 15z" />
    <glyph glyph-name="scedilla" unicode="&#x15f;" horiz-adv-x="999" 
d="M489 -12c-158 0 -262 30 -353 92c-32 22 -56 50 -56 85c0 26 12 53 33 70c16 14 34 21 56 21c21 0 45 -9 76 -29c71 -46 142 -68 245 -68c130 0 223 46 223 143c0 68 -39 111 -137 120l-163 15c-189 17 -300 102 -300 278c0 199 171 311 383 311c109 0 194 -19 273 -56
c34 -16 53 -29 66 -43c15 -18 19 -33 19 -56c0 -20 -11 -45 -25 -60c-17 -17 -36 -26 -60 -26c-19 0 -39 8 -66 21c-64 31 -133 53 -211 53c-121 0 -182 -56 -182 -133c0 -75 47 -108 140 -116l160 -15c189 -18 301 -105 301 -286c0 -211 -180 -321 -422 -321zM325 -478
c-31 19 -46 47 -44 77c1 22 9 38 32 74l93 149c14 22 28 44 44 55c15 11 29 16 47 16c16 0 33 -5 49 -15c31 -20 45 -47 43 -77c-1 -22 -9 -38 -31 -74l-93 -149c-15 -24 -28 -44 -44 -56c-15 -10 -29 -15 -47 -15c-17 0 -34 5 -49 15z" />
    <glyph glyph-name="Scaron" unicode="&#x160;" horiz-adv-x="1182" 
d="M571 180c188 0 294 80 294 220c0 64 -16 114 -56 148c-36 32 -84 50 -155 60l-169 24c-115 17 -202 53 -269 115c-71 65 -105 157 -105 273c0 248 180 416 476 416c135 0 217 -22 335 -84c50 -26 87 -63 87 -109c0 -23 -8 -46 -25 -66c-16 -19 -37 -31 -66 -31
c-23 0 -58 13 -87 31c-85 52 -152 70 -252 70c-168 0 -258 -91 -258 -221c0 -52 14 -100 52 -132c36 -32 78 -52 156 -64l170 -26c130 -20 202 -50 264 -106c76 -70 116 -168 116 -292c0 -262 -212 -418 -512 -418c-171 0 -278 33 -383 96c-74 44 -101 74 -101 126
c0 24 11 52 30 71c18 18 40 26 63 26c28 0 53 -9 92 -36c96 -66 180 -91 303 -91zM292 1807c-7 27 1 54 23 76c21 22 49 30 76 23c19 -6 33 -15 61 -43l138 -138l138 138c28 28 42 37 61 43c27 7 54 -1 76 -23s30 -49 23 -76c-6 -19 -15 -33 -43 -61l-167 -167
c-21 -21 -48 -47 -88 -47s-67 26 -88 47l-167 167c-28 28 -37 42 -43 61z" />
    <glyph glyph-name="scaron" unicode="&#x161;" horiz-adv-x="999" 
d="M489 -12c-158 0 -262 30 -353 92c-32 22 -56 50 -56 85c0 26 12 53 33 70c16 14 34 21 56 21c21 0 45 -9 76 -29c71 -46 142 -68 245 -68c130 0 223 46 223 143c0 68 -39 111 -137 120l-163 15c-189 17 -300 102 -300 278c0 199 171 311 383 311c109 0 194 -19 273 -56
c34 -16 53 -29 66 -43c15 -18 19 -33 19 -56c0 -20 -11 -45 -25 -60c-17 -17 -36 -26 -60 -26c-19 0 -39 8 -66 21c-64 31 -133 53 -211 53c-121 0 -182 -56 -182 -133c0 -75 47 -108 140 -116l160 -15c189 -18 301 -105 301 -286c0 -211 -180 -321 -422 -321zM213 1442
c-7 27 1 54 23 76c21 22 49 30 76 23c19 -6 33 -15 61 -43l138 -138l138 138c28 28 42 37 61 43c27 7 54 -1 76 -23s30 -49 23 -76c-6 -19 -15 -33 -43 -61l-167 -167c-21 -21 -48 -47 -88 -47s-67 26 -88 47l-167 167c-28 28 -37 42 -43 61z" />
    <glyph glyph-name="Tcommaaccent" unicode="&#x162;" horiz-adv-x="1116" 
d="M1066 1328c0 -38 -18 -67 -44 -82c-22 -12 -42 -14 -88 -14h-268v-1093c0 -53 -1 -70 -16 -98c-16 -29 -49 -49 -92 -49s-76 20 -92 49c-15 28 -16 45 -16 98v1093h-268c-46 0 -66 2 -88 14c-26 15 -44 44 -44 82s18 67 44 82c22 12 42 14 88 14h752c46 0 66 -2 88 -14
c26 -15 44 -44 44 -82zM374 -478c-31 19 -46 47 -44 77c1 22 9 38 32 74l93 149c14 22 28 44 44 55c15 11 29 16 47 16c16 0 33 -5 49 -15c31 -20 45 -47 43 -77c-1 -22 -9 -38 -31 -74l-93 -149c-15 -24 -28 -44 -44 -56c-15 -10 -29 -15 -47 -15c-17 0 -34 5 -49 15z" />
    <glyph glyph-name="tcommaaccent" unicode="&#x163;" horiz-adv-x="703" 
d="M204 281v577h-47c-38 0 -53 2 -71 12c-23 13 -36 36 -36 66s13 53 36 66c18 10 33 12 71 12h47v159c0 49 3 67 15 91c14 27 43 48 87 48s73 -21 87 -48c12 -24 15 -42 15 -91v-159h110c38 0 53 -2 71 -12c23 -13 36 -36 36 -66s-13 -53 -36 -66c-18 -10 -33 -12 -71 -12
h-110v-568c0 -70 28 -115 103 -117c33 -1 56 -4 74 -14c24 -13 41 -38 41 -72s-17 -58 -41 -71c-18 -10 -45 -16 -86 -16h-20c-191 0 -275 132 -275 281zM446 -273l-93 -149c-14 -22 -29 -44 -44 -55s-29 -16 -47 -16c-16 0 -33 5 -49 15c-31 20 -45 47 -43 77
c1 22 9 38 31 74l93 149c14 22 29 44 44 55s29 16 47 16c16 0 33 -5 49 -15c31 -20 45 -47 43 -77c-1 -22 -9 -38 -31 -74z" />
    <glyph glyph-name="Tcaron" unicode="&#x164;" horiz-adv-x="1116" 
d="M1066 1328c0 -38 -18 -67 -44 -82c-22 -12 -42 -14 -88 -14h-268v-1093c0 -53 -1 -70 -16 -98c-16 -29 -49 -49 -92 -49s-76 20 -92 49c-15 28 -16 45 -16 98v1093h-268c-46 0 -66 2 -88 14c-26 15 -44 44 -44 82s18 67 44 82c22 12 42 14 88 14h752c46 0 66 -2 88 -14
c26 -15 44 -44 44 -82zM259 1807c-7 27 1 54 23 76c21 22 49 30 76 23c19 -6 33 -15 61 -43l138 -138l138 138c28 28 42 37 61 43c27 7 54 -1 76 -23s30 -49 23 -76c-6 -19 -15 -33 -43 -61l-167 -167c-21 -21 -48 -47 -88 -47s-67 26 -88 47l-167 167c-28 28 -37 42 -43 61
z" />
    <glyph glyph-name="tcaron" unicode="&#x165;" horiz-adv-x="703" 
d="M204 281v577h-47c-38 0 -53 2 -71 12c-23 13 -36 36 -36 66s13 53 36 66c18 10 33 12 71 12h47v159c0 49 3 67 15 91c14 27 43 48 87 48s73 -21 87 -48c12 -24 15 -42 15 -91v-159h110c38 0 53 -2 71 -12c23 -13 36 -36 36 -66s-13 -53 -36 -66c-18 -10 -33 -12 -71 -12
h-110v-568c0 -70 28 -115 103 -117c33 -1 56 -4 74 -14c24 -13 41 -38 41 -72s-17 -58 -41 -71c-18 -10 -45 -16 -86 -16h-20c-191 0 -275 132 -275 281zM754 1378l-54 -162c-12 -36 -19 -54 -35 -70c-14 -13 -33 -22 -56 -22c-42 0 -79 25 -89 61c-8 28 0 53 11 87l54 162
c12 36 19 54 35 70c14 13 33 22 56 22c42 0 79 -25 89 -61c8 -28 0 -53 -11 -87z" />
    <glyph glyph-name="Tbar" unicode="&#x166;" horiz-adv-x="1116" 
d="M328 804h122v428h-268c-46 0 -66 2 -88 14c-26 15 -44 44 -44 82s18 67 44 82c22 12 42 14 88 14h752c46 0 66 -2 88 -14c26 -15 44 -44 44 -82s-18 -67 -44 -82c-22 -12 -42 -14 -88 -14h-268v-428h122c42 0 60 -2 79 -13c24 -14 39 -40 39 -73s-15 -59 -39 -73
c-19 -11 -37 -13 -79 -13h-122v-493c0 -53 -1 -70 -16 -98c-16 -29 -49 -49 -92 -49s-76 20 -92 49c-15 28 -16 45 -16 98v493h-122c-41 0 -59 2 -78 13c-24 14 -39 40 -39 73s15 59 39 73c19 11 37 13 78 13z" />
    <glyph glyph-name="tbar" unicode="&#x167;" horiz-adv-x="703" 
d="M496 479h-88v-189c0 -70 28 -115 103 -117c33 -1 56 -4 74 -14c24 -13 41 -38 41 -72s-17 -58 -41 -71c-18 -10 -45 -16 -86 -16h-20c-191 0 -275 132 -275 281v198h-47c-38 0 -53 2 -71 12c-23 13 -36 36 -36 66s13 53 36 66c18 10 33 12 71 12h47v223h-47
c-38 0 -53 2 -71 12c-23 13 -36 36 -36 66s13 53 36 66c18 10 33 12 71 12h47v159c0 49 3 67 15 91c14 27 43 48 87 48s73 -21 87 -48c12 -24 15 -42 15 -91v-159h111c38 0 53 -2 71 -12c23 -13 36 -36 36 -66s-13 -53 -36 -66c-18 -10 -33 -12 -71 -12h-111v-223h88
c38 0 53 -2 71 -12c23 -13 36 -36 36 -66s-13 -53 -36 -66c-18 -10 -33 -12 -71 -12z" />
    <glyph glyph-name="Utilde" unicode="&#x168;" horiz-adv-x="1346" 
d="M673 -12c-290 0 -510 198 -510 492v805c0 53 1 70 16 98c16 29 49 49 92 49s76 -20 92 -49c15 -28 16 -45 16 -98v-795c0 -191 116 -310 294 -310s294 119 294 310v795c0 53 1 70 16 98c16 29 49 49 92 49s76 -20 92 -49c15 -28 16 -45 16 -98v-805
c0 -294 -220 -492 -510 -492zM654 1619c-39 22 -67 37 -107 37c-31 0 -52 -5 -88 -34c-20 -16 -40 -26 -59 -26s-39 6 -54 23c-12 14 -17 31 -17 52c0 23 14 50 46 77c63 52 112 62 167 62c59 0 94 -13 150 -45c39 -22 67 -37 107 -37c31 0 52 5 88 34c20 16 40 26 59 26
s39 -6 54 -23c12 -14 17 -31 17 -52c0 -23 -14 -50 -46 -77c-63 -52 -112 -62 -167 -62c-59 0 -94 13 -150 45z" />
    <glyph glyph-name="utilde" unicode="&#x169;" horiz-adv-x="1136" 
d="M770 396v487c0 49 3 67 15 91c14 27 43 48 87 48s73 -21 87 -48c12 -24 15 -42 15 -91v-751c0 -56 -4 -74 -18 -97c-17 -27 -50 -43 -84 -43c-33 0 -64 13 -83 40c-10 15 -16 30 -18 67c-70 -74 -166 -111 -267 -111c-104 0 -190 34 -250 92c-78 76 -102 172 -102 286
v517c0 49 3 67 15 91c14 27 43 48 87 48s73 -21 87 -48c12 -24 15 -42 15 -91v-487c0 -158 90 -224 204 -224s210 68 210 224zM542 1261c-39 22 -67 37 -107 37c-31 0 -52 -5 -88 -34c-20 -16 -40 -26 -59 -26s-39 6 -54 23c-12 14 -17 31 -17 52c0 23 14 50 46 77
c63 52 112 62 167 62c59 0 94 -13 150 -45c39 -22 67 -37 107 -37c31 0 52 5 88 34c20 16 40 26 59 26s39 -6 54 -23c12 -14 17 -31 17 -52c0 -23 -14 -50 -46 -77c-63 -52 -112 -62 -167 -62c-59 0 -94 13 -150 45z" />
    <glyph glyph-name="Umacron" unicode="&#x16a;" horiz-adv-x="1346" 
d="M673 -12c-290 0 -510 198 -510 492v805c0 53 1 70 16 98c16 29 49 49 92 49s76 -20 92 -49c15 -28 16 -45 16 -98v-795c0 -191 116 -310 294 -310s294 119 294 310v795c0 53 1 70 16 98c16 29 49 49 92 49s76 -20 92 -49c15 -28 16 -45 16 -98v-805
c0 -294 -220 -492 -510 -492zM362 1684c0 31 14 56 38 69c18 10 33 13 74 13h399c41 0 57 -3 74 -13c24 -13 38 -38 38 -69s-14 -56 -38 -69c-17 -10 -33 -13 -74 -13h-399c-41 0 -56 3 -74 13c-24 13 -38 38 -38 69z" />
    <glyph glyph-name="umacron" unicode="&#x16b;" horiz-adv-x="1136" 
d="M770 396v487c0 49 3 67 15 91c14 27 43 48 87 48s73 -21 87 -48c12 -24 15 -42 15 -91v-751c0 -56 -4 -74 -18 -97c-17 -27 -50 -43 -84 -43c-33 0 -64 13 -83 40c-10 15 -16 30 -18 67c-70 -74 -166 -111 -267 -111c-104 0 -190 34 -250 92c-78 76 -102 172 -102 286
v517c0 49 3 67 15 91c14 27 43 48 87 48s73 -21 87 -48c12 -24 15 -42 15 -91v-487c0 -158 90 -224 204 -224s210 68 210 224zM871 1319c0 -31 -13 -56 -37 -69c-18 -10 -34 -13 -74 -13h-399c-40 0 -56 3 -74 13c-24 13 -38 38 -38 69s14 56 38 69c18 10 34 13 74 13h399
c40 0 56 -3 74 -13c24 -13 37 -38 37 -69z" />
    <glyph glyph-name="Ubreve" unicode="&#x16c;" horiz-adv-x="1346" 
d="M673 -12c-290 0 -510 198 -510 492v805c0 53 1 70 16 98c16 29 49 49 92 49s76 -20 92 -49c15 -28 16 -45 16 -98v-795c0 -191 116 -310 294 -310s294 119 294 310v795c0 53 1 70 16 98c16 29 49 49 92 49s76 -20 92 -49c15 -28 16 -45 16 -98v-805
c0 -294 -220 -492 -510 -492zM673 1714c64 0 115 30 163 72c20 17 37 25 54 26c22 1 42 -7 59 -26c15 -17 22 -37 21 -56c-1 -25 -13 -47 -45 -75c-72 -66 -148 -102 -252 -102s-180 36 -252 102c-32 28 -44 50 -45 75c-1 19 6 39 21 56c17 19 37 27 59 26
c17 -1 34 -9 54 -26c48 -42 99 -72 163 -72z" />
    <glyph glyph-name="ubreve" unicode="&#x16d;" horiz-adv-x="1136" 
d="M770 396v487c0 49 3 67 15 91c14 27 43 48 87 48s73 -21 87 -48c12 -24 15 -42 15 -91v-751c0 -56 -4 -74 -18 -97c-17 -27 -50 -43 -84 -43c-33 0 -64 13 -83 40c-10 15 -16 30 -18 67c-70 -74 -166 -111 -267 -111c-104 0 -190 34 -250 92c-78 76 -102 172 -102 286
v517c0 49 3 67 15 91c14 27 43 48 87 48s73 -21 87 -48c12 -24 15 -42 15 -91v-487c0 -158 90 -224 204 -224s210 68 210 224zM561 1349c64 0 115 30 163 72c20 17 37 25 54 26c22 1 42 -7 59 -26c15 -17 22 -37 21 -56c-1 -25 -13 -47 -45 -75c-72 -66 -148 -102 -252 -102
s-180 36 -252 102c-32 28 -44 50 -45 75c-1 19 6 39 21 56c17 19 37 27 59 26c17 -1 34 -9 54 -26c48 -42 99 -72 163 -72z" />
    <glyph glyph-name="Uring" unicode="&#x16e;" horiz-adv-x="1346" 
d="M673 -12c-290 0 -510 198 -510 492v805c0 53 1 70 16 98c16 29 49 49 92 49s76 -20 92 -49c15 -28 16 -45 16 -98v-795c0 -191 116 -310 294 -310s294 119 294 310v795c0 53 1 70 16 98c16 29 49 49 92 49s76 -20 92 -49c15 -28 16 -45 16 -98v-805
c0 -294 -220 -492 -510 -492zM423 1749c0 138 112 250 250 250s250 -112 250 -250s-112 -250 -250 -250s-250 112 -250 250zM546 1749c0 -70 57 -127 127 -127s127 57 127 127s-57 127 -127 127s-127 -57 -127 -127z" />
    <glyph glyph-name="uring" unicode="&#x16f;" horiz-adv-x="1136" 
d="M770 396v487c0 49 3 67 15 91c14 27 43 48 87 48s73 -21 87 -48c12 -24 15 -42 15 -91v-751c0 -56 -4 -74 -18 -97c-17 -27 -50 -43 -84 -43c-33 0 -64 13 -83 40c-10 15 -16 30 -18 67c-70 -74 -166 -111 -267 -111c-104 0 -190 34 -250 92c-78 76 -102 172 -102 286
v517c0 49 3 67 15 91c14 27 43 48 87 48s73 -21 87 -48c12 -24 15 -42 15 -91v-487c0 -158 90 -224 204 -224s210 68 210 224zM311 1402c0 138 112 250 250 250s250 -112 250 -250s-112 -250 -250 -250s-250 112 -250 250zM434 1402c0 -70 57 -127 127 -127s127 57 127 127
s-57 127 -127 127s-127 -57 -127 -127z" />
    <glyph glyph-name="Uhungarumlaut" unicode="&#x170;" horiz-adv-x="1346" 
d="M673 -12c-290 0 -510 198 -510 492v805c0 53 1 70 16 98c16 29 49 49 92 49s76 -20 92 -49c15 -28 16 -45 16 -98v-795c0 -191 116 -310 294 -310s294 119 294 310v795c0 53 1 70 16 98c16 29 49 49 92 49s76 -20 92 -49c15 -28 16 -45 16 -98v-805
c0 -294 -220 -492 -510 -492zM692 1760l-93 -149c-14 -22 -29 -44 -44 -55s-29 -16 -47 -16c-16 0 -33 5 -49 15c-31 20 -45 47 -43 77c1 22 9 38 31 74l93 149c14 22 29 44 44 55s29 16 47 16c16 0 33 -5 49 -15c31 -20 45 -47 43 -77c-1 -22 -9 -38 -31 -74zM1061 1760
l-93 -149c-14 -22 -29 -44 -44 -55s-29 -16 -47 -16c-16 0 -33 5 -49 15c-31 20 -45 47 -43 77c1 22 9 38 31 74l93 149c14 22 29 44 44 55s29 16 47 16c16 0 33 -5 49 -15c31 -20 45 -47 43 -77c-1 -22 -9 -38 -31 -74z" />
    <glyph glyph-name="uhungarumlaut" unicode="&#x171;" horiz-adv-x="1136" 
d="M770 396v487c0 49 3 67 15 91c14 27 43 48 87 48s73 -21 87 -48c12 -24 15 -42 15 -91v-751c0 -56 -4 -74 -18 -97c-17 -27 -50 -43 -84 -43c-33 0 -64 13 -83 40c-10 15 -16 30 -18 67c-70 -74 -166 -111 -267 -111c-104 0 -190 34 -250 92c-78 76 -102 172 -102 286
v517c0 49 3 67 15 91c14 27 43 48 87 48s73 -21 87 -48c12 -24 15 -42 15 -91v-487c0 -158 90 -224 204 -224s210 68 210 224zM579 1399l-93 -149c-14 -22 -29 -44 -44 -55s-29 -16 -47 -16c-16 0 -33 5 -49 15c-31 20 -45 47 -43 77c1 22 9 38 31 74l93 149
c14 22 29 44 44 55s29 16 47 16c16 0 33 -5 49 -15c31 -20 45 -47 43 -77c-1 -22 -9 -38 -31 -74zM950 1399l-93 -149c-14 -22 -29 -44 -44 -55s-29 -16 -47 -16c-16 0 -33 5 -49 15c-31 20 -45 47 -43 77c1 22 9 38 31 74l93 149c14 22 29 44 44 55s29 16 47 16
c16 0 33 -5 49 -15c31 -20 45 -47 43 -77c-1 -22 -9 -38 -31 -74z" />
    <glyph glyph-name="Uogonek" unicode="&#x172;" horiz-adv-x="1346" 
d="M673 -12c-290 0 -510 198 -510 492v805c0 53 1 70 16 98c16 29 49 49 92 49s76 -20 92 -49c15 -28 16 -45 16 -98v-795c0 -191 116 -310 294 -310s294 119 294 310v795c0 53 1 70 16 98c16 29 49 49 92 49s76 -20 92 -49c15 -28 16 -45 16 -98v-805
c0 -294 -220 -492 -510 -492zM723 -478c-31 19 -46 47 -44 77c1 22 9 38 32 74l93 149c14 22 28 44 44 55c15 11 29 16 47 16c16 0 33 -5 49 -15c31 -20 45 -47 43 -77c-1 -22 -9 -38 -31 -74l-93 -149c-15 -24 -28 -44 -44 -56c-15 -10 -29 -15 -47 -15c-17 0 -34 5 -49 15
z" />
    <glyph glyph-name="uogonek" unicode="&#x173;" horiz-adv-x="1136" 
d="M770 396v487c0 49 3 67 15 91c14 27 43 48 87 48s73 -21 87 -48c12 -24 15 -42 15 -91v-751c0 -56 -4 -74 -18 -97c-17 -27 -50 -43 -84 -43c-33 0 -64 13 -83 40c-10 15 -16 30 -18 67c-70 -74 -166 -111 -267 -111c-104 0 -190 34 -250 92c-78 76 -102 172 -102 286
v517c0 49 3 67 15 91c14 27 43 48 87 48s73 -21 87 -48c12 -24 15 -42 15 -91v-487c0 -158 90 -224 204 -224s210 68 210 224zM673 -478c-31 19 -46 47 -44 77c1 22 9 38 32 74l93 149c14 22 28 44 44 55c15 11 29 16 47 16c16 0 33 -5 49 -15c31 -20 45 -47 43 -77
c-1 -22 -9 -38 -31 -74l-93 -149c-15 -24 -28 -44 -44 -56c-15 -10 -29 -15 -47 -15c-17 0 -34 5 -49 15z" />
    <glyph glyph-name="Wcircumflex" unicode="&#x174;" horiz-adv-x="1730" 
d="M865 1431c32 0 55 -8 74 -26c17 -17 27 -37 37 -72l260 -931l228 916c12 48 18 66 36 86c16 17 40 28 69 28c46 0 90 -30 100 -70c6 -24 3 -45 -9 -93l-288 -1156c-10 -39 -24 -72 -50 -94c-22 -18 -48 -27 -77 -27s-55 9 -77 27c-26 22 -39 55 -50 94l-253 902
l-253 -902c-11 -39 -24 -72 -50 -94c-22 -18 -48 -27 -77 -27s-55 9 -77 27c-26 22 -40 55 -50 94l-288 1156c-12 48 -15 69 -9 93c10 40 54 70 100 70c29 0 53 -11 69 -28c18 -20 24 -38 36 -86l228 -916l260 931c10 35 20 55 37 72c19 18 42 26 74 26zM863 1913
c40 0 66 -26 88 -48l166 -166c29 -29 38 -42 43 -61c8 -27 0 -55 -22 -77c-22 -21 -49 -30 -76 -22c-19 5 -33 14 -62 43l-137 138l-137 -138c-29 -29 -43 -38 -62 -43c-27 -8 -54 1 -76 22c-22 22 -30 50 -22 77c5 19 14 32 43 61l166 166c22 22 48 48 88 48z" />
    <glyph glyph-name="wcircumflex" unicode="&#x175;" horiz-adv-x="1466" 
d="M733 717l-186 -599c-16 -53 -30 -82 -52 -99c-20 -17 -45 -27 -75 -27c-31 0 -56 10 -76 27c-22 17 -36 46 -52 99l-222 747c-13 45 -16 64 -10 88c9 39 51 69 96 69c27 0 48 -10 65 -27c15 -15 23 -35 35 -77l175 -615l183 599c15 49 28 77 50 95c18 16 40 25 69 25
s51 -9 69 -25c22 -18 35 -46 50 -95l183 -599l175 615c12 42 20 62 35 77c17 17 38 27 65 27c45 0 87 -30 96 -69c6 -24 3 -43 -10 -88l-222 -747c-16 -53 -30 -82 -52 -99c-20 -17 -45 -27 -76 -27c-30 0 -55 10 -75 27c-22 17 -36 46 -52 99zM734 1548c40 0 66 -26 88 -48
l166 -166c29 -29 38 -42 43 -61c8 -27 0 -55 -22 -77c-22 -21 -49 -30 -76 -22c-19 5 -33 14 -62 43l-137 138l-137 -138c-29 -29 -43 -38 -62 -43c-27 -8 -54 1 -76 22c-22 22 -30 50 -22 77c5 19 14 32 43 61l166 166c22 22 48 48 88 48z" />
    <glyph glyph-name="Ycircumflex" unicode="&#x176;" horiz-adv-x="1046" 
d="M44 1340c1 31 20 62 56 80c16 8 35 12 51 12c18 0 34 -5 49 -15c21 -15 31 -31 53 -75l270 -541l270 541c22 44 32 60 53 75c15 10 31 15 49 15c16 0 35 -4 51 -12c36 -18 55 -49 56 -80c1 -26 -5 -45 -27 -89l-344 -684v-428c0 -53 -1 -70 -16 -98
c-16 -29 -49 -49 -92 -49s-76 20 -92 49c-15 28 -16 45 -16 98v428l-344 684c-22 44 -28 63 -27 89zM522 1913c40 0 66 -26 88 -48l166 -166c29 -29 38 -42 43 -61c8 -27 0 -55 -22 -77c-22 -21 -49 -30 -76 -22c-19 5 -33 14 -62 43l-137 138l-137 -138
c-29 -29 -43 -38 -62 -43c-27 -8 -54 1 -76 22c-22 22 -30 50 -22 77c5 19 14 32 43 61l166 166c22 22 48 48 88 48z" />
    <glyph glyph-name="ycircumflex" unicode="&#x177;" horiz-adv-x="898" 
d="M834 863l-369 -1066c-20 -57 -42 -95 -74 -126c-56 -55 -124 -75 -199 -75c-35 0 -73 5 -94 24c-18 16 -29 37 -29 69c0 31 10 56 31 72c18 14 34 19 68 19c60 0 103 24 131 108l49 149l-284 826c-12 36 -21 67 -11 98s49 61 95 61c62 0 81 -44 99 -98l200 -621l204 621
c18 54 37 98 99 98c46 0 85 -30 95 -61s2 -62 -11 -98zM447 1548c40 0 66 -26 88 -48l166 -166c29 -29 38 -42 43 -61c8 -27 0 -55 -22 -77c-22 -21 -49 -30 -76 -22c-19 5 -33 14 -62 43l-137 138l-137 -138c-29 -29 -43 -38 -62 -43c-27 -8 -54 1 -76 22
c-22 22 -30 50 -22 77c5 19 14 32 43 61l166 166c22 22 48 48 88 48z" />
    <glyph glyph-name="Ydieresis" unicode="&#x178;" horiz-adv-x="1046" 
d="M44 1340c1 31 20 62 56 80c16 8 35 12 51 12c18 0 34 -5 49 -15c21 -15 31 -31 53 -75l270 -541l270 541c22 44 32 60 53 75c15 10 31 15 49 15c16 0 35 -4 51 -12c36 -18 55 -49 56 -80c1 -26 -5 -45 -27 -89l-344 -684v-428c0 -53 -1 -70 -16 -98
c-16 -29 -49 -49 -92 -49s-76 20 -92 49c-15 28 -16 45 -16 98v428l-344 684c-22 44 -28 63 -27 89zM854 1678c0 -62 -50 -114 -112 -114s-114 52 -114 114s52 112 114 112s112 -50 112 -112zM416 1678c0 -62 -52 -114 -114 -114s-112 52 -112 114s50 112 112 112
s114 -50 114 -112z" />
    <glyph glyph-name="Zacute" unicode="&#x179;" horiz-adv-x="1115" 
d="M247 1424h628c46 0 86 -3 114 -32c22 -22 32 -49 32 -79c0 -29 -12 -57 -36 -96l-631 -1025h536c46 0 66 -2 88 -14c26 -15 44 -44 44 -82s-18 -67 -44 -82c-22 -12 -42 -14 -88 -14h-657c-46 0 -85 3 -114 32c-22 22 -32 49 -32 79c0 29 11 54 37 96l630 1025h-507
c-46 0 -66 2 -88 14c-26 15 -44 44 -44 82s18 67 44 82c22 12 42 14 88 14zM768 1760l-93 -149c-14 -22 -29 -44 -44 -55s-29 -16 -47 -16c-16 0 -33 5 -49 15c-31 20 -45 47 -43 77c1 22 9 38 31 74l93 149c14 22 29 44 44 55s29 16 47 16c16 0 33 -5 49 -15
c31 -20 45 -47 43 -77c-1 -22 -9 -38 -31 -74z" />
    <glyph glyph-name="zacute" unicode="&#x17a;" horiz-adv-x="926" 
d="M224 1014h497c46 0 66 -4 88 -17c29 -17 41 -44 41 -71c0 -35 -11 -58 -41 -99l-467 -643h385c44 0 63 -2 83 -14c25 -15 42 -43 42 -78s-17 -63 -42 -78c-20 -11 -39 -14 -83 -14h-525c-41 0 -65 3 -88 17c-27 15 -40 44 -40 72c0 35 9 55 41 99l465 642h-356
c-44 0 -63 3 -83 14c-25 15 -42 43 -42 78s17 63 42 78c20 12 39 14 83 14zM685 1399l-93 -149c-14 -22 -29 -44 -44 -55s-29 -16 -47 -16c-16 0 -33 5 -49 15c-31 20 -45 47 -43 77c1 22 9 38 31 74l93 149c14 22 29 44 44 55s29 16 47 16c16 0 33 -5 49 -15
c31 -20 45 -47 43 -77c-1 -22 -9 -38 -31 -74z" />
    <glyph glyph-name="Zdotaccent" unicode="&#x17b;" horiz-adv-x="1115" 
d="M247 1424h628c46 0 86 -3 114 -32c22 -22 32 -49 32 -79c0 -29 -12 -57 -36 -96l-631 -1025h536c46 0 66 -2 88 -14c26 -15 44 -44 44 -82s-18 -67 -44 -82c-22 -12 -42 -14 -88 -14h-657c-46 0 -85 3 -114 32c-22 22 -32 49 -32 79c0 29 11 54 37 96l630 1025h-507
c-46 0 -66 2 -88 14c-26 15 -44 44 -44 82s18 67 44 82c22 12 42 14 88 14zM454 1688c0 62 51 113 113 113s113 -51 113 -113s-51 -113 -113 -113s-113 51 -113 113z" />
    <glyph glyph-name="zdotaccent" unicode="&#x17c;" horiz-adv-x="926" 
d="M224 1014h497c46 0 66 -4 88 -17c29 -17 41 -44 41 -71c0 -35 -11 -58 -41 -99l-467 -643h385c44 0 63 -2 83 -14c25 -15 42 -43 42 -78s-17 -63 -42 -78c-20 -11 -39 -14 -83 -14h-525c-41 0 -65 3 -88 17c-27 15 -40 44 -40 72c0 35 9 55 41 99l465 642h-356
c-44 0 -63 3 -83 14c-25 15 -42 43 -42 78s17 63 42 78c20 12 39 14 83 14zM369 1323c0 62 51 113 113 113s113 -51 113 -113s-51 -113 -113 -113s-113 51 -113 113z" />
    <glyph glyph-name="Zcaron" unicode="&#x17d;" horiz-adv-x="1115" 
d="M247 1424h628c46 0 86 -3 114 -32c22 -22 32 -49 32 -79c0 -29 -12 -57 -36 -96l-631 -1025h536c46 0 66 -2 88 -14c26 -15 44 -44 44 -82s-18 -67 -44 -82c-22 -12 -42 -14 -88 -14h-657c-46 0 -85 3 -114 32c-22 22 -32 49 -32 79c0 29 11 54 37 96l630 1025h-507
c-46 0 -66 2 -88 14c-26 15 -44 44 -44 82s18 67 44 82c22 12 42 14 88 14zM268 1807c-7 27 1 54 23 76c21 22 49 30 76 23c19 -6 33 -15 61 -43l138 -138l138 138c28 28 42 37 61 43c27 7 54 -1 76 -23s30 -49 23 -76c-6 -19 -15 -33 -43 -61l-167 -167
c-21 -21 -48 -47 -88 -47s-67 26 -88 47l-167 167c-28 28 -37 42 -43 61z" />
    <glyph glyph-name="zcaron" unicode="&#x17e;" horiz-adv-x="926" 
d="M224 1014h497c46 0 66 -4 88 -17c29 -17 41 -44 41 -71c0 -35 -11 -58 -41 -99l-467 -643h385c44 0 63 -2 83 -14c25 -15 42 -43 42 -78s-17 -63 -42 -78c-20 -11 -39 -14 -83 -14h-525c-41 0 -65 3 -88 17c-27 15 -40 44 -40 72c0 35 9 55 41 99l465 642h-356
c-44 0 -63 3 -83 14c-25 15 -42 43 -42 78s17 63 42 78c20 12 39 14 83 14zM184 1442c-7 27 1 54 23 76c21 22 49 30 76 23c19 -6 33 -15 61 -43l138 -138l138 138c28 28 42 37 61 43c27 7 54 -1 76 -23s30 -49 23 -76c-6 -19 -15 -33 -43 -61l-167 -167
c-21 -21 -48 -47 -88 -47s-67 26 -88 47l-167 167c-28 28 -37 42 -43 61z" />
    <glyph glyph-name="longs" unicode="&#x17f;" horiz-adv-x="528" 
d="M366 1144v-1013c0 -49 -3 -67 -15 -91c-14 -27 -43 -48 -87 -48s-73 21 -87 48c-12 24 -15 42 -15 91v1022c0 149 84 281 275 281h20c41 0 68 -6 86 -16c24 -13 41 -37 41 -71s-17 -59 -41 -72c-18 -10 -41 -13 -74 -14c-75 -2 -103 -47 -103 -117z" />
    <glyph glyph-name="uni018F" unicode="&#x18f;" horiz-adv-x="1285" 
d="M1150 712c0 -299 -5 -441 -143 -579c-92 -92 -212 -145 -369 -145c-151 0 -266 46 -365 145c-112 112 -138 239 -138 471v21c0 32 0 70 31 101s69 31 101 31h667c-2 236 -15 321 -85 398c-52 56 -121 89 -205 89c-134 0 -213 -71 -265 -193c-16 -37 -30 -63 -53 -81
c-15 -12 -37 -21 -64 -21c-30 0 -54 10 -75 30c-20 20 -29 44 -29 81c0 51 29 143 109 229c87 93 194 147 373 147c155 0 275 -53 367 -145c138 -138 143 -280 143 -579zM342 587v-22c0 -150 17 -231 83 -299c55 -55 128 -86 213 -86c87 0 160 33 212 89
c59 62 78 133 82 318h-590z" />
    <glyph glyph-name="florin" unicode="&#x192;" horiz-adv-x="875" 
d="M370 1153c39 190 151 281 308 281h18c44 0 69 -5 87 -15c25 -13 41 -37 41 -72s-14 -59 -40 -74c-13 -8 -30 -12 -58 -13h-19c-78 -2 -126 -44 -143 -127l-70 -351h118c38 0 53 -2 71 -12c23 -13 36 -36 36 -66s-13 -53 -36 -66c-18 -10 -33 -12 -71 -12h-149l-186 -931
c-8 -43 -15 -67 -39 -90c-15 -14 -37 -22 -61 -22c-25 0 -52 11 -70 28c-33 32 -29 73 -19 122l177 893h-91c-38 0 -53 2 -71 12c-23 13 -36 36 -36 66s13 53 36 66c18 10 33 12 71 12h122z" />
    <glyph glyph-name="uni01B5" unicode="&#x1b5;" horiz-adv-x="1115" 
d="M317 804h174l263 428h-507c-46 0 -66 2 -88 14c-26 15 -44 44 -44 82s18 67 44 82c22 12 42 14 88 14h628c46 0 86 -3 114 -32c22 -22 32 -49 32 -79c0 -29 -12 -57 -36 -96l-254 -413h62c42 0 60 -2 79 -13c24 -14 39 -40 39 -73s-15 -59 -39 -73
c-19 -11 -37 -13 -79 -13h-168l-271 -440h536c46 0 66 -2 88 -14c26 -15 44 -44 44 -82s-18 -67 -44 -82c-22 -12 -42 -14 -88 -14h-657c-46 0 -85 3 -114 32c-22 22 -32 49 -32 79c0 29 11 54 37 96l261 425h-68c-41 0 -59 2 -78 13c-24 14 -39 40 -39 73s15 59 39 73
c19 11 37 13 78 13z" />
    <glyph glyph-name="uni01B6" unicode="&#x1b6;" horiz-adv-x="926" 
d="M224 1014h497c46 0 66 -4 88 -17c29 -17 41 -44 41 -71c0 -35 -11 -58 -41 -99l-162 -223h32c38 0 54 -2 71 -12c23 -13 36 -36 36 -67c0 -30 -13 -53 -36 -66c-17 -10 -33 -12 -71 -12h-146l-191 -263h385c44 0 63 -2 83 -14c25 -15 42 -43 42 -78s-17 -63 -42 -78
c-20 -11 -39 -14 -83 -14h-525c-41 0 -65 3 -88 17c-27 15 -40 44 -40 72c0 35 9 55 41 99l187 259h-46c-38 0 -55 2 -72 12c-23 13 -36 36 -36 66c0 31 13 54 36 67c17 10 34 12 72 12h160l164 226h-356c-44 0 -63 3 -83 14c-25 15 -42 43 -42 78s17 63 42 78
c20 12 39 14 83 14z" />
    <glyph glyph-name="uni01C4" unicode="&#x1c4;" horiz-adv-x="2444" 
d="M216 1393c31 31 69 31 101 31h369c179 0 310 -60 406 -181c100 -128 105 -278 105 -531s-7 -405 -107 -533c-95 -122 -225 -179 -404 -179h-369c-32 0 -70 0 -101 31s-31 69 -31 101v1160c0 32 0 70 31 101zM401 1232v-1040h260c103 0 185 28 245 97c71 80 75 212 75 423
s-4 343 -75 423c-60 69 -142 97 -245 97h-260zM1576 1424h628c46 0 86 -3 114 -32c22 -22 32 -49 32 -79c0 -29 -12 -57 -36 -96l-631 -1025h536c46 0 66 -2 88 -14c26 -15 44 -44 44 -82s-18 -67 -44 -82c-22 -12 -42 -14 -88 -14h-657c-46 0 -85 3 -114 32
c-22 22 -32 49 -32 79c0 29 11 54 37 96l630 1025h-507c-46 0 -66 2 -88 14c-26 15 -44 44 -44 82s18 67 44 82c22 12 42 14 88 14zM1597 1807c-7 27 1 54 23 76c21 22 49 30 76 23c19 -6 33 -15 61 -43l138 -138l138 138c28 28 42 37 61 43c27 7 54 -1 76 -23
s30 -49 23 -76c-6 -19 -15 -33 -43 -61l-167 -167c-21 -21 -48 -47 -88 -47s-67 26 -88 47l-167 167c-28 28 -37 42 -43 61z" />
    <glyph glyph-name="uni01C5" unicode="&#x1c5;" horiz-adv-x="2259" 
d="M216 1393c31 31 69 31 101 31h369c179 0 310 -60 406 -181c100 -128 105 -278 105 -531s-7 -405 -107 -533c-95 -122 -225 -179 -404 -179h-369c-32 0 -70 0 -101 31s-31 69 -31 101v1160c0 32 0 70 31 101zM401 1232v-1040h260c103 0 185 28 245 97c71 80 75 212 75 423
s-4 343 -75 423c-60 69 -142 97 -245 97h-260zM1557 1014h497c46 0 66 -4 88 -17c29 -17 41 -44 41 -71c0 -35 -11 -58 -41 -99l-467 -643h385c44 0 63 -2 83 -14c25 -15 42 -43 42 -78s-17 -63 -42 -78c-20 -11 -39 -14 -83 -14h-525c-41 0 -65 3 -88 17
c-27 15 -40 44 -40 72c0 35 9 55 41 99l465 642h-356c-44 0 -63 3 -83 14c-25 15 -42 43 -42 78s17 63 42 78c20 12 39 14 83 14zM1517 1442c-7 27 1 54 23 76c21 22 49 30 76 23c19 -6 33 -15 61 -43l138 -138l138 138c28 28 42 37 61 43c27 7 54 -1 76 -23s30 -49 23 -76
c-6 -19 -15 -33 -43 -61l-167 -167c-21 -21 -48 -47 -88 -47s-67 26 -88 47l-167 167c-28 28 -37 42 -43 61z" />
    <glyph glyph-name="uni01C6" unicode="&#x1c6;" horiz-adv-x="2035" 
d="M942 1293v-1161c0 -56 -4 -74 -18 -97c-17 -27 -50 -43 -84 -43c-33 0 -64 13 -83 40c-11 15 -16 30 -18 72c-75 -89 -159 -116 -265 -116c-102 0 -192 34 -248 90c-98 100 -112 262 -112 430c0 166 14 328 112 428c56 56 144 90 246 90c108 0 192 -26 266 -114v381
c0 49 3 67 15 91c14 27 43 48 87 48s73 -21 87 -48c12 -24 15 -42 15 -91zM318 507c0 -180 26 -335 210 -335c185 0 211 155 211 335s-26 335 -211 335c-184 0 -210 -155 -210 -335zM1333 1014h497c46 0 66 -4 88 -17c29 -17 41 -44 41 -71c0 -35 -11 -58 -41 -99l-467 -643
h385c44 0 63 -2 83 -14c25 -15 42 -43 42 -78s-17 -63 -42 -78c-20 -11 -39 -14 -83 -14h-525c-41 0 -65 3 -88 17c-27 15 -40 44 -40 72c0 35 9 55 41 99l465 642h-356c-44 0 -63 3 -83 14c-25 15 -42 43 -42 78s17 63 42 78c20 12 39 14 83 14zM1293 1442
c-7 27 1 54 23 76c21 22 49 30 76 23c19 -6 33 -15 61 -43l138 -138l138 138c28 28 42 37 61 43c27 7 54 -1 76 -23s30 -49 23 -76c-6 -19 -15 -33 -43 -61l-167 -167c-21 -21 -48 -47 -88 -47s-67 26 -88 47l-167 167c-28 28 -37 42 -43 61z" />
    <glyph glyph-name="uni01C7" unicode="&#x1c7;" horiz-adv-x="2159" 
d="M1520 -12c-108 0 -195 24 -274 81c-34 25 -51 53 -51 89c0 27 11 52 29 70c18 17 39 25 61 25c28 0 53 -11 82 -29c48 -30 93 -44 153 -44c162 0 258 99 258 288v817c0 53 1 70 16 98c16 29 49 49 92 49s76 -20 92 -49c15 -28 16 -45 16 -98v-835
c0 -294 -212 -462 -474 -462zM317 0c-32 0 -70 0 -101 31s-31 69 -31 101v1153c0 53 1 70 16 98c16 29 49 49 92 49s76 -20 92 -49c15 -28 16 -45 16 -98v-1093h562c46 0 66 -2 88 -14c26 -15 44 -44 44 -82s-18 -67 -44 -82c-22 -12 -42 -14 -88 -14h-646z" />
    <glyph glyph-name="uni01C8" unicode="&#x1c8;" horiz-adv-x="1678" 
d="M317 0c-32 0 -70 0 -101 31s-31 69 -31 101v1153c0 53 1 70 16 98c16 29 49 49 92 49s76 -20 92 -49c15 -28 16 -45 16 -98v-1093h562c46 0 66 -2 88 -14c26 -15 44 -44 44 -82s-18 -67 -44 -82c-22 -12 -42 -14 -88 -14h-646zM1289 1345c0 68 55 123 123 123
s123 -55 123 -123s-55 -123 -123 -123s-123 55 -123 123zM1310 -124v1007c0 49 3 67 15 91c14 27 43 48 87 48s73 -21 87 -48c12 -24 15 -42 15 -91v-1016c0 -149 -84 -281 -275 -281h-20c-41 0 -68 6 -86 16c-24 13 -41 37 -41 71s17 59 41 72c18 10 41 13 74 14
c75 2 103 47 103 117z" />
    <glyph glyph-name="uni01C9" unicode="&#x1c9;" horiz-adv-x="1152" 
d="M157 281v1014c0 49 3 67 15 91c14 27 43 48 87 48s73 -21 87 -48c12 -24 15 -42 15 -91v-1005c0 -70 28 -115 103 -117c33 -1 56 -4 74 -14c24 -13 41 -38 41 -72s-17 -58 -41 -71c-18 -10 -45 -16 -86 -16h-20c-191 0 -275 132 -275 281zM763 1345c0 68 55 123 123 123
s123 -55 123 -123s-55 -123 -123 -123s-123 55 -123 123zM784 -124v1007c0 49 3 67 15 91c14 27 43 48 87 48s73 -21 87 -48c12 -24 15 -42 15 -91v-1016c0 -149 -84 -281 -275 -281h-20c-41 0 -68 6 -86 16c-24 13 -41 37 -41 71s17 59 41 72c18 10 41 13 74 14
c75 2 103 47 103 117z" />
    <glyph glyph-name="uni01CA" unicode="&#x1ca;" horiz-adv-x="2455" 
d="M1816 -12c-108 0 -195 24 -274 81c-34 25 -51 53 -51 89c0 27 11 52 29 70c18 17 39 25 61 25c28 0 53 -11 82 -29c48 -30 93 -44 153 -44c162 0 258 99 258 288v817c0 53 1 70 16 98c16 29 49 49 92 49s76 -20 92 -49c15 -28 16 -45 16 -98v-835
c0 -294 -212 -462 -474 -462zM401 1000v-861c0 -53 -1 -70 -16 -98c-16 -29 -49 -49 -92 -49s-76 20 -92 49c-15 28 -16 45 -16 98v1155c0 47 7 80 31 104c22 22 49 34 82 34c51 0 83 -31 126 -95l618 -913v861c0 53 1 70 16 98c16 29 49 49 92 49s76 -20 92 -49
c15 -28 16 -45 16 -98v-1156c0 -47 -7 -79 -31 -103c-22 -22 -49 -34 -82 -34c-51 0 -83 31 -126 95z" />
    <glyph glyph-name="uni01CB" unicode="&#x1cb;" horiz-adv-x="1974" 
d="M1585 1345c0 68 55 123 123 123s123 -55 123 -123s-55 -123 -123 -123s-123 55 -123 123zM1606 -124v1007c0 49 3 67 15 91c14 27 43 48 87 48s73 -21 87 -48c12 -24 15 -42 15 -91v-1016c0 -149 -84 -281 -275 -281h-20c-41 0 -68 6 -86 16c-24 13 -41 37 -41 71
s17 59 41 72c18 10 41 13 74 14c75 2 103 47 103 117zM401 1000v-861c0 -53 -1 -70 -16 -98c-16 -29 -49 -49 -92 -49s-76 20 -92 49c-15 28 -16 45 -16 98v1155c0 47 7 80 31 104c22 22 49 34 82 34c51 0 83 -31 126 -95l618 -913v861c0 53 1 70 16 98c16 29 49 49 92 49
s76 -20 92 -49c15 -28 16 -45 16 -98v-1156c0 -47 -7 -79 -31 -103c-22 -22 -49 -34 -82 -34c-51 0 -83 31 -126 95z" />
    <glyph glyph-name="uni01CC" unicode="&#x1cc;" horiz-adv-x="1669" 
d="M366 618v-487c0 -49 -3 -67 -15 -91c-14 -27 -43 -48 -87 -48s-73 21 -87 48c-12 24 -15 42 -15 91v751c0 56 4 74 18 97c17 27 50 43 84 43c33 0 64 -13 83 -40c10 -15 16 -30 18 -67c70 74 166 111 267 111c104 0 190 -34 250 -92c78 -76 102 -172 102 -286v-517
c0 -49 -3 -67 -15 -91c-14 -27 -43 -48 -87 -48s-73 21 -87 48c-12 24 -15 42 -15 91v487c0 158 -90 224 -204 224s-210 -68 -210 -224zM1280 1345c0 68 55 123 123 123s123 -55 123 -123s-55 -123 -123 -123s-123 55 -123 123zM1301 -124v1007c0 49 3 67 15 91
c14 27 43 48 87 48s73 -21 87 -48c12 -24 15 -42 15 -91v-1016c0 -149 -84 -281 -275 -281h-20c-41 0 -68 6 -86 16c-24 13 -41 37 -41 71s17 59 41 72c18 10 41 13 74 14c75 2 103 47 103 117z" />
    <glyph glyph-name="uni01F1" unicode="&#x1f1;" horiz-adv-x="2441" 
d="M216 1393c31 31 69 31 101 31h369c179 0 310 -60 406 -181c100 -128 105 -278 105 -531s-7 -405 -107 -533c-95 -122 -225 -179 -404 -179h-369c-32 0 -70 0 -101 31s-31 69 -31 101v1160c0 32 0 70 31 101zM401 1232v-1040h260c103 0 185 28 245 97c71 80 75 212 75 423
s-4 343 -75 423c-60 69 -142 97 -245 97h-260zM1573 1424h628c46 0 86 -3 114 -32c22 -22 32 -49 32 -79c0 -29 -12 -57 -36 -96l-631 -1025h536c46 0 66 -2 88 -14c26 -15 44 -44 44 -82s-18 -67 -44 -82c-22 -12 -42 -14 -88 -14h-657c-46 0 -85 3 -114 32
c-22 22 -32 49 -32 79c0 29 11 54 37 96l630 1025h-507c-46 0 -66 2 -88 14c-26 15 -44 44 -44 82s18 67 44 82c22 12 42 14 88 14z" />
    <glyph glyph-name="uni01F2" unicode="&#x1f2;" horiz-adv-x="2258" 
d="M1556 1014h497c46 0 66 -4 88 -17c29 -17 41 -44 41 -71c0 -35 -11 -58 -41 -99l-467 -643h385c44 0 63 -2 83 -14c25 -15 42 -43 42 -78s-17 -63 -42 -78c-20 -11 -39 -14 -83 -14h-525c-41 0 -65 3 -88 17c-27 15 -40 44 -40 72c0 35 9 55 41 99l465 642h-356
c-44 0 -63 3 -83 14c-25 15 -42 43 -42 78s17 63 42 78c20 12 39 14 83 14zM216 1393c31 31 69 31 101 31h369c179 0 310 -60 406 -181c100 -128 105 -278 105 -531s-7 -405 -107 -533c-95 -122 -225 -179 -404 -179h-369c-32 0 -70 0 -101 31s-31 69 -31 101v1160
c0 32 0 70 31 101zM401 1232v-1040h260c103 0 185 28 245 97c71 80 75 212 75 423s-4 343 -75 423c-60 69 -142 97 -245 97h-260z" />
    <glyph glyph-name="uni01F3" unicode="&#x1f3;" horiz-adv-x="2032" 
d="M1330 1014h497c46 0 66 -4 88 -17c29 -17 41 -44 41 -71c0 -35 -11 -58 -41 -99l-467 -643h385c44 0 63 -2 83 -14c25 -15 42 -43 42 -78s-17 -63 -42 -78c-20 -11 -39 -14 -83 -14h-525c-41 0 -65 3 -88 17c-27 15 -40 44 -40 72c0 35 9 55 41 99l465 642h-356
c-44 0 -63 3 -83 14c-25 15 -42 43 -42 78s17 63 42 78c20 12 39 14 83 14zM942 1293v-1161c0 -56 -4 -74 -18 -97c-17 -27 -50 -43 -84 -43c-33 0 -64 13 -83 40c-11 15 -16 30 -18 72c-75 -89 -159 -116 -265 -116c-102 0 -192 34 -248 90c-98 100 -112 262 -112 430
c0 166 14 328 112 428c56 56 144 90 246 90c108 0 192 -26 266 -114v381c0 49 3 67 15 91c14 27 43 48 87 48s73 -21 87 -48c12 -24 15 -42 15 -91zM318 507c0 -180 26 -335 210 -335c185 0 211 155 211 335s-26 335 -211 335c-184 0 -210 -155 -210 -335z" />
    <glyph glyph-name="Aringacute" unicode="&#x1fa;" horiz-adv-x="1246" 
d="M918 286h-590l-71 -191c-18 -48 -27 -66 -47 -82c-16 -13 -36 -21 -59 -21c-30 0 -60 12 -79 32c-41 42 -28 87 -7 143l416 1107c-65 45 -108 121 -108 206c0 138 112 250 250 250s250 -112 250 -250c0 -85 -43 -161 -108 -206l416 -1107c21 -56 34 -101 -7 -143
c-19 -20 -49 -32 -79 -32c-23 0 -43 8 -59 21c-20 16 -29 34 -47 82zM851 470l-228 623l-228 -623h456zM799 1922l-98 -99c-29 -29 -43 -38 -62 -43c-27 -8 -54 1 -76 22c-22 22 -30 50 -22 77c5 19 14 32 43 61l98 99c29 29 43 38 62 43c27 8 54 -1 76 -22
c22 -22 30 -50 22 -77c-5 -19 -14 -32 -43 -61zM496 1480c0 -70 57 -127 127 -127s127 57 127 127s-57 127 -127 127s-127 -57 -127 -127z" />
    <glyph glyph-name="aringacute" unicode="&#x1fb;" horiz-adv-x="1060" 
d="M689 1844l-98 -99c-29 -29 -43 -38 -62 -43c-27 -8 -54 1 -76 22c-22 22 -30 50 -22 77c5 19 14 32 43 61l98 99c29 29 43 38 62 43c27 8 54 -1 76 -22c22 -22 30 -50 22 -77c-5 -19 -14 -32 -43 -61zM83 298c0 170 121 294 351 294h269v63c0 133 -63 198 -212 198
c-81 0 -135 -23 -194 -68c-26 -20 -55 -27 -74 -27c-21 0 -44 9 -59 27c-17 19 -24 36 -24 63c0 46 43 87 95 117c71 41 153 61 258 61c272 0 415 -119 415 -349v-546c0 -50 -2 -69 -15 -92c-15 -28 -48 -47 -87 -47c-33 0 -58 12 -74 29c-12 14 -21 30 -23 73
c-80 -78 -148 -105 -272 -105c-127 0 -212 29 -273 92c-52 53 -81 131 -81 217zM282 301c0 -92 62 -143 191 -143c73 0 133 8 185 58c32 30 45 76 45 151v80h-240c-120 0 -181 -52 -181 -146zM263 1402c0 138 112 250 250 250s250 -112 250 -250s-112 -250 -250 -250
s-250 112 -250 250zM386 1402c0 -70 57 -127 127 -127s127 57 127 127s-57 127 -127 127s-127 -57 -127 -127z" />
    <glyph glyph-name="AEacute" unicode="&#x1fc;" horiz-adv-x="1852" 
d="M73 173l560 1122c27 55 50 83 71 100c25 20 58 29 87 29h831c46 0 66 -2 88 -14c26 -15 44 -44 44 -82s-18 -67 -44 -82c-22 -12 -42 -14 -88 -14h-572v-418h470c46 0 66 -2 88 -14c26 -15 44 -44 44 -82s-18 -67 -44 -82c-22 -12 -42 -14 -88 -14h-470v-430h572
c46 0 66 -2 88 -14c26 -15 44 -44 44 -82s-18 -67 -44 -82c-22 -12 -42 -14 -88 -14h-656c-32 0 -70 0 -101 31s-31 69 -31 101v193h-458l-121 -243c-22 -44 -32 -60 -53 -75c-15 -10 -31 -15 -49 -15c-16 0 -35 4 -51 12c-36 18 -55 49 -56 80c-1 26 5 45 27 89zM834 1243
l-366 -735h366v735zM1165 1760l-93 -149c-14 -22 -29 -44 -44 -55s-29 -16 -47 -16c-16 0 -33 5 -49 15c-31 20 -45 47 -43 77c1 22 9 38 31 74l93 149c14 22 29 44 44 55s29 16 47 16c16 0 33 -5 49 -15c31 -20 45 -47 43 -77c-1 -22 -9 -38 -31 -74z" />
    <glyph glyph-name="aeacute" unicode="&#x1fd;" horiz-adv-x="1668" 
d="M282 301c0 -92 62 -143 191 -143c73 0 133 8 185 58c32 30 45 76 45 151v80h-240c-120 0 -181 -52 -181 -146zM1361 590c-4 62 -8 94 -28 138c-34 76 -104 128 -200 128c-98 0 -168 -52 -202 -128c-20 -44 -24 -76 -26 -138h456zM1133 1027c265 -1 423 -194 429 -462
c1 -30 -3 -66 -28 -91c-26 -26 -60 -26 -90 -26h-539c0 -173 91 -286 260 -286c71 0 140 20 195 64c31 25 57 37 83 37c41 0 84 -40 84 -87s-52 -91 -102 -123c-64 -42 -156 -65 -265 -65c-152 0 -278 46 -361 157c-102 -125 -205 -156 -362 -156c-127 0 -212 29 -273 92
c-52 53 -81 131 -81 217c0 170 121 294 351 294h269v63c0 133 -63 198 -212 198c-81 0 -135 -23 -194 -68c-26 -20 -55 -27 -74 -27c-21 0 -44 9 -59 27c-17 19 -24 36 -24 63c0 46 43 87 95 117c71 41 153 62 258 62c162 0 276 -46 339 -133c71 87 175 133 301 133z
M1003 1399l-93 -149c-14 -22 -29 -44 -44 -55s-29 -16 -47 -16c-16 0 -33 5 -49 15c-31 20 -45 47 -43 77c1 22 9 38 31 74l93 149c14 22 29 44 44 55s29 16 47 16c16 0 33 -5 49 -15c31 -20 45 -47 43 -77c-1 -22 -9 -38 -31 -74z" />
    <glyph glyph-name="Oslashacute" unicode="&#x1fe;" horiz-adv-x="1294" 
d="M1054 1370l-39 -79c138 -138 144 -280 144 -579s-6 -441 -144 -579c-92 -92 -212 -145 -368 -145c-88 0 -163 17 -230 51l-29 -60c-18 -36 -30 -52 -47 -63c-22 -15 -50 -17 -80 -2c-28 14 -45 39 -45 69c0 20 5 35 23 71l40 79c-138 138 -144 280 -144 579
s5 441 143 579c92 92 212 145 369 145c88 0 162 -19 228 -50l30 59c18 36 30 52 47 63c22 15 50 17 80 2c28 -14 45 -39 45 -69c0 -20 -5 -35 -23 -71zM351 712c0 -192 4 -284 52 -359l403 846c-45 29 -100 45 -159 45c-87 0 -160 -33 -212 -89c-71 -75 -84 -161 -84 -443z
M487 226c46 -30 100 -46 160 -46c86 0 159 34 212 90c70 75 84 160 84 442c0 191 -5 284 -53 358zM848 1760l-93 -149c-14 -22 -29 -44 -44 -55s-29 -16 -47 -16c-16 0 -33 5 -49 15c-31 20 -45 47 -43 77c1 22 9 38 31 74l93 149c14 22 29 44 44 55s29 16 47 16
c16 0 33 -5 49 -15c31 -20 45 -47 43 -77c-1 -22 -9 -38 -31 -74z" />
    <glyph glyph-name="oslashacute" unicode="&#x1ff;" horiz-adv-x="1074" 
d="M221 122c-83 95 -106 206 -106 386c0 170 23 298 119 398c66 68 164 120 302 120c78 0 144 -18 198 -45l40 68c20 33 31 47 51 55c21 8 41 8 64 -6c24 -14 38 -37 37 -63c-2 -17 -7 -31 -25 -61l-49 -82c86 -98 107 -222 107 -384c0 -172 -23 -300 -119 -400
c-66 -68 -166 -120 -304 -120c-79 0 -144 18 -198 45l-41 -69c-20 -33 -31 -47 -51 -55c-21 -8 -41 -8 -64 6c-25 15 -38 37 -36 63c1 17 6 31 24 61zM355 300l300 510c-33 21 -73 32 -118 32c-61 0 -112 -19 -150 -57c-62 -63 -68 -168 -68 -278c0 -72 2 -150 36 -207z
M718 716l-300 -510c33 -21 73 -34 118 -34c61 0 112 21 150 59c62 63 69 168 69 278c0 72 -3 150 -37 207zM740 1399l-93 -149c-14 -22 -29 -44 -44 -55s-29 -16 -47 -16c-16 0 -33 5 -49 15c-31 20 -45 47 -43 77c1 22 9 38 31 74l93 149c14 22 29 44 44 55s29 16 47 16
c16 0 33 -5 49 -15c31 -20 45 -47 43 -77c-1 -22 -9 -38 -31 -74z" />
    <glyph glyph-name="Scommaaccent" unicode="&#x218;" horiz-adv-x="1182" 
d="M571 180c188 0 294 80 294 220c0 64 -16 114 -56 148c-36 32 -84 50 -155 60l-169 24c-115 17 -202 53 -269 115c-71 65 -105 157 -105 273c0 248 180 416 476 416c135 0 217 -22 335 -84c50 -26 87 -63 87 -109c0 -23 -8 -46 -25 -66c-16 -19 -37 -31 -66 -31
c-23 0 -58 13 -87 31c-85 52 -152 70 -252 70c-168 0 -258 -91 -258 -221c0 -52 14 -100 52 -132c36 -32 78 -52 156 -64l170 -26c130 -20 202 -50 264 -106c76 -70 116 -168 116 -292c0 -262 -212 -418 -512 -418c-171 0 -278 33 -383 96c-74 44 -101 74 -101 126
c0 24 11 52 30 71c18 18 40 26 63 26c28 0 53 -9 92 -36c96 -66 180 -91 303 -91zM631 -273l-93 -149c-14 -22 -29 -44 -44 -55s-29 -16 -47 -16c-16 0 -33 5 -49 15c-31 20 -45 47 -43 77c1 22 9 38 31 74l93 149c14 22 29 44 44 55s29 16 47 16c16 0 33 -5 49 -15
c31 -20 45 -47 43 -77c-1 -22 -9 -38 -31 -74z" />
    <glyph glyph-name="scommaaccent" unicode="&#x219;" horiz-adv-x="999" 
d="M489 -12c-158 0 -262 30 -353 92c-32 22 -56 50 -56 85c0 26 12 53 33 70c16 14 34 21 56 21c21 0 45 -9 76 -29c71 -46 142 -68 245 -68c130 0 223 46 223 143c0 68 -39 111 -137 120l-163 15c-189 17 -300 102 -300 278c0 199 171 311 383 311c109 0 194 -19 273 -56
c34 -16 53 -29 66 -43c15 -18 19 -33 19 -56c0 -20 -11 -45 -25 -60c-17 -17 -36 -26 -60 -26c-19 0 -39 8 -66 21c-64 31 -133 53 -211 53c-121 0 -182 -56 -182 -133c0 -75 47 -108 140 -116l160 -15c189 -18 301 -105 301 -286c0 -211 -180 -321 -422 -321zM558 -273
l-93 -149c-14 -22 -29 -44 -44 -55s-29 -16 -47 -16c-16 0 -33 5 -49 15c-31 20 -45 47 -43 77c1 22 9 38 31 74l93 149c14 22 29 44 44 55s29 16 47 16c16 0 33 -5 49 -15c31 -20 45 -47 43 -77c-1 -22 -9 -38 -31 -74z" />
    <glyph glyph-name="uni021A" unicode="&#x21a;" horiz-adv-x="1116" 
d="M1066 1328c0 -38 -18 -67 -44 -82c-22 -12 -42 -14 -88 -14h-268v-1093c0 -53 -1 -70 -16 -98c-16 -29 -49 -49 -92 -49s-76 20 -92 49c-15 28 -16 45 -16 98v1093h-268c-46 0 -66 2 -88 14c-26 15 -44 44 -44 82s18 67 44 82c22 12 42 14 88 14h752c46 0 66 -2 88 -14
c26 -15 44 -44 44 -82zM606 -273l-93 -149c-14 -22 -29 -44 -44 -55s-29 -16 -47 -16c-16 0 -33 5 -49 15c-31 20 -45 47 -43 77c1 22 9 38 31 74l93 149c14 22 29 44 44 55s29 16 47 16c16 0 33 -5 49 -15c31 -20 45 -47 43 -77c-1 -22 -9 -38 -31 -74z" />
    <glyph glyph-name="uni021B" unicode="&#x21b;" horiz-adv-x="703" 
d="M204 281v577h-47c-38 0 -53 2 -71 12c-23 13 -36 36 -36 66s13 53 36 66c18 10 33 12 71 12h47v159c0 49 3 67 15 91c14 27 43 48 87 48s73 -21 87 -48c12 -24 15 -42 15 -91v-159h110c38 0 53 -2 71 -12c23 -13 36 -36 36 -66s-13 -53 -36 -66c-18 -10 -33 -12 -71 -12
h-110v-568c0 -70 28 -115 103 -117c33 -1 56 -4 74 -14c24 -13 41 -38 41 -72s-17 -58 -41 -71c-18 -10 -45 -16 -86 -16h-20c-191 0 -275 132 -275 281zM446 -273l-93 -149c-14 -22 -29 -44 -44 -55s-29 -16 -47 -16c-16 0 -33 5 -49 15c-31 20 -45 47 -43 77
c1 22 9 38 31 74l93 149c14 22 29 44 44 55s29 16 47 16c16 0 33 -5 49 -15c31 -20 45 -47 43 -77c-1 -22 -9 -38 -31 -74z" />
    <glyph glyph-name="uni0237" unicode="&#x237;" horiz-adv-x="528" 
d="M161 -124v1007c0 49 3 67 15 91c14 27 43 48 87 48s73 -21 87 -48c12 -24 15 -42 15 -91v-1016c0 -149 -84 -281 -275 -281h-20c-41 0 -68 6 -86 16c-24 13 -41 37 -41 71s17 59 41 72c18 10 41 13 74 14c75 2 103 47 103 117z" />
    <glyph glyph-name="uni0259" unicode="&#x259;" horiz-adv-x="1075" 
d="M965 507c0 -334 -171 -519 -430 -519c-265 0 -423 193 -429 461c-1 30 3 66 28 91c26 26 60 26 90 26h539c0 173 -91 286 -260 286c-71 0 -140 -20 -195 -64c-31 -25 -57 -37 -83 -37c-41 0 -84 40 -84 87s52 91 102 123c64 42 156 65 265 65c253 0 457 -133 457 -519z
M307 424c4 -62 8 -94 28 -138c34 -76 104 -128 200 -128c98 0 168 52 202 128c20 44 24 76 26 138h-456z" />
    </font>
</defs>
</svg>
