<?xml version="1.0" encoding="utf-8"?>
<!-- Generator: Adobe Illustrator 15.0.0, SVG Export Plug-In  -->
<!DOCTYPE svg PUBLIC "-//W3C//DTD SVG 1.1//EN" "http://www.w3.org/Graphics/SVG/1.1/DTD/svg11.dtd" [
	<!ENTITY ns_flows "http://ns.adobe.com/Flows/1.0/">
]>
<svg version="1.1"
	 xmlns="http://www.w3.org/2000/svg" xmlns:xlink="http://www.w3.org/1999/xlink" xmlns:a="http://ns.adobe.com/AdobeSVGViewerExtensions/3.0/"
	 x="0px" y="0px" width="500px" height="400px" viewBox="-48.5 -29.7 500 400"
	 overflow="visible" enable-background="new -48.5 -29.7 500 400" xml:space="preserve">
<defs>
</defs>
<path fill="#8DFF4A" d="M171.1,211.9c22.3,23.3,24.2,57.7,4.3,76.8l0,0c-20,19.1-54.2,15.7-76.5-7.6l-80.8-84.4
	c-22.3-23.3-24.2-57.7-4.3-76.8l0,0c20-19.1,54.2-15.7,76.5,7.6L171.1,211.9z"/>
<path fill="#8DFF4A" d="M391.6,12.7c19,19.9,13.1,56.5-13.2,81.7L186.9,277.6c-26.3,25.2-63.1,29.5-82.2,9.6l-0.2-0.2
	c-19-19.9-13.1-56.5,13.2-81.7L309.3,22.1c26.3-25.2,63.1-29.5,82.2-9.6L391.6,12.7z"/>
</svg>
