<?xml version="1.0" encoding="utf-8"?>
<!-- Generator: Adobe Illustrator 15.0.0, SVG Export Plug-In  -->
<!DOCTYPE svg PUBLIC "-//W3C//DTD SVG 1.1//EN" "http://www.w3.org/Graphics/SVG/1.1/DTD/svg11.dtd" [
	<!ENTITY ns_flows "http://ns.adobe.com/Flows/1.0/">
]>
<svg version="1.1"
	 xmlns="http://www.w3.org/2000/svg" xmlns:xlink="http://www.w3.org/1999/xlink" xmlns:a="http://ns.adobe.com/AdobeSVGViewerExtensions/3.0/"
	 x="0px" y="0px" width="1000px" height="1000px" viewBox="-100 -13.079 1000 1000"
	 overflow="visible" enable-background="new -100 -13.079 1000 1000" xml:space="preserve">
<defs>
</defs>
<circle fill="#EFEFEF" cx="400" cy="486.921" r="400"/>
<text transform="matrix(1 0 0 1 460.4551 608.7368)" fill="#CCCCCC" font-family="'AFuturaRoundBold'" font-size="700.1066">?</text>
<path fill="#D9391C" d="M25.662,628.18c6.491-5.707,13.773-10.278,22.268-12.623C235,563.921,369.164,651.25,413.779,678.02
	c23.26,13.955,60.775,48.153,96.179,86.607c8.453,31.668,9.079,68.062,3.831,105.874c-36.066,10.683-74.258,16.42-113.789,16.42
	C228.814,886.921,82.749,779.384,25.662,628.18z"/>
<circle fill="#FFC28A" cx="342.931" cy="497.865" r="196.31"/>
<path fill="#FFCEA9" d="M438.329,632.055c-31.434,37.951-26.15,94.203,11.804,125.639c37.955,31.435,94.205,26.148,125.64-11.806
	c31.435-37.952,26.149-94.203-11.804-125.64C526.014,588.815,469.764,594.098,438.329,632.055z"/>
<path fill="#FF6347" d="M512.256,763.19c34.2-0.427,65.326-18.729,65.326-18.729s-4.156,54.833-27.385,114.299
	c-46.376,18.802-97.076,29.161-150.197,29.161c-2.898,0-5.788-0.038-8.672-0.1c48.215-62.129,58.155-131.01,58.155-131.01
	S478.057,763.62,512.256,763.19z"/>
<path fill="#D8AC88" d="M301.94,306.075c77.964-16.578,154.954,15.619,199.226,75.972c-26.038-2.011-15.071,49.645-104.674,26.998
	c-107.664-27.211-111.54,19.741-126.533,61.582l13.27,62.358l-36.188,7.702l-8.223-38.642c-9.958-10.268-24.807-15.348-39.83-12.154
	c-23.229,4.94-38.056,27.774-33.117,51.003c3.594,16.895,16.655,29.329,32.448,32.959c-7.172,10.545-10.227,23.465-7.474,36.409
	c1.761,8.28,5.684,15.589,11.12,21.537c-0.096,0.933-0.212,1.86-0.297,2.794c-24.805-25.593-42.955-58.237-50.914-95.671
	C128.205,432.874,195.894,328.625,301.94,306.075z"/>
</svg>
