<?xml version="1.0" encoding="utf-8"?>
<!-- Generator: Adobe Illustrator 15.0.0, SVG Export Plug-In  -->
<!DOCTYPE svg PUBLIC "-//W3C//DTD SVG 1.1//EN" "http://www.w3.org/Graphics/SVG/1.1/DTD/svg11.dtd" [
	<!ENTITY ns_flows "http://ns.adobe.com/Flows/1.0/">
]>
<svg version="1.1"
	 xmlns="http://www.w3.org/2000/svg" xmlns:xlink="http://www.w3.org/1999/xlink" xmlns:a="http://ns.adobe.com/AdobeSVGViewerExtensions/3.0/"
	 x="0px" y="0px" width="1000px" height="1000px" viewBox="-100 -93.313 1000 1000"
	 overflow="visible" enable-background="new -100 -93.313 1000 1000" xml:space="preserve">
<defs>
</defs>
<circle fill="#EFEFEF" cx="400" cy="406.687" r="400"/>
<text transform="matrix(1 0 0 1 0 608.7368)" fill="#CCCCCC" font-family="'AFuturaRoundBold'" font-size="700.1066">?</text>
<path fill="#D9391C" d="M774.338,547.946c-6.491-5.707-13.773-10.278-22.268-12.623c-187.07-51.636-321.234,35.693-365.85,62.463
	c-23.26,13.955-60.776,48.153-96.179,86.607c-8.453,31.668-9.079,68.062-3.831,105.874c36.066,10.683,74.257,16.42,113.789,16.42
	C571.186,806.687,717.251,699.15,774.338,547.946z"/>
<circle fill="#FFC28A" cx="400.069" cy="411.63" r="196.31"/>
<path fill="#FFCEA9" d="M361.671,551.821c31.434,37.951,26.15,94.203-11.804,125.639c-37.954,31.435-94.205,26.148-125.639-11.806
	c-31.435-37.952-26.149-94.203,11.803-125.64C273.986,508.581,330.236,513.864,361.671,551.821z"/>
<path fill="#FF6347" d="M287.744,682.956c-34.2-0.427-65.325-18.729-65.325-18.729s4.156,54.833,27.384,114.299
	c46.376,18.802,97.076,29.161,150.197,29.161c2.898,0,5.788-0.038,8.672-0.1c-48.214-62.129-58.155-131.01-58.155-131.01
	S321.944,683.385,287.744,682.956z"/>
<path fill="#D8AC88" d="M441.06,219.84c-77.964-16.578-154.955,15.619-199.226,75.972c26.038-2.011,15.071,49.645,104.673,26.998
	c107.665-27.211,111.541,19.741,126.534,61.582l-13.27,62.358l36.188,7.702l8.223-38.642c9.958-10.267,24.807-15.348,39.83-12.154
	c23.229,4.94,38.056,27.774,33.117,51.002c-3.594,16.895-16.655,29.329-32.448,32.959c7.172,10.545,10.227,23.465,7.474,36.409
	c-1.761,8.28-5.684,15.589-11.12,21.537c0.096,0.933,0.212,1.86,0.297,2.794c24.805-25.593,42.955-58.237,50.914-95.671
	C614.795,346.64,547.107,242.39,441.06,219.84z"/>
</svg>
