<?xml version="1.0" encoding="utf-8"?>
<!-- Generator: Adobe Illustrator 15.0.0, SVG Export Plug-In  -->
<!DOCTYPE svg PUBLIC "-//W3C//DTD SVG 1.1//EN" "http://www.w3.org/Graphics/SVG/1.1/DTD/svg11.dtd" [
	<!ENTITY ns_flows "http://ns.adobe.com/Flows/1.0/">
]>
<svg version="1.1"
	 xmlns="http://www.w3.org/2000/svg" xmlns:xlink="http://www.w3.org/1999/xlink" xmlns:a="http://ns.adobe.com/AdobeSVGViewerExtensions/3.0/"
	 x="0px" y="0px" width="800px" height="800px" viewBox="-237 -163.016 800 800"
	 overflow="visible" enable-background="new -237 -163.016 800 800" xml:space="preserve">
<defs>
</defs>
<polygon display="none" fill="#DD6F9C" points="201,151.129 116,185.968 116,69.839 201,35 "/>
<polygon display="none" fill="#FF7BAC" points="116,185.968 1,151.129 1,35 116,64.032 "/>
<polygon display="none" fill="#FCA2C7" points="116,69.839 1,35 87,0 201,35 "/>
<polygon display="none" fill="#DD6F9C" points="326,439.831 241,474.669 241,358.541 326,323.702 "/>
<polygon display="none" fill="#FF7BAC" points="241,474.669 126,439.831 126,323.702 241,352.734 "/>
<polygon display="none" fill="#FCA2C7" points="241,358.541 126,323.702 212,288.702 326,323.702 "/>
<polygon display="none" fill="#DD6F9C" points="326,315.831 241,350.669 241,234.541 326,199.702 "/>
<polygon display="none" fill="#FF7BAC" points="241,350.669 126,315.831 126,199.702 241,228.734 "/>
<polygon display="none" fill="#FCA2C7" points="241,234.541 126,199.702 212,164.702 326,199.702 "/>
<polygon display="none" fill="#DD6F9C" points="326,189.831 241,224.669 241,108.541 326,73.702 "/>
<polygon display="none" fill="#FF7BAC" points="241,224.669 126,189.831 126,73.702 241,102.734 "/>
<polygon display="none" fill="#FCA2C7" points="241,108.541 126,73.702 212,38.702 326,73.702 "/>
<polygon fill="#DD6F9C" points="200,402.831 115,437.669 115,321.541 200,286.702 "/>
<polygon fill="#FF7BAC" points="115,437.669 0,402.831 0,286.702 115,315.734 "/>
<polygon fill="#FCA2C7" points="115,321.541 0,286.702 86,251.702 200,286.702 "/>
<polygon fill="#DD6F9C" points="200,277.128 115,311.968 115,195.839 200,161 "/>
<polygon fill="#FF7BAC" points="115,311.968 0,277.128 0,161 115,190.033 "/>
<polygon fill="#FCA2C7" points="115,195.839 0,161 86,126 200,161 "/>
<polygon fill="#DD6F9C" points="325,315.831 240,350.669 240,234.541 325,199.702 "/>
<polygon fill="#FF7BAC" points="240,350.669 125,315.831 125,199.702 240,228.734 "/>
<polygon fill="#FCA2C7" points="240,234.541 125,199.702 211,164.702 325,199.702 "/>
<polygon fill="#DD6F9C" points="451,354.128 366,388.968 366,272.839 451,238 "/>
<polygon fill="#FF7BAC" points="366,388.968 251,354.128 251,238 366,267.033 "/>
<polygon fill="#FCA2C7" points="366,272.839 251,238 337,203 451,238 "/>
</svg>
