<?xml version="1.0" encoding="utf-8"?>
<!-- Generator: Adobe Illustrator 15.0.0, SVG Export Plug-In  -->
<!DOCTYPE svg PUBLIC "-//W3C//DTD SVG 1.1//EN" "http://www.w3.org/Graphics/SVG/1.1/DTD/svg11.dtd" [
	<!ENTITY ns_flows "http://ns.adobe.com/Flows/1.0/">
]>
<svg version="1.1"
	 xmlns="http://www.w3.org/2000/svg" xmlns:xlink="http://www.w3.org/1999/xlink" xmlns:a="http://ns.adobe.com/AdobeSVGViewerExtensions/3.0/"
	 x="0px" y="0px" width="800px" height="800px" viewBox="-238 -163.016 800 800"
	 overflow="visible" enable-background="new -238 -163.016 800 800" xml:space="preserve">
<defs>
</defs>
<polygon fill="#DD6F9C" points="200,151.129 115,185.968 115,69.839 200,35 "/>
<polygon fill="#FF7BAC" points="115,185.968 0,151.129 0,35 115,64.032 "/>
<polygon fill="#FCA2C7" points="115,69.839 0,35 86,0 200,35 "/>
<polygon fill="#DD6F9C" points="325,439.831 240,474.669 240,358.541 325,323.702 "/>
<polygon fill="#FF7BAC" points="240,474.669 125,439.831 125,323.702 240,352.734 "/>
<polygon fill="#FCA2C7" points="240,358.541 125,323.702 211,288.702 325,323.702 "/>
<polygon fill="#DD6F9C" points="325,315.831 240,350.669 240,234.541 325,199.702 "/>
<polygon fill="#FF7BAC" points="240,350.669 125,315.831 125,199.702 240,228.734 "/>
<polygon fill="#FCA2C7" points="240,234.541 125,199.702 211,164.702 325,199.702 "/>
<polygon fill="#DD6F9C" points="325,189.831 240,224.669 240,108.541 325,73.702 "/>
<polygon fill="#FF7BAC" points="240,224.669 125,189.831 125,73.702 240,102.734 "/>
<polygon fill="#FCA2C7" points="240,108.541 125,73.702 211,38.702 325,73.702 "/>
</svg>
